G04 #@! TF.FileFunction,Copper,L1,Top,Signal*
%FSLAX46Y46*%
G04 Gerber Fmt 4.6, Leading zero omitted, Abs format (unit mm)*
G04 Created by KiCad (PCBNEW (2014-11-24 BZR 5301)-product) date Sat Mar 28 18:02:59 2015*
%MOMM*%
G01*
G04 APERTURE LIST*
%ADD10C,0.100000*%
%ADD11C,0.152400*%
%ADD12C,0.889000*%
%ADD13R,1.200000X0.750000*%
%ADD14R,0.750000X1.200000*%
%ADD15R,1.200000X0.900000*%
%ADD16R,1.727200X2.032000*%
%ADD17O,1.727200X2.032000*%
%ADD18R,0.600000X1.600000*%
%ADD19C,3.810000*%
%ADD20R,1.524000X1.524000*%
%ADD21C,1.524000*%
%ADD22C,0.254000*%
%ADD23C,0.762000*%
%ADD24C,0.508000*%
G04 APERTURE END LIST*
D10*
D11*
X123708886Y-105907114D02*
X123708886Y-105145114D01*
X123781457Y-105616829D02*
X123999171Y-105907114D01*
X123999171Y-105399114D02*
X123708886Y-105689400D01*
X124325743Y-105907114D02*
X124325743Y-105145114D01*
X124325743Y-105435400D02*
X124398314Y-105399114D01*
X124543457Y-105399114D01*
X124616028Y-105435400D01*
X124652314Y-105471686D01*
X124688600Y-105544257D01*
X124688600Y-105761971D01*
X124652314Y-105834543D01*
X124616028Y-105870829D01*
X124543457Y-105907114D01*
X124398314Y-105907114D01*
X124325743Y-105870829D01*
D12*
X140462000Y-86614000D03*
X146050000Y-100330000D03*
X128270000Y-105410000D03*
X147320000Y-105410000D03*
X144145000Y-105410000D03*
X146050000Y-103505000D03*
X151130000Y-92710000D03*
X146050000Y-95250000D03*
X149860000Y-93980000D03*
X146050000Y-97790000D03*
X144780000Y-96520000D03*
X148590000Y-92710000D03*
X149860000Y-91440000D03*
X148590000Y-88900000D03*
X149860000Y-87630000D03*
X147320000Y-87630000D03*
X148590000Y-86360000D03*
X130175000Y-104140000D03*
X127000000Y-99060000D03*
X127000000Y-93980000D03*
X128270000Y-92710000D03*
X127000000Y-91440000D03*
X125730000Y-92710000D03*
X127000000Y-87630000D03*
X125730000Y-88900000D03*
X125730000Y-86360000D03*
X124460000Y-87630000D03*
X134874000Y-99060000D03*
X127000000Y-96520000D03*
X134620000Y-91948000D03*
X141478000Y-91694000D03*
X139192000Y-91440000D03*
X147320000Y-96520000D03*
X125730000Y-97790000D03*
X128270000Y-97790000D03*
X132080000Y-105410000D03*
D13*
X131384000Y-86614000D03*
X133284000Y-86614000D03*
D14*
X144526000Y-93152000D03*
X144526000Y-91252000D03*
X131318000Y-93152000D03*
X131318000Y-91252000D03*
D13*
X136464000Y-97790000D03*
X138364000Y-97790000D03*
X131384000Y-97790000D03*
X133284000Y-97790000D03*
D15*
X136568000Y-86614000D03*
X138768000Y-86614000D03*
X144356000Y-86614000D03*
X142156000Y-86614000D03*
D16*
X131572000Y-83312000D03*
D17*
X134112000Y-83312000D03*
X136652000Y-83312000D03*
X139192000Y-83312000D03*
X141732000Y-83312000D03*
X144272000Y-83312000D03*
D18*
X133477000Y-89281000D03*
X136017000Y-89281000D03*
X137287000Y-89281000D03*
X138557000Y-89281000D03*
X139827000Y-89281000D03*
X141097000Y-89281000D03*
X142367000Y-89281000D03*
X142367000Y-95123000D03*
X141097000Y-95123000D03*
X139827000Y-95123000D03*
X138557000Y-95123000D03*
X137287000Y-95123000D03*
X136017000Y-95123000D03*
X134747000Y-95123000D03*
X133477000Y-95123000D03*
X134747000Y-89281000D03*
D19*
X125476000Y-102489000D03*
X150495000Y-102489000D03*
D20*
X143383000Y-101092000D03*
D21*
X140716000Y-101092000D03*
X137922000Y-101092000D03*
X135255000Y-101092000D03*
X132461000Y-101092000D03*
X142113000Y-103886000D03*
X139319000Y-103886000D03*
X136652000Y-103886000D03*
X133858000Y-103886000D03*
D12*
X134747000Y-87757000D03*
X143256000Y-91186000D03*
X132588000Y-91186000D03*
X133223000Y-87757000D03*
X137922000Y-93599000D03*
X136652000Y-93599000D03*
D22*
X131384000Y-97089000D02*
X131826000Y-96647000D01*
X131826000Y-96647000D02*
X132969000Y-96647000D01*
X132969000Y-96647000D02*
X133477000Y-96139000D01*
X133477000Y-96139000D02*
X133477000Y-95123000D01*
X131384000Y-97790000D02*
X131384000Y-97089000D01*
X136017000Y-96266000D02*
X135636000Y-96647000D01*
X135636000Y-96647000D02*
X133731000Y-96647000D01*
X133731000Y-96647000D02*
X133284000Y-97094000D01*
X133284000Y-97094000D02*
X133284000Y-97790000D01*
X136017000Y-95123000D02*
X136017000Y-96266000D01*
X136464000Y-97089000D02*
X137287000Y-96266000D01*
X137287000Y-96266000D02*
X137287000Y-95123000D01*
X136464000Y-97790000D02*
X136464000Y-97089000D01*
X138364000Y-97094000D02*
X138557000Y-96901000D01*
X138557000Y-96901000D02*
X138557000Y-95123000D01*
X138364000Y-97790000D02*
X138364000Y-97094000D01*
X134747000Y-93980000D02*
X133919000Y-93152000D01*
X133919000Y-93152000D02*
X131318000Y-93152000D01*
X134747000Y-95123000D02*
X134747000Y-93980000D01*
X134747000Y-89281000D02*
X134747000Y-87757000D01*
X143322000Y-91252000D02*
X143256000Y-91186000D01*
X144526000Y-91252000D02*
X143322000Y-91252000D01*
X132522000Y-91252000D02*
X132588000Y-91186000D01*
X131318000Y-91252000D02*
X132522000Y-91252000D01*
X133284000Y-87696000D02*
X133223000Y-87757000D01*
X133284000Y-86614000D02*
X133284000Y-87696000D01*
X139827000Y-93980000D02*
X140655000Y-93152000D01*
X140655000Y-93152000D02*
X144526000Y-93152000D01*
X139827000Y-95123000D02*
X139827000Y-93980000D01*
D23*
X131572000Y-85090000D02*
X131384000Y-85278000D01*
X131384000Y-85278000D02*
X131384000Y-86614000D01*
X131572000Y-83312000D02*
X131572000Y-85090000D01*
X136568000Y-86022000D02*
X135890000Y-85344000D01*
X135890000Y-85344000D02*
X132334000Y-85344000D01*
X132334000Y-85344000D02*
X131572000Y-84582000D01*
X131572000Y-84582000D02*
X131572000Y-83312000D01*
X136568000Y-86614000D02*
X136568000Y-86022000D01*
X144356000Y-86276000D02*
X144356000Y-86614000D01*
X145034000Y-85598000D02*
X144356000Y-86276000D01*
X131572000Y-83312000D02*
X131572000Y-82042000D01*
X146558000Y-84836000D02*
X145796000Y-85598000D01*
X146558000Y-81788000D02*
X146558000Y-84836000D01*
X145796000Y-81026000D02*
X146558000Y-81788000D01*
X132588000Y-81026000D02*
X145796000Y-81026000D01*
X131572000Y-82042000D02*
X132588000Y-81026000D01*
X145796000Y-85598000D02*
X145034000Y-85598000D01*
X131384000Y-88458000D02*
X132207000Y-89281000D01*
D24*
X132207000Y-89281000D02*
X133477000Y-89281000D01*
D23*
X131384000Y-86614000D02*
X131384000Y-88458000D01*
D22*
X135255000Y-104521000D02*
X136017000Y-105283000D01*
X136017000Y-105283000D02*
X140716000Y-105283000D01*
X140716000Y-105283000D02*
X142113000Y-103886000D01*
X135255000Y-101092000D02*
X135255000Y-104521000D01*
X143383000Y-102616000D02*
X142113000Y-103886000D01*
X143383000Y-101092000D02*
X143383000Y-102616000D01*
X140716000Y-99060000D02*
X141097000Y-98679000D01*
X141097000Y-98679000D02*
X141097000Y-95123000D01*
X140716000Y-101092000D02*
X140716000Y-99060000D01*
X139319000Y-102489000D02*
X141351000Y-102489000D01*
X141351000Y-102489000D02*
X141986000Y-101854000D01*
X141986000Y-101854000D02*
X141986000Y-99187000D01*
X141986000Y-99187000D02*
X142367000Y-98806000D01*
X142367000Y-98806000D02*
X142367000Y-95123000D01*
X137922000Y-101092000D02*
X139319000Y-102489000D01*
X137287000Y-89281000D02*
X137287000Y-92964000D01*
X137287000Y-92964000D02*
X137922000Y-93599000D01*
X136652000Y-93599000D02*
X136017000Y-92964000D01*
X136017000Y-92964000D02*
X136017000Y-89281000D01*
X138557000Y-88392000D02*
X137668000Y-87503000D01*
X137668000Y-87503000D02*
X137668000Y-85725000D01*
X137668000Y-85725000D02*
X136652000Y-84709000D01*
X136652000Y-84709000D02*
X136652000Y-83312000D01*
X138557000Y-89281000D02*
X138557000Y-88392000D01*
X139827000Y-88265000D02*
X138768000Y-87206000D01*
X138768000Y-87206000D02*
X138768000Y-86614000D01*
X139827000Y-89281000D02*
X139827000Y-88265000D01*
X138768000Y-85387000D02*
X139192000Y-84963000D01*
X139192000Y-84963000D02*
X139192000Y-83312000D01*
X138768000Y-86614000D02*
X138768000Y-85387000D01*
X141097000Y-88265000D02*
X142156000Y-87206000D01*
X142156000Y-87206000D02*
X142156000Y-86614000D01*
X141097000Y-89281000D02*
X141097000Y-88265000D01*
X141732000Y-84836000D02*
X142156000Y-85260000D01*
X142156000Y-85260000D02*
X142156000Y-86614000D01*
X141732000Y-83312000D02*
X141732000Y-84836000D01*
X144272000Y-84709000D02*
X144272000Y-83312000D01*
X143256000Y-85725000D02*
X144272000Y-84709000D01*
X143256000Y-87757000D02*
X143256000Y-85725000D01*
X142367000Y-88646000D02*
X143256000Y-87757000D01*
X142367000Y-89281000D02*
X142367000Y-88646000D01*
G36*
X134259000Y-83439000D02*
X134239000Y-83439000D01*
X134239000Y-83459000D01*
X133985000Y-83459000D01*
X133985000Y-83439000D01*
X133965000Y-83439000D01*
X133965000Y-83185000D01*
X133985000Y-83185000D01*
X133985000Y-83165000D01*
X134239000Y-83165000D01*
X134239000Y-83185000D01*
X134259000Y-83185000D01*
X134259000Y-83439000D01*
X134259000Y-83439000D01*
G37*
X134259000Y-83439000D02*
X134239000Y-83439000D01*
X134239000Y-83459000D01*
X133985000Y-83459000D01*
X133985000Y-83439000D01*
X133965000Y-83439000D01*
X133965000Y-83185000D01*
X133985000Y-83185000D01*
X133985000Y-83165000D01*
X134239000Y-83165000D01*
X134239000Y-83185000D01*
X134259000Y-83185000D01*
X134259000Y-83439000D01*
G36*
X141371480Y-85553111D02*
X141196302Y-85625673D01*
X141017673Y-85804301D01*
X140921000Y-86037690D01*
X140921000Y-86290309D01*
X140921000Y-87190309D01*
X140971688Y-87312681D01*
X140558185Y-87726185D01*
X140462000Y-87870135D01*
X140365815Y-87726185D01*
X139952311Y-87312681D01*
X140003000Y-87190310D01*
X140003000Y-86937691D01*
X140003000Y-86037691D01*
X139906327Y-85804302D01*
X139727699Y-85625673D01*
X139642322Y-85590308D01*
X139730815Y-85501815D01*
X139730816Y-85501815D01*
X139895996Y-85254605D01*
X139895997Y-85254604D01*
X139954000Y-84963000D01*
X139954000Y-84755311D01*
X140251670Y-84556415D01*
X140462000Y-84241634D01*
X140672330Y-84556415D01*
X140970000Y-84755311D01*
X140970000Y-84836000D01*
X141028004Y-85127605D01*
X141193185Y-85374815D01*
X141371480Y-85553111D01*
X141371480Y-85553111D01*
G37*
X141371480Y-85553111D02*
X141196302Y-85625673D01*
X141017673Y-85804301D01*
X140921000Y-86037690D01*
X140921000Y-86290309D01*
X140921000Y-87190309D01*
X140971688Y-87312681D01*
X140558185Y-87726185D01*
X140462000Y-87870135D01*
X140365815Y-87726185D01*
X139952311Y-87312681D01*
X140003000Y-87190310D01*
X140003000Y-86937691D01*
X140003000Y-86037691D01*
X139906327Y-85804302D01*
X139727699Y-85625673D01*
X139642322Y-85590308D01*
X139730815Y-85501815D01*
X139730816Y-85501815D01*
X139895996Y-85254605D01*
X139895997Y-85254604D01*
X139954000Y-84963000D01*
X139954000Y-84755311D01*
X140251670Y-84556415D01*
X140462000Y-84241634D01*
X140672330Y-84556415D01*
X140970000Y-84755311D01*
X140970000Y-84836000D01*
X141028004Y-85127605D01*
X141193185Y-85374815D01*
X141371480Y-85553111D01*
G36*
X152452000Y-106224000D02*
X152121835Y-106224000D01*
X152121835Y-104295440D01*
X150495000Y-102668605D01*
X150315395Y-102848210D01*
X150315395Y-102489000D01*
X148688560Y-100862165D01*
X148327711Y-101071353D01*
X147950176Y-102008650D01*
X147960067Y-103019077D01*
X148327711Y-103906647D01*
X148688560Y-104115835D01*
X150315395Y-102489000D01*
X150315395Y-102848210D01*
X148868165Y-104295440D01*
X149077353Y-104656289D01*
X150014650Y-105033824D01*
X151025077Y-105023933D01*
X151912647Y-104656289D01*
X152121835Y-104295440D01*
X152121835Y-106224000D01*
X128020824Y-106224000D01*
X128020824Y-102969350D01*
X128010933Y-101958923D01*
X127643289Y-101071353D01*
X127282440Y-100862165D01*
X127102835Y-101041770D01*
X127102835Y-100682560D01*
X126893647Y-100321711D01*
X125956350Y-99944176D01*
X124945923Y-99954067D01*
X124058353Y-100321711D01*
X123849165Y-100682560D01*
X125476000Y-102309395D01*
X127102835Y-100682560D01*
X127102835Y-101041770D01*
X125655605Y-102489000D01*
X127282440Y-104115835D01*
X127643289Y-103906647D01*
X128020824Y-102969350D01*
X128020824Y-106224000D01*
X125544943Y-106224000D01*
X125544943Y-105028447D01*
X126006077Y-105023933D01*
X126893647Y-104656289D01*
X127102835Y-104295440D01*
X125476000Y-102668605D01*
X125461857Y-102682747D01*
X125282252Y-102503142D01*
X125296395Y-102489000D01*
X123669560Y-100862165D01*
X123392000Y-101023069D01*
X123392000Y-83711525D01*
X123411090Y-83757727D01*
X124011114Y-84358800D01*
X124795485Y-84684499D01*
X125644789Y-84685240D01*
X126429727Y-84360910D01*
X127030800Y-83760886D01*
X127356499Y-82976515D01*
X127357240Y-82127211D01*
X127032910Y-81342273D01*
X126432886Y-80741200D01*
X126381830Y-80720000D01*
X131457159Y-80720000D01*
X130853580Y-81323580D01*
X130633338Y-81653193D01*
X130631785Y-81661000D01*
X130582091Y-81661000D01*
X130348702Y-81757673D01*
X130170073Y-81936301D01*
X130073400Y-82169690D01*
X130073400Y-82422309D01*
X130073400Y-84454309D01*
X130170073Y-84687698D01*
X130348701Y-84866327D01*
X130442184Y-84905049D01*
X130432507Y-84953700D01*
X130368000Y-85278000D01*
X130368000Y-85756974D01*
X130245673Y-85879301D01*
X130149000Y-86112690D01*
X130149000Y-86365309D01*
X130149000Y-87115309D01*
X130245673Y-87348698D01*
X130368000Y-87471025D01*
X130368000Y-88458000D01*
X130432507Y-88782299D01*
X130445338Y-88846807D01*
X130665580Y-89176420D01*
X131488580Y-89999421D01*
X131568157Y-90052592D01*
X131445000Y-90175750D01*
X131445000Y-91125000D01*
X132169250Y-91125000D01*
X132328000Y-90966250D01*
X132328000Y-90525691D01*
X132231327Y-90292302D01*
X132231208Y-90292183D01*
X132550823Y-90228609D01*
X132638673Y-90440698D01*
X132817301Y-90619327D01*
X133050690Y-90716000D01*
X133303309Y-90716000D01*
X133903309Y-90716000D01*
X134112000Y-90629557D01*
X134320691Y-90716000D01*
X134461250Y-90716000D01*
X134620000Y-90557250D01*
X134620000Y-89408000D01*
X134600000Y-89408000D01*
X134600000Y-89154000D01*
X134620000Y-89154000D01*
X134620000Y-88004750D01*
X134519000Y-87903750D01*
X134519000Y-87115310D01*
X134519000Y-86899750D01*
X134360250Y-86741000D01*
X133411000Y-86741000D01*
X133411000Y-87465250D01*
X133569750Y-87624000D01*
X134010309Y-87624000D01*
X134243698Y-87527327D01*
X134422327Y-87348699D01*
X134519000Y-87115310D01*
X134519000Y-87903750D01*
X134461250Y-87846000D01*
X134320691Y-87846000D01*
X134112000Y-87932442D01*
X133903310Y-87846000D01*
X133650691Y-87846000D01*
X133050691Y-87846000D01*
X132817302Y-87942673D01*
X132638673Y-88121301D01*
X132593411Y-88230571D01*
X132400000Y-88037159D01*
X132400000Y-87558682D01*
X132557691Y-87624000D01*
X132998250Y-87624000D01*
X133157000Y-87465250D01*
X133157000Y-86741000D01*
X133137000Y-86741000D01*
X133137000Y-86487000D01*
X133157000Y-86487000D01*
X133157000Y-86467000D01*
X133411000Y-86467000D01*
X133411000Y-86487000D01*
X134360250Y-86487000D01*
X134487250Y-86360000D01*
X134519000Y-86360000D01*
X135333000Y-86360000D01*
X135333000Y-87190309D01*
X135429673Y-87423698D01*
X135608301Y-87602327D01*
X135841690Y-87699000D01*
X136094309Y-87699000D01*
X136944986Y-87699000D01*
X136944987Y-87699000D01*
X136964004Y-87794605D01*
X136998345Y-87846000D01*
X136860691Y-87846000D01*
X136652000Y-87932442D01*
X136443310Y-87846000D01*
X136190691Y-87846000D01*
X135590691Y-87846000D01*
X135382000Y-87932442D01*
X135173309Y-87846000D01*
X135032750Y-87846000D01*
X134874000Y-88004750D01*
X134874000Y-89154000D01*
X134894000Y-89154000D01*
X134894000Y-89408000D01*
X134874000Y-89408000D01*
X134874000Y-90557250D01*
X135032750Y-90716000D01*
X135173309Y-90716000D01*
X135255000Y-90682162D01*
X135255000Y-92964000D01*
X135313004Y-93255605D01*
X135478185Y-93502815D01*
X135572500Y-93597130D01*
X135572415Y-93695570D01*
X135461557Y-93741489D01*
X135450996Y-93688396D01*
X135450996Y-93688395D01*
X135285815Y-93441185D01*
X134457815Y-92613185D01*
X134210605Y-92448004D01*
X133919000Y-92390000D01*
X132313216Y-92390000D01*
X132235344Y-92202000D01*
X132328000Y-91978309D01*
X132328000Y-91537750D01*
X132169250Y-91379000D01*
X131445000Y-91379000D01*
X131445000Y-91399000D01*
X131191000Y-91399000D01*
X131191000Y-91379000D01*
X131191000Y-91125000D01*
X131191000Y-90175750D01*
X131032250Y-90017000D01*
X130816690Y-90017000D01*
X130583301Y-90113673D01*
X130404673Y-90292302D01*
X130308000Y-90525691D01*
X130308000Y-90966250D01*
X130466750Y-91125000D01*
X131191000Y-91125000D01*
X131191000Y-91379000D01*
X130466750Y-91379000D01*
X130308000Y-91537750D01*
X130308000Y-91978309D01*
X130400655Y-92201999D01*
X130308000Y-92425690D01*
X130308000Y-92678309D01*
X130308000Y-93878309D01*
X130404673Y-94111698D01*
X130583301Y-94290327D01*
X130816690Y-94387000D01*
X131069309Y-94387000D01*
X131819309Y-94387000D01*
X132052698Y-94290327D01*
X132231327Y-94111699D01*
X132313216Y-93914000D01*
X132687974Y-93914000D01*
X132638673Y-93963301D01*
X132542000Y-94196690D01*
X132542000Y-94449309D01*
X132542000Y-95885000D01*
X131826000Y-95885000D01*
X131534395Y-95943004D01*
X131287184Y-96108185D01*
X130845185Y-96550185D01*
X130691627Y-96780000D01*
X130657691Y-96780000D01*
X130424302Y-96876673D01*
X130245673Y-97055301D01*
X130149000Y-97288690D01*
X130149000Y-97541309D01*
X130149000Y-98291309D01*
X130245673Y-98524698D01*
X130424301Y-98703327D01*
X130657690Y-98800000D01*
X130910309Y-98800000D01*
X132110309Y-98800000D01*
X132333999Y-98707344D01*
X132557690Y-98800000D01*
X132810309Y-98800000D01*
X134010309Y-98800000D01*
X134243698Y-98703327D01*
X134422327Y-98524699D01*
X134519000Y-98291310D01*
X134519000Y-98038691D01*
X134519000Y-97409000D01*
X135229000Y-97409000D01*
X135229000Y-97541309D01*
X135229000Y-98291309D01*
X135325673Y-98524698D01*
X135504301Y-98703327D01*
X135737690Y-98800000D01*
X135990309Y-98800000D01*
X137190309Y-98800000D01*
X137413999Y-98707344D01*
X137637690Y-98800000D01*
X137890309Y-98800000D01*
X139090309Y-98800000D01*
X139323698Y-98703327D01*
X139502327Y-98524699D01*
X139599000Y-98291310D01*
X139599000Y-98038691D01*
X139599000Y-97288691D01*
X139502327Y-97055302D01*
X139323699Y-96876673D01*
X139319000Y-96874726D01*
X139319000Y-96524162D01*
X139400690Y-96558000D01*
X139653309Y-96558000D01*
X140253309Y-96558000D01*
X140335000Y-96524162D01*
X140335000Y-98363369D01*
X140177185Y-98521185D01*
X140012004Y-98768395D01*
X139954000Y-99060000D01*
X139954000Y-99895295D01*
X139925697Y-99906990D01*
X139532371Y-100299630D01*
X139319243Y-100812900D01*
X139319240Y-100815336D01*
X139107010Y-100301697D01*
X138714370Y-99908371D01*
X138201100Y-99695243D01*
X137645339Y-99694758D01*
X137131697Y-99906990D01*
X136738371Y-100299630D01*
X136588394Y-100660814D01*
X136440010Y-100301697D01*
X136047370Y-99908371D01*
X135534100Y-99695243D01*
X134978339Y-99694758D01*
X134464697Y-99906990D01*
X134071371Y-100299630D01*
X133858243Y-100812900D01*
X133858029Y-101057656D01*
X133842362Y-100744632D01*
X133683397Y-100360857D01*
X133441213Y-100291392D01*
X133261608Y-100470997D01*
X133261608Y-100111787D01*
X133192143Y-99869603D01*
X132668698Y-99682856D01*
X132113632Y-99710638D01*
X131729857Y-99869603D01*
X131660392Y-100111787D01*
X132461000Y-100912395D01*
X133261608Y-100111787D01*
X133261608Y-100470997D01*
X132640605Y-101092000D01*
X133441213Y-101892608D01*
X133683397Y-101823143D01*
X133857787Y-101334331D01*
X133857758Y-101368661D01*
X134069990Y-101882303D01*
X134462630Y-102275629D01*
X134493000Y-102288239D01*
X134493000Y-102637025D01*
X134137100Y-102489243D01*
X133581339Y-102488758D01*
X133261608Y-102620867D01*
X133261608Y-102072213D01*
X132461000Y-101271605D01*
X132281395Y-101451210D01*
X132281395Y-101092000D01*
X131480787Y-100291392D01*
X131238603Y-100360857D01*
X131051856Y-100884302D01*
X131079638Y-101439368D01*
X131238603Y-101823143D01*
X131480787Y-101892608D01*
X132281395Y-101092000D01*
X132281395Y-101451210D01*
X131660392Y-102072213D01*
X131729857Y-102314397D01*
X132253302Y-102501144D01*
X132808368Y-102473362D01*
X133192143Y-102314397D01*
X133261608Y-102072213D01*
X133261608Y-102620867D01*
X133067697Y-102700990D01*
X132674371Y-103093630D01*
X132461243Y-103606900D01*
X132460758Y-104162661D01*
X132672990Y-104676303D01*
X133065630Y-105069629D01*
X133578900Y-105282757D01*
X134134661Y-105283242D01*
X134648303Y-105071010D01*
X134693510Y-105025880D01*
X134716185Y-105059815D01*
X135478185Y-105821816D01*
X135626376Y-105920834D01*
X135725395Y-105986996D01*
X135725396Y-105986996D01*
X136017000Y-106045000D01*
X140716000Y-106045000D01*
X140716000Y-106044999D01*
X141007604Y-105986996D01*
X141007605Y-105986996D01*
X141254815Y-105821815D01*
X141805617Y-105271013D01*
X141833900Y-105282757D01*
X142389661Y-105283242D01*
X142903303Y-105071010D01*
X143296629Y-104678370D01*
X143509757Y-104165100D01*
X143510242Y-103609339D01*
X143497684Y-103578946D01*
X143921815Y-103154816D01*
X143921815Y-103154815D01*
X144086996Y-102907605D01*
X144144999Y-102616000D01*
X144145000Y-102616000D01*
X144145000Y-102489000D01*
X144271309Y-102489000D01*
X144504698Y-102392327D01*
X144683327Y-102213699D01*
X144780000Y-101980310D01*
X144780000Y-101727691D01*
X144780000Y-100203691D01*
X144683327Y-99970302D01*
X144504699Y-99791673D01*
X144271310Y-99695000D01*
X144018691Y-99695000D01*
X142748000Y-99695000D01*
X142748000Y-99502630D01*
X142905815Y-99344816D01*
X142905815Y-99344815D01*
X143070996Y-99097605D01*
X143128999Y-98806000D01*
X143129000Y-98806000D01*
X143129000Y-96359025D01*
X143205327Y-96282699D01*
X143302000Y-96049310D01*
X143302000Y-95796691D01*
X143302000Y-94196691D01*
X143205327Y-93963302D01*
X143156025Y-93914000D01*
X143530783Y-93914000D01*
X143612673Y-94111698D01*
X143791301Y-94290327D01*
X144024690Y-94387000D01*
X144277309Y-94387000D01*
X145027309Y-94387000D01*
X145260698Y-94290327D01*
X145439327Y-94111699D01*
X145536000Y-93878310D01*
X145536000Y-93625691D01*
X145536000Y-92425691D01*
X145443344Y-92202000D01*
X145536000Y-91978309D01*
X145536000Y-91537750D01*
X145536000Y-90966250D01*
X145536000Y-90525691D01*
X145439327Y-90292302D01*
X145260699Y-90113673D01*
X145027310Y-90017000D01*
X144811750Y-90017000D01*
X144653000Y-90175750D01*
X144653000Y-91125000D01*
X145377250Y-91125000D01*
X145536000Y-90966250D01*
X145536000Y-91537750D01*
X145377250Y-91379000D01*
X144653000Y-91379000D01*
X144653000Y-91399000D01*
X144399000Y-91399000D01*
X144399000Y-91379000D01*
X144399000Y-91125000D01*
X144399000Y-90175750D01*
X144240250Y-90017000D01*
X144024690Y-90017000D01*
X143791301Y-90113673D01*
X143612673Y-90292302D01*
X143516000Y-90525691D01*
X143516000Y-90966250D01*
X143674750Y-91125000D01*
X144399000Y-91125000D01*
X144399000Y-91379000D01*
X143674750Y-91379000D01*
X143516000Y-91537750D01*
X143516000Y-91978309D01*
X143608655Y-92201999D01*
X143530783Y-92390000D01*
X140655000Y-92390000D01*
X140363395Y-92448004D01*
X140116185Y-92613185D01*
X139288185Y-93441185D01*
X139123004Y-93688395D01*
X139112443Y-93741488D01*
X139112442Y-93741488D01*
X139001416Y-93695500D01*
X139001687Y-93385216D01*
X138837689Y-92988311D01*
X138534286Y-92684378D01*
X138137668Y-92519687D01*
X138049000Y-92519609D01*
X138049000Y-90682162D01*
X138130690Y-90716000D01*
X138383309Y-90716000D01*
X138983309Y-90716000D01*
X139191999Y-90629557D01*
X139400690Y-90716000D01*
X139653309Y-90716000D01*
X140253309Y-90716000D01*
X140461999Y-90629557D01*
X140670690Y-90716000D01*
X140923309Y-90716000D01*
X141523309Y-90716000D01*
X141731999Y-90629557D01*
X141940690Y-90716000D01*
X142193309Y-90716000D01*
X142793309Y-90716000D01*
X143026698Y-90619327D01*
X143205327Y-90440699D01*
X143302000Y-90207310D01*
X143302000Y-89954691D01*
X143302000Y-88788630D01*
X143794815Y-88295815D01*
X143959996Y-88048605D01*
X143959996Y-88048604D01*
X144018000Y-87757000D01*
X144018000Y-87699000D01*
X145082309Y-87699000D01*
X145315698Y-87602327D01*
X145494327Y-87423699D01*
X145591000Y-87190310D01*
X145591000Y-86937691D01*
X145591000Y-86614000D01*
X145796000Y-86614000D01*
X145796000Y-86613999D01*
X146120299Y-86549492D01*
X146184806Y-86536662D01*
X146184807Y-86536662D01*
X146514420Y-86316420D01*
X147276420Y-85554420D01*
X147276421Y-85554420D01*
X147496662Y-85224807D01*
X147496662Y-85224806D01*
X147509492Y-85160299D01*
X147573999Y-84836000D01*
X147574000Y-84836000D01*
X147574000Y-81788000D01*
X147509492Y-81463700D01*
X147496662Y-81399194D01*
X147496662Y-81399193D01*
X147276421Y-81069580D01*
X146926840Y-80720000D01*
X149460474Y-80720000D01*
X149414273Y-80739090D01*
X148813200Y-81339114D01*
X148487501Y-82123485D01*
X148486760Y-82972789D01*
X148811090Y-83757727D01*
X149411114Y-84358800D01*
X150195485Y-84684499D01*
X151044789Y-84685240D01*
X151829727Y-84360910D01*
X152430800Y-83760886D01*
X152452000Y-83709830D01*
X152452000Y-100949446D01*
X152301440Y-100862165D01*
X152121835Y-101041770D01*
X152121835Y-100682560D01*
X151912647Y-100321711D01*
X150975350Y-99944176D01*
X149964923Y-99954067D01*
X149077353Y-100321711D01*
X148868165Y-100682560D01*
X150495000Y-102309395D01*
X152121835Y-100682560D01*
X152121835Y-101041770D01*
X150674605Y-102489000D01*
X152301440Y-104115835D01*
X152452000Y-104028553D01*
X152452000Y-106224000D01*
X152452000Y-106224000D01*
G37*
X152452000Y-106224000D02*
X152121835Y-106224000D01*
X152121835Y-104295440D01*
X150495000Y-102668605D01*
X150315395Y-102848210D01*
X150315395Y-102489000D01*
X148688560Y-100862165D01*
X148327711Y-101071353D01*
X147950176Y-102008650D01*
X147960067Y-103019077D01*
X148327711Y-103906647D01*
X148688560Y-104115835D01*
X150315395Y-102489000D01*
X150315395Y-102848210D01*
X148868165Y-104295440D01*
X149077353Y-104656289D01*
X150014650Y-105033824D01*
X151025077Y-105023933D01*
X151912647Y-104656289D01*
X152121835Y-104295440D01*
X152121835Y-106224000D01*
X128020824Y-106224000D01*
X128020824Y-102969350D01*
X128010933Y-101958923D01*
X127643289Y-101071353D01*
X127282440Y-100862165D01*
X127102835Y-101041770D01*
X127102835Y-100682560D01*
X126893647Y-100321711D01*
X125956350Y-99944176D01*
X124945923Y-99954067D01*
X124058353Y-100321711D01*
X123849165Y-100682560D01*
X125476000Y-102309395D01*
X127102835Y-100682560D01*
X127102835Y-101041770D01*
X125655605Y-102489000D01*
X127282440Y-104115835D01*
X127643289Y-103906647D01*
X128020824Y-102969350D01*
X128020824Y-106224000D01*
X125544943Y-106224000D01*
X125544943Y-105028447D01*
X126006077Y-105023933D01*
X126893647Y-104656289D01*
X127102835Y-104295440D01*
X125476000Y-102668605D01*
X125461857Y-102682747D01*
X125282252Y-102503142D01*
X125296395Y-102489000D01*
X123669560Y-100862165D01*
X123392000Y-101023069D01*
X123392000Y-83711525D01*
X123411090Y-83757727D01*
X124011114Y-84358800D01*
X124795485Y-84684499D01*
X125644789Y-84685240D01*
X126429727Y-84360910D01*
X127030800Y-83760886D01*
X127356499Y-82976515D01*
X127357240Y-82127211D01*
X127032910Y-81342273D01*
X126432886Y-80741200D01*
X126381830Y-80720000D01*
X131457159Y-80720000D01*
X130853580Y-81323580D01*
X130633338Y-81653193D01*
X130631785Y-81661000D01*
X130582091Y-81661000D01*
X130348702Y-81757673D01*
X130170073Y-81936301D01*
X130073400Y-82169690D01*
X130073400Y-82422309D01*
X130073400Y-84454309D01*
X130170073Y-84687698D01*
X130348701Y-84866327D01*
X130442184Y-84905049D01*
X130432507Y-84953700D01*
X130368000Y-85278000D01*
X130368000Y-85756974D01*
X130245673Y-85879301D01*
X130149000Y-86112690D01*
X130149000Y-86365309D01*
X130149000Y-87115309D01*
X130245673Y-87348698D01*
X130368000Y-87471025D01*
X130368000Y-88458000D01*
X130432507Y-88782299D01*
X130445338Y-88846807D01*
X130665580Y-89176420D01*
X131488580Y-89999421D01*
X131568157Y-90052592D01*
X131445000Y-90175750D01*
X131445000Y-91125000D01*
X132169250Y-91125000D01*
X132328000Y-90966250D01*
X132328000Y-90525691D01*
X132231327Y-90292302D01*
X132231208Y-90292183D01*
X132550823Y-90228609D01*
X132638673Y-90440698D01*
X132817301Y-90619327D01*
X133050690Y-90716000D01*
X133303309Y-90716000D01*
X133903309Y-90716000D01*
X134112000Y-90629557D01*
X134320691Y-90716000D01*
X134461250Y-90716000D01*
X134620000Y-90557250D01*
X134620000Y-89408000D01*
X134600000Y-89408000D01*
X134600000Y-89154000D01*
X134620000Y-89154000D01*
X134620000Y-88004750D01*
X134519000Y-87903750D01*
X134519000Y-87115310D01*
X134519000Y-86899750D01*
X134360250Y-86741000D01*
X133411000Y-86741000D01*
X133411000Y-87465250D01*
X133569750Y-87624000D01*
X134010309Y-87624000D01*
X134243698Y-87527327D01*
X134422327Y-87348699D01*
X134519000Y-87115310D01*
X134519000Y-87903750D01*
X134461250Y-87846000D01*
X134320691Y-87846000D01*
X134112000Y-87932442D01*
X133903310Y-87846000D01*
X133650691Y-87846000D01*
X133050691Y-87846000D01*
X132817302Y-87942673D01*
X132638673Y-88121301D01*
X132593411Y-88230571D01*
X132400000Y-88037159D01*
X132400000Y-87558682D01*
X132557691Y-87624000D01*
X132998250Y-87624000D01*
X133157000Y-87465250D01*
X133157000Y-86741000D01*
X133137000Y-86741000D01*
X133137000Y-86487000D01*
X133157000Y-86487000D01*
X133157000Y-86467000D01*
X133411000Y-86467000D01*
X133411000Y-86487000D01*
X134360250Y-86487000D01*
X134487250Y-86360000D01*
X134519000Y-86360000D01*
X135333000Y-86360000D01*
X135333000Y-87190309D01*
X135429673Y-87423698D01*
X135608301Y-87602327D01*
X135841690Y-87699000D01*
X136094309Y-87699000D01*
X136944986Y-87699000D01*
X136944987Y-87699000D01*
X136964004Y-87794605D01*
X136998345Y-87846000D01*
X136860691Y-87846000D01*
X136652000Y-87932442D01*
X136443310Y-87846000D01*
X136190691Y-87846000D01*
X135590691Y-87846000D01*
X135382000Y-87932442D01*
X135173309Y-87846000D01*
X135032750Y-87846000D01*
X134874000Y-88004750D01*
X134874000Y-89154000D01*
X134894000Y-89154000D01*
X134894000Y-89408000D01*
X134874000Y-89408000D01*
X134874000Y-90557250D01*
X135032750Y-90716000D01*
X135173309Y-90716000D01*
X135255000Y-90682162D01*
X135255000Y-92964000D01*
X135313004Y-93255605D01*
X135478185Y-93502815D01*
X135572500Y-93597130D01*
X135572415Y-93695570D01*
X135461557Y-93741489D01*
X135450996Y-93688396D01*
X135450996Y-93688395D01*
X135285815Y-93441185D01*
X134457815Y-92613185D01*
X134210605Y-92448004D01*
X133919000Y-92390000D01*
X132313216Y-92390000D01*
X132235344Y-92202000D01*
X132328000Y-91978309D01*
X132328000Y-91537750D01*
X132169250Y-91379000D01*
X131445000Y-91379000D01*
X131445000Y-91399000D01*
X131191000Y-91399000D01*
X131191000Y-91379000D01*
X131191000Y-91125000D01*
X131191000Y-90175750D01*
X131032250Y-90017000D01*
X130816690Y-90017000D01*
X130583301Y-90113673D01*
X130404673Y-90292302D01*
X130308000Y-90525691D01*
X130308000Y-90966250D01*
X130466750Y-91125000D01*
X131191000Y-91125000D01*
X131191000Y-91379000D01*
X130466750Y-91379000D01*
X130308000Y-91537750D01*
X130308000Y-91978309D01*
X130400655Y-92201999D01*
X130308000Y-92425690D01*
X130308000Y-92678309D01*
X130308000Y-93878309D01*
X130404673Y-94111698D01*
X130583301Y-94290327D01*
X130816690Y-94387000D01*
X131069309Y-94387000D01*
X131819309Y-94387000D01*
X132052698Y-94290327D01*
X132231327Y-94111699D01*
X132313216Y-93914000D01*
X132687974Y-93914000D01*
X132638673Y-93963301D01*
X132542000Y-94196690D01*
X132542000Y-94449309D01*
X132542000Y-95885000D01*
X131826000Y-95885000D01*
X131534395Y-95943004D01*
X131287184Y-96108185D01*
X130845185Y-96550185D01*
X130691627Y-96780000D01*
X130657691Y-96780000D01*
X130424302Y-96876673D01*
X130245673Y-97055301D01*
X130149000Y-97288690D01*
X130149000Y-97541309D01*
X130149000Y-98291309D01*
X130245673Y-98524698D01*
X130424301Y-98703327D01*
X130657690Y-98800000D01*
X130910309Y-98800000D01*
X132110309Y-98800000D01*
X132333999Y-98707344D01*
X132557690Y-98800000D01*
X132810309Y-98800000D01*
X134010309Y-98800000D01*
X134243698Y-98703327D01*
X134422327Y-98524699D01*
X134519000Y-98291310D01*
X134519000Y-98038691D01*
X134519000Y-97409000D01*
X135229000Y-97409000D01*
X135229000Y-97541309D01*
X135229000Y-98291309D01*
X135325673Y-98524698D01*
X135504301Y-98703327D01*
X135737690Y-98800000D01*
X135990309Y-98800000D01*
X137190309Y-98800000D01*
X137413999Y-98707344D01*
X137637690Y-98800000D01*
X137890309Y-98800000D01*
X139090309Y-98800000D01*
X139323698Y-98703327D01*
X139502327Y-98524699D01*
X139599000Y-98291310D01*
X139599000Y-98038691D01*
X139599000Y-97288691D01*
X139502327Y-97055302D01*
X139323699Y-96876673D01*
X139319000Y-96874726D01*
X139319000Y-96524162D01*
X139400690Y-96558000D01*
X139653309Y-96558000D01*
X140253309Y-96558000D01*
X140335000Y-96524162D01*
X140335000Y-98363369D01*
X140177185Y-98521185D01*
X140012004Y-98768395D01*
X139954000Y-99060000D01*
X139954000Y-99895295D01*
X139925697Y-99906990D01*
X139532371Y-100299630D01*
X139319243Y-100812900D01*
X139319240Y-100815336D01*
X139107010Y-100301697D01*
X138714370Y-99908371D01*
X138201100Y-99695243D01*
X137645339Y-99694758D01*
X137131697Y-99906990D01*
X136738371Y-100299630D01*
X136588394Y-100660814D01*
X136440010Y-100301697D01*
X136047370Y-99908371D01*
X135534100Y-99695243D01*
X134978339Y-99694758D01*
X134464697Y-99906990D01*
X134071371Y-100299630D01*
X133858243Y-100812900D01*
X133858029Y-101057656D01*
X133842362Y-100744632D01*
X133683397Y-100360857D01*
X133441213Y-100291392D01*
X133261608Y-100470997D01*
X133261608Y-100111787D01*
X133192143Y-99869603D01*
X132668698Y-99682856D01*
X132113632Y-99710638D01*
X131729857Y-99869603D01*
X131660392Y-100111787D01*
X132461000Y-100912395D01*
X133261608Y-100111787D01*
X133261608Y-100470997D01*
X132640605Y-101092000D01*
X133441213Y-101892608D01*
X133683397Y-101823143D01*
X133857787Y-101334331D01*
X133857758Y-101368661D01*
X134069990Y-101882303D01*
X134462630Y-102275629D01*
X134493000Y-102288239D01*
X134493000Y-102637025D01*
X134137100Y-102489243D01*
X133581339Y-102488758D01*
X133261608Y-102620867D01*
X133261608Y-102072213D01*
X132461000Y-101271605D01*
X132281395Y-101451210D01*
X132281395Y-101092000D01*
X131480787Y-100291392D01*
X131238603Y-100360857D01*
X131051856Y-100884302D01*
X131079638Y-101439368D01*
X131238603Y-101823143D01*
X131480787Y-101892608D01*
X132281395Y-101092000D01*
X132281395Y-101451210D01*
X131660392Y-102072213D01*
X131729857Y-102314397D01*
X132253302Y-102501144D01*
X132808368Y-102473362D01*
X133192143Y-102314397D01*
X133261608Y-102072213D01*
X133261608Y-102620867D01*
X133067697Y-102700990D01*
X132674371Y-103093630D01*
X132461243Y-103606900D01*
X132460758Y-104162661D01*
X132672990Y-104676303D01*
X133065630Y-105069629D01*
X133578900Y-105282757D01*
X134134661Y-105283242D01*
X134648303Y-105071010D01*
X134693510Y-105025880D01*
X134716185Y-105059815D01*
X135478185Y-105821816D01*
X135626376Y-105920834D01*
X135725395Y-105986996D01*
X135725396Y-105986996D01*
X136017000Y-106045000D01*
X140716000Y-106045000D01*
X140716000Y-106044999D01*
X141007604Y-105986996D01*
X141007605Y-105986996D01*
X141254815Y-105821815D01*
X141805617Y-105271013D01*
X141833900Y-105282757D01*
X142389661Y-105283242D01*
X142903303Y-105071010D01*
X143296629Y-104678370D01*
X143509757Y-104165100D01*
X143510242Y-103609339D01*
X143497684Y-103578946D01*
X143921815Y-103154816D01*
X143921815Y-103154815D01*
X144086996Y-102907605D01*
X144144999Y-102616000D01*
X144145000Y-102616000D01*
X144145000Y-102489000D01*
X144271309Y-102489000D01*
X144504698Y-102392327D01*
X144683327Y-102213699D01*
X144780000Y-101980310D01*
X144780000Y-101727691D01*
X144780000Y-100203691D01*
X144683327Y-99970302D01*
X144504699Y-99791673D01*
X144271310Y-99695000D01*
X144018691Y-99695000D01*
X142748000Y-99695000D01*
X142748000Y-99502630D01*
X142905815Y-99344816D01*
X142905815Y-99344815D01*
X143070996Y-99097605D01*
X143128999Y-98806000D01*
X143129000Y-98806000D01*
X143129000Y-96359025D01*
X143205327Y-96282699D01*
X143302000Y-96049310D01*
X143302000Y-95796691D01*
X143302000Y-94196691D01*
X143205327Y-93963302D01*
X143156025Y-93914000D01*
X143530783Y-93914000D01*
X143612673Y-94111698D01*
X143791301Y-94290327D01*
X144024690Y-94387000D01*
X144277309Y-94387000D01*
X145027309Y-94387000D01*
X145260698Y-94290327D01*
X145439327Y-94111699D01*
X145536000Y-93878310D01*
X145536000Y-93625691D01*
X145536000Y-92425691D01*
X145443344Y-92202000D01*
X145536000Y-91978309D01*
X145536000Y-91537750D01*
X145536000Y-90966250D01*
X145536000Y-90525691D01*
X145439327Y-90292302D01*
X145260699Y-90113673D01*
X145027310Y-90017000D01*
X144811750Y-90017000D01*
X144653000Y-90175750D01*
X144653000Y-91125000D01*
X145377250Y-91125000D01*
X145536000Y-90966250D01*
X145536000Y-91537750D01*
X145377250Y-91379000D01*
X144653000Y-91379000D01*
X144653000Y-91399000D01*
X144399000Y-91399000D01*
X144399000Y-91379000D01*
X144399000Y-91125000D01*
X144399000Y-90175750D01*
X144240250Y-90017000D01*
X144024690Y-90017000D01*
X143791301Y-90113673D01*
X143612673Y-90292302D01*
X143516000Y-90525691D01*
X143516000Y-90966250D01*
X143674750Y-91125000D01*
X144399000Y-91125000D01*
X144399000Y-91379000D01*
X143674750Y-91379000D01*
X143516000Y-91537750D01*
X143516000Y-91978309D01*
X143608655Y-92201999D01*
X143530783Y-92390000D01*
X140655000Y-92390000D01*
X140363395Y-92448004D01*
X140116185Y-92613185D01*
X139288185Y-93441185D01*
X139123004Y-93688395D01*
X139112443Y-93741488D01*
X139112442Y-93741488D01*
X139001416Y-93695500D01*
X139001687Y-93385216D01*
X138837689Y-92988311D01*
X138534286Y-92684378D01*
X138137668Y-92519687D01*
X138049000Y-92519609D01*
X138049000Y-90682162D01*
X138130690Y-90716000D01*
X138383309Y-90716000D01*
X138983309Y-90716000D01*
X139191999Y-90629557D01*
X139400690Y-90716000D01*
X139653309Y-90716000D01*
X140253309Y-90716000D01*
X140461999Y-90629557D01*
X140670690Y-90716000D01*
X140923309Y-90716000D01*
X141523309Y-90716000D01*
X141731999Y-90629557D01*
X141940690Y-90716000D01*
X142193309Y-90716000D01*
X142793309Y-90716000D01*
X143026698Y-90619327D01*
X143205327Y-90440699D01*
X143302000Y-90207310D01*
X143302000Y-89954691D01*
X143302000Y-88788630D01*
X143794815Y-88295815D01*
X143959996Y-88048605D01*
X143959996Y-88048604D01*
X144018000Y-87757000D01*
X144018000Y-87699000D01*
X145082309Y-87699000D01*
X145315698Y-87602327D01*
X145494327Y-87423699D01*
X145591000Y-87190310D01*
X145591000Y-86937691D01*
X145591000Y-86614000D01*
X145796000Y-86614000D01*
X145796000Y-86613999D01*
X146120299Y-86549492D01*
X146184806Y-86536662D01*
X146184807Y-86536662D01*
X146514420Y-86316420D01*
X147276420Y-85554420D01*
X147276421Y-85554420D01*
X147496662Y-85224807D01*
X147496662Y-85224806D01*
X147509492Y-85160299D01*
X147573999Y-84836000D01*
X147574000Y-84836000D01*
X147574000Y-81788000D01*
X147509492Y-81463700D01*
X147496662Y-81399194D01*
X147496662Y-81399193D01*
X147276421Y-81069580D01*
X146926840Y-80720000D01*
X149460474Y-80720000D01*
X149414273Y-80739090D01*
X148813200Y-81339114D01*
X148487501Y-82123485D01*
X148486760Y-82972789D01*
X148811090Y-83757727D01*
X149411114Y-84358800D01*
X150195485Y-84684499D01*
X151044789Y-84685240D01*
X151829727Y-84360910D01*
X152430800Y-83760886D01*
X152452000Y-83709830D01*
X152452000Y-100949446D01*
X152301440Y-100862165D01*
X152121835Y-101041770D01*
X152121835Y-100682560D01*
X151912647Y-100321711D01*
X150975350Y-99944176D01*
X149964923Y-99954067D01*
X149077353Y-100321711D01*
X148868165Y-100682560D01*
X150495000Y-102309395D01*
X152121835Y-100682560D01*
X152121835Y-101041770D01*
X150674605Y-102489000D01*
X152301440Y-104115835D01*
X152452000Y-104028553D01*
X152452000Y-106224000D01*
M02*
