G04 #@! TF.FileFunction,Copper,L2,Bot,Signal*
%FSLAX46Y46*%
G04 Gerber Fmt 4.6, Leading zero omitted, Abs format (unit mm)*
G04 Created by KiCad (PCBNEW (2014-11-24 BZR 5301)-product) date Sat Mar 28 18:02:59 2015*
%MOMM*%
G01*
G04 APERTURE LIST*
%ADD10C,0.100000*%
%ADD11C,0.889000*%
%ADD12R,1.727200X2.032000*%
%ADD13O,1.727200X2.032000*%
%ADD14C,3.810000*%
%ADD15R,1.524000X1.524000*%
%ADD16C,1.524000*%
%ADD17C,0.254000*%
G04 APERTURE END LIST*
D10*
D11*
X140462000Y-86614000D03*
X146050000Y-100330000D03*
X128270000Y-105410000D03*
X147320000Y-105410000D03*
X144145000Y-105410000D03*
X146050000Y-103505000D03*
X151130000Y-92710000D03*
X146050000Y-95250000D03*
X149860000Y-93980000D03*
X146050000Y-97790000D03*
X144780000Y-96520000D03*
X148590000Y-92710000D03*
X149860000Y-91440000D03*
X148590000Y-88900000D03*
X149860000Y-87630000D03*
X147320000Y-87630000D03*
X148590000Y-86360000D03*
X130175000Y-104140000D03*
X127000000Y-99060000D03*
X127000000Y-93980000D03*
X128270000Y-92710000D03*
X127000000Y-91440000D03*
X125730000Y-92710000D03*
X127000000Y-87630000D03*
X125730000Y-88900000D03*
X125730000Y-86360000D03*
X124460000Y-87630000D03*
X134874000Y-99060000D03*
X127000000Y-96520000D03*
X134620000Y-91948000D03*
X141478000Y-91694000D03*
X139192000Y-91440000D03*
X147320000Y-96520000D03*
X125730000Y-97790000D03*
X128270000Y-97790000D03*
X132080000Y-105410000D03*
D12*
X131572000Y-83312000D03*
D13*
X134112000Y-83312000D03*
X136652000Y-83312000D03*
X139192000Y-83312000D03*
X141732000Y-83312000D03*
X144272000Y-83312000D03*
D14*
X125476000Y-102489000D03*
X150495000Y-102489000D03*
D15*
X143383000Y-101092000D03*
D16*
X140716000Y-101092000D03*
X137922000Y-101092000D03*
X135255000Y-101092000D03*
X132461000Y-101092000D03*
X142113000Y-103886000D03*
X139319000Y-103886000D03*
X136652000Y-103886000D03*
X133858000Y-103886000D03*
D11*
X134747000Y-87757000D03*
X143256000Y-91186000D03*
X132588000Y-91186000D03*
X133223000Y-87757000D03*
X137922000Y-93599000D03*
X136652000Y-93599000D03*
D17*
X139319000Y-99187000D02*
X139319000Y-103886000D01*
X137922000Y-97790000D02*
X139319000Y-99187000D01*
X137922000Y-93599000D02*
X137922000Y-97790000D01*
X136652000Y-103886000D02*
X136652000Y-93599000D01*
G36*
X152452000Y-106224000D02*
X152121835Y-106224000D01*
X152121835Y-104295440D01*
X150495000Y-102668605D01*
X150315395Y-102848210D01*
X150315395Y-102489000D01*
X148688560Y-100862165D01*
X148327711Y-101071353D01*
X147950176Y-102008650D01*
X147960067Y-103019077D01*
X148327711Y-103906647D01*
X148688560Y-104115835D01*
X150315395Y-102489000D01*
X150315395Y-102848210D01*
X148868165Y-104295440D01*
X149077353Y-104656289D01*
X150014650Y-105033824D01*
X151025077Y-105023933D01*
X151912647Y-104656289D01*
X152121835Y-104295440D01*
X152121835Y-106224000D01*
X145770600Y-106224000D01*
X145770600Y-83496745D01*
X145770600Y-83127255D01*
X145656526Y-82553766D01*
X145331670Y-82067585D01*
X144845489Y-81742729D01*
X144272000Y-81628655D01*
X143698511Y-81742729D01*
X143212330Y-82067585D01*
X143002000Y-82382365D01*
X142791670Y-82067585D01*
X142305489Y-81742729D01*
X141732000Y-81628655D01*
X141158511Y-81742729D01*
X140672330Y-82067585D01*
X140462000Y-82382365D01*
X140251670Y-82067585D01*
X139765489Y-81742729D01*
X139192000Y-81628655D01*
X138618511Y-81742729D01*
X138132330Y-82067585D01*
X137922000Y-82382365D01*
X137711670Y-82067585D01*
X137225489Y-81742729D01*
X136652000Y-81628655D01*
X136078511Y-81742729D01*
X135592330Y-82067585D01*
X135385539Y-82377069D01*
X135014036Y-81961268D01*
X134486791Y-81707291D01*
X134471026Y-81704642D01*
X134239000Y-81825783D01*
X134239000Y-83185000D01*
X134259000Y-83185000D01*
X134259000Y-83439000D01*
X134239000Y-83439000D01*
X134239000Y-84798217D01*
X134471026Y-84919358D01*
X134486791Y-84916709D01*
X135014036Y-84662732D01*
X135385539Y-84246930D01*
X135592330Y-84556415D01*
X136078511Y-84881271D01*
X136652000Y-84995345D01*
X137225489Y-84881271D01*
X137711670Y-84556415D01*
X137922000Y-84241634D01*
X138132330Y-84556415D01*
X138618511Y-84881271D01*
X139192000Y-84995345D01*
X139765489Y-84881271D01*
X140251670Y-84556415D01*
X140462000Y-84241634D01*
X140672330Y-84556415D01*
X141158511Y-84881271D01*
X141732000Y-84995345D01*
X142305489Y-84881271D01*
X142791670Y-84556415D01*
X143002000Y-84241634D01*
X143212330Y-84556415D01*
X143698511Y-84881271D01*
X144272000Y-84995345D01*
X144845489Y-84881271D01*
X145331670Y-84556415D01*
X145656526Y-84070234D01*
X145770600Y-83496745D01*
X145770600Y-106224000D01*
X144780000Y-106224000D01*
X144780000Y-101980310D01*
X144780000Y-101727691D01*
X144780000Y-100203691D01*
X144683327Y-99970302D01*
X144504699Y-99791673D01*
X144271310Y-99695000D01*
X144018691Y-99695000D01*
X142494691Y-99695000D01*
X142261302Y-99791673D01*
X142082673Y-99970301D01*
X141986000Y-100203690D01*
X141986000Y-100456309D01*
X141986000Y-100507389D01*
X141901010Y-100301697D01*
X141508370Y-99908371D01*
X140995100Y-99695243D01*
X140439339Y-99694758D01*
X140081000Y-99842820D01*
X140081000Y-99187000D01*
X140022996Y-98895395D01*
X139857815Y-98648185D01*
X139857815Y-98648184D01*
X138684000Y-97474369D01*
X138684000Y-94363641D01*
X138836622Y-94211286D01*
X139001313Y-93814668D01*
X139001687Y-93385216D01*
X138837689Y-92988311D01*
X138534286Y-92684378D01*
X138137668Y-92519687D01*
X137708216Y-92519313D01*
X137311311Y-92683311D01*
X137287223Y-92707356D01*
X137264286Y-92684378D01*
X136867668Y-92519687D01*
X136438216Y-92519313D01*
X136041311Y-92683311D01*
X135737378Y-92986714D01*
X135572687Y-93383332D01*
X135572313Y-93812784D01*
X135736311Y-94209689D01*
X135890000Y-94363646D01*
X135890000Y-99843025D01*
X135534100Y-99695243D01*
X134978339Y-99694758D01*
X134464697Y-99906990D01*
X134071371Y-100299630D01*
X133985000Y-100507634D01*
X133985000Y-84798217D01*
X133985000Y-83439000D01*
X133965000Y-83439000D01*
X133965000Y-83185000D01*
X133985000Y-83185000D01*
X133985000Y-81825783D01*
X133752974Y-81704642D01*
X133737209Y-81707291D01*
X133209964Y-81961268D01*
X133055758Y-82133860D01*
X132973927Y-81936302D01*
X132795299Y-81757673D01*
X132561910Y-81661000D01*
X132309291Y-81661000D01*
X130582091Y-81661000D01*
X130348702Y-81757673D01*
X130170073Y-81936301D01*
X130073400Y-82169690D01*
X130073400Y-82422309D01*
X130073400Y-84454309D01*
X130170073Y-84687698D01*
X130348701Y-84866327D01*
X130582090Y-84963000D01*
X130834709Y-84963000D01*
X132561909Y-84963000D01*
X132795298Y-84866327D01*
X132973927Y-84687699D01*
X133055758Y-84490139D01*
X133209964Y-84662732D01*
X133737209Y-84916709D01*
X133752974Y-84919358D01*
X133985000Y-84798217D01*
X133985000Y-100507634D01*
X133858243Y-100812900D01*
X133858029Y-101057656D01*
X133842362Y-100744632D01*
X133683397Y-100360857D01*
X133441213Y-100291392D01*
X133261608Y-100470997D01*
X133261608Y-100111787D01*
X133192143Y-99869603D01*
X132668698Y-99682856D01*
X132113632Y-99710638D01*
X131729857Y-99869603D01*
X131660392Y-100111787D01*
X132461000Y-100912395D01*
X133261608Y-100111787D01*
X133261608Y-100470997D01*
X132640605Y-101092000D01*
X133441213Y-101892608D01*
X133683397Y-101823143D01*
X133857787Y-101334331D01*
X133857758Y-101368661D01*
X134069990Y-101882303D01*
X134462630Y-102275629D01*
X134975900Y-102488757D01*
X135531661Y-102489242D01*
X135890000Y-102341179D01*
X135890000Y-102689295D01*
X135861697Y-102700990D01*
X135468371Y-103093630D01*
X135255243Y-103606900D01*
X135255240Y-103609336D01*
X135043010Y-103095697D01*
X134650370Y-102702371D01*
X134137100Y-102489243D01*
X133581339Y-102488758D01*
X133261608Y-102620867D01*
X133261608Y-102072213D01*
X132461000Y-101271605D01*
X132281395Y-101451210D01*
X132281395Y-101092000D01*
X131480787Y-100291392D01*
X131238603Y-100360857D01*
X131051856Y-100884302D01*
X131079638Y-101439368D01*
X131238603Y-101823143D01*
X131480787Y-101892608D01*
X132281395Y-101092000D01*
X132281395Y-101451210D01*
X131660392Y-102072213D01*
X131729857Y-102314397D01*
X132253302Y-102501144D01*
X132808368Y-102473362D01*
X133192143Y-102314397D01*
X133261608Y-102072213D01*
X133261608Y-102620867D01*
X133067697Y-102700990D01*
X132674371Y-103093630D01*
X132461243Y-103606900D01*
X132460758Y-104162661D01*
X132672990Y-104676303D01*
X133065630Y-105069629D01*
X133578900Y-105282757D01*
X134134661Y-105283242D01*
X134648303Y-105071010D01*
X135041629Y-104678370D01*
X135254757Y-104165100D01*
X135254759Y-104162663D01*
X135466990Y-104676303D01*
X135859630Y-105069629D01*
X136372900Y-105282757D01*
X136928661Y-105283242D01*
X137442303Y-105071010D01*
X137835629Y-104678370D01*
X137985605Y-104317185D01*
X138133990Y-104676303D01*
X138526630Y-105069629D01*
X139039900Y-105282757D01*
X139595661Y-105283242D01*
X140109303Y-105071010D01*
X140502629Y-104678370D01*
X140715757Y-104165100D01*
X140715759Y-104162663D01*
X140927990Y-104676303D01*
X141320630Y-105069629D01*
X141833900Y-105282757D01*
X142389661Y-105283242D01*
X142903303Y-105071010D01*
X143296629Y-104678370D01*
X143509757Y-104165100D01*
X143510242Y-103609339D01*
X143298010Y-103095697D01*
X142905370Y-102702371D01*
X142392100Y-102489243D01*
X141836339Y-102488758D01*
X141322697Y-102700990D01*
X140929371Y-103093630D01*
X140716243Y-103606900D01*
X140716240Y-103609336D01*
X140504010Y-103095697D01*
X140111370Y-102702371D01*
X140081000Y-102689760D01*
X140081000Y-102340974D01*
X140436900Y-102488757D01*
X140992661Y-102489242D01*
X141506303Y-102277010D01*
X141899629Y-101884370D01*
X141986000Y-101676365D01*
X141986000Y-101980309D01*
X142082673Y-102213698D01*
X142261301Y-102392327D01*
X142494690Y-102489000D01*
X142747309Y-102489000D01*
X144271309Y-102489000D01*
X144504698Y-102392327D01*
X144683327Y-102213699D01*
X144780000Y-101980310D01*
X144780000Y-106224000D01*
X128020824Y-106224000D01*
X128020824Y-102969350D01*
X128010933Y-101958923D01*
X127643289Y-101071353D01*
X127282440Y-100862165D01*
X127102835Y-101041770D01*
X127102835Y-100682560D01*
X126893647Y-100321711D01*
X125956350Y-99944176D01*
X124945923Y-99954067D01*
X124058353Y-100321711D01*
X123849165Y-100682560D01*
X125476000Y-102309395D01*
X127102835Y-100682560D01*
X127102835Y-101041770D01*
X125655605Y-102489000D01*
X127282440Y-104115835D01*
X127643289Y-103906647D01*
X128020824Y-102969350D01*
X128020824Y-106224000D01*
X127102835Y-106224000D01*
X127102835Y-104295440D01*
X125476000Y-102668605D01*
X123849165Y-104295440D01*
X124058353Y-104656289D01*
X124995650Y-105033824D01*
X126006077Y-105023933D01*
X126893647Y-104656289D01*
X127102835Y-104295440D01*
X127102835Y-106224000D01*
X123392000Y-106224000D01*
X123392000Y-103954930D01*
X123669560Y-104115835D01*
X125296395Y-102489000D01*
X123669560Y-100862165D01*
X123392000Y-101023069D01*
X123392000Y-83711525D01*
X123411090Y-83757727D01*
X124011114Y-84358800D01*
X124795485Y-84684499D01*
X125644789Y-84685240D01*
X126429727Y-84360910D01*
X127030800Y-83760886D01*
X127356499Y-82976515D01*
X127357240Y-82127211D01*
X127032910Y-81342273D01*
X126432886Y-80741200D01*
X126381830Y-80720000D01*
X149460474Y-80720000D01*
X149414273Y-80739090D01*
X148813200Y-81339114D01*
X148487501Y-82123485D01*
X148486760Y-82972789D01*
X148811090Y-83757727D01*
X149411114Y-84358800D01*
X150195485Y-84684499D01*
X151044789Y-84685240D01*
X151829727Y-84360910D01*
X152430800Y-83760886D01*
X152452000Y-83709830D01*
X152452000Y-100949446D01*
X152301440Y-100862165D01*
X152121835Y-101041770D01*
X152121835Y-100682560D01*
X151912647Y-100321711D01*
X150975350Y-99944176D01*
X149964923Y-99954067D01*
X149077353Y-100321711D01*
X148868165Y-100682560D01*
X150495000Y-102309395D01*
X152121835Y-100682560D01*
X152121835Y-101041770D01*
X150674605Y-102489000D01*
X152301440Y-104115835D01*
X152452000Y-104028553D01*
X152452000Y-106224000D01*
X152452000Y-106224000D01*
G37*
X152452000Y-106224000D02*
X152121835Y-106224000D01*
X152121835Y-104295440D01*
X150495000Y-102668605D01*
X150315395Y-102848210D01*
X150315395Y-102489000D01*
X148688560Y-100862165D01*
X148327711Y-101071353D01*
X147950176Y-102008650D01*
X147960067Y-103019077D01*
X148327711Y-103906647D01*
X148688560Y-104115835D01*
X150315395Y-102489000D01*
X150315395Y-102848210D01*
X148868165Y-104295440D01*
X149077353Y-104656289D01*
X150014650Y-105033824D01*
X151025077Y-105023933D01*
X151912647Y-104656289D01*
X152121835Y-104295440D01*
X152121835Y-106224000D01*
X145770600Y-106224000D01*
X145770600Y-83496745D01*
X145770600Y-83127255D01*
X145656526Y-82553766D01*
X145331670Y-82067585D01*
X144845489Y-81742729D01*
X144272000Y-81628655D01*
X143698511Y-81742729D01*
X143212330Y-82067585D01*
X143002000Y-82382365D01*
X142791670Y-82067585D01*
X142305489Y-81742729D01*
X141732000Y-81628655D01*
X141158511Y-81742729D01*
X140672330Y-82067585D01*
X140462000Y-82382365D01*
X140251670Y-82067585D01*
X139765489Y-81742729D01*
X139192000Y-81628655D01*
X138618511Y-81742729D01*
X138132330Y-82067585D01*
X137922000Y-82382365D01*
X137711670Y-82067585D01*
X137225489Y-81742729D01*
X136652000Y-81628655D01*
X136078511Y-81742729D01*
X135592330Y-82067585D01*
X135385539Y-82377069D01*
X135014036Y-81961268D01*
X134486791Y-81707291D01*
X134471026Y-81704642D01*
X134239000Y-81825783D01*
X134239000Y-83185000D01*
X134259000Y-83185000D01*
X134259000Y-83439000D01*
X134239000Y-83439000D01*
X134239000Y-84798217D01*
X134471026Y-84919358D01*
X134486791Y-84916709D01*
X135014036Y-84662732D01*
X135385539Y-84246930D01*
X135592330Y-84556415D01*
X136078511Y-84881271D01*
X136652000Y-84995345D01*
X137225489Y-84881271D01*
X137711670Y-84556415D01*
X137922000Y-84241634D01*
X138132330Y-84556415D01*
X138618511Y-84881271D01*
X139192000Y-84995345D01*
X139765489Y-84881271D01*
X140251670Y-84556415D01*
X140462000Y-84241634D01*
X140672330Y-84556415D01*
X141158511Y-84881271D01*
X141732000Y-84995345D01*
X142305489Y-84881271D01*
X142791670Y-84556415D01*
X143002000Y-84241634D01*
X143212330Y-84556415D01*
X143698511Y-84881271D01*
X144272000Y-84995345D01*
X144845489Y-84881271D01*
X145331670Y-84556415D01*
X145656526Y-84070234D01*
X145770600Y-83496745D01*
X145770600Y-106224000D01*
X144780000Y-106224000D01*
X144780000Y-101980310D01*
X144780000Y-101727691D01*
X144780000Y-100203691D01*
X144683327Y-99970302D01*
X144504699Y-99791673D01*
X144271310Y-99695000D01*
X144018691Y-99695000D01*
X142494691Y-99695000D01*
X142261302Y-99791673D01*
X142082673Y-99970301D01*
X141986000Y-100203690D01*
X141986000Y-100456309D01*
X141986000Y-100507389D01*
X141901010Y-100301697D01*
X141508370Y-99908371D01*
X140995100Y-99695243D01*
X140439339Y-99694758D01*
X140081000Y-99842820D01*
X140081000Y-99187000D01*
X140022996Y-98895395D01*
X139857815Y-98648185D01*
X139857815Y-98648184D01*
X138684000Y-97474369D01*
X138684000Y-94363641D01*
X138836622Y-94211286D01*
X139001313Y-93814668D01*
X139001687Y-93385216D01*
X138837689Y-92988311D01*
X138534286Y-92684378D01*
X138137668Y-92519687D01*
X137708216Y-92519313D01*
X137311311Y-92683311D01*
X137287223Y-92707356D01*
X137264286Y-92684378D01*
X136867668Y-92519687D01*
X136438216Y-92519313D01*
X136041311Y-92683311D01*
X135737378Y-92986714D01*
X135572687Y-93383332D01*
X135572313Y-93812784D01*
X135736311Y-94209689D01*
X135890000Y-94363646D01*
X135890000Y-99843025D01*
X135534100Y-99695243D01*
X134978339Y-99694758D01*
X134464697Y-99906990D01*
X134071371Y-100299630D01*
X133985000Y-100507634D01*
X133985000Y-84798217D01*
X133985000Y-83439000D01*
X133965000Y-83439000D01*
X133965000Y-83185000D01*
X133985000Y-83185000D01*
X133985000Y-81825783D01*
X133752974Y-81704642D01*
X133737209Y-81707291D01*
X133209964Y-81961268D01*
X133055758Y-82133860D01*
X132973927Y-81936302D01*
X132795299Y-81757673D01*
X132561910Y-81661000D01*
X132309291Y-81661000D01*
X130582091Y-81661000D01*
X130348702Y-81757673D01*
X130170073Y-81936301D01*
X130073400Y-82169690D01*
X130073400Y-82422309D01*
X130073400Y-84454309D01*
X130170073Y-84687698D01*
X130348701Y-84866327D01*
X130582090Y-84963000D01*
X130834709Y-84963000D01*
X132561909Y-84963000D01*
X132795298Y-84866327D01*
X132973927Y-84687699D01*
X133055758Y-84490139D01*
X133209964Y-84662732D01*
X133737209Y-84916709D01*
X133752974Y-84919358D01*
X133985000Y-84798217D01*
X133985000Y-100507634D01*
X133858243Y-100812900D01*
X133858029Y-101057656D01*
X133842362Y-100744632D01*
X133683397Y-100360857D01*
X133441213Y-100291392D01*
X133261608Y-100470997D01*
X133261608Y-100111787D01*
X133192143Y-99869603D01*
X132668698Y-99682856D01*
X132113632Y-99710638D01*
X131729857Y-99869603D01*
X131660392Y-100111787D01*
X132461000Y-100912395D01*
X133261608Y-100111787D01*
X133261608Y-100470997D01*
X132640605Y-101092000D01*
X133441213Y-101892608D01*
X133683397Y-101823143D01*
X133857787Y-101334331D01*
X133857758Y-101368661D01*
X134069990Y-101882303D01*
X134462630Y-102275629D01*
X134975900Y-102488757D01*
X135531661Y-102489242D01*
X135890000Y-102341179D01*
X135890000Y-102689295D01*
X135861697Y-102700990D01*
X135468371Y-103093630D01*
X135255243Y-103606900D01*
X135255240Y-103609336D01*
X135043010Y-103095697D01*
X134650370Y-102702371D01*
X134137100Y-102489243D01*
X133581339Y-102488758D01*
X133261608Y-102620867D01*
X133261608Y-102072213D01*
X132461000Y-101271605D01*
X132281395Y-101451210D01*
X132281395Y-101092000D01*
X131480787Y-100291392D01*
X131238603Y-100360857D01*
X131051856Y-100884302D01*
X131079638Y-101439368D01*
X131238603Y-101823143D01*
X131480787Y-101892608D01*
X132281395Y-101092000D01*
X132281395Y-101451210D01*
X131660392Y-102072213D01*
X131729857Y-102314397D01*
X132253302Y-102501144D01*
X132808368Y-102473362D01*
X133192143Y-102314397D01*
X133261608Y-102072213D01*
X133261608Y-102620867D01*
X133067697Y-102700990D01*
X132674371Y-103093630D01*
X132461243Y-103606900D01*
X132460758Y-104162661D01*
X132672990Y-104676303D01*
X133065630Y-105069629D01*
X133578900Y-105282757D01*
X134134661Y-105283242D01*
X134648303Y-105071010D01*
X135041629Y-104678370D01*
X135254757Y-104165100D01*
X135254759Y-104162663D01*
X135466990Y-104676303D01*
X135859630Y-105069629D01*
X136372900Y-105282757D01*
X136928661Y-105283242D01*
X137442303Y-105071010D01*
X137835629Y-104678370D01*
X137985605Y-104317185D01*
X138133990Y-104676303D01*
X138526630Y-105069629D01*
X139039900Y-105282757D01*
X139595661Y-105283242D01*
X140109303Y-105071010D01*
X140502629Y-104678370D01*
X140715757Y-104165100D01*
X140715759Y-104162663D01*
X140927990Y-104676303D01*
X141320630Y-105069629D01*
X141833900Y-105282757D01*
X142389661Y-105283242D01*
X142903303Y-105071010D01*
X143296629Y-104678370D01*
X143509757Y-104165100D01*
X143510242Y-103609339D01*
X143298010Y-103095697D01*
X142905370Y-102702371D01*
X142392100Y-102489243D01*
X141836339Y-102488758D01*
X141322697Y-102700990D01*
X140929371Y-103093630D01*
X140716243Y-103606900D01*
X140716240Y-103609336D01*
X140504010Y-103095697D01*
X140111370Y-102702371D01*
X140081000Y-102689760D01*
X140081000Y-102340974D01*
X140436900Y-102488757D01*
X140992661Y-102489242D01*
X141506303Y-102277010D01*
X141899629Y-101884370D01*
X141986000Y-101676365D01*
X141986000Y-101980309D01*
X142082673Y-102213698D01*
X142261301Y-102392327D01*
X142494690Y-102489000D01*
X142747309Y-102489000D01*
X144271309Y-102489000D01*
X144504698Y-102392327D01*
X144683327Y-102213699D01*
X144780000Y-101980310D01*
X144780000Y-106224000D01*
X128020824Y-106224000D01*
X128020824Y-102969350D01*
X128010933Y-101958923D01*
X127643289Y-101071353D01*
X127282440Y-100862165D01*
X127102835Y-101041770D01*
X127102835Y-100682560D01*
X126893647Y-100321711D01*
X125956350Y-99944176D01*
X124945923Y-99954067D01*
X124058353Y-100321711D01*
X123849165Y-100682560D01*
X125476000Y-102309395D01*
X127102835Y-100682560D01*
X127102835Y-101041770D01*
X125655605Y-102489000D01*
X127282440Y-104115835D01*
X127643289Y-103906647D01*
X128020824Y-102969350D01*
X128020824Y-106224000D01*
X127102835Y-106224000D01*
X127102835Y-104295440D01*
X125476000Y-102668605D01*
X123849165Y-104295440D01*
X124058353Y-104656289D01*
X124995650Y-105033824D01*
X126006077Y-105023933D01*
X126893647Y-104656289D01*
X127102835Y-104295440D01*
X127102835Y-106224000D01*
X123392000Y-106224000D01*
X123392000Y-103954930D01*
X123669560Y-104115835D01*
X125296395Y-102489000D01*
X123669560Y-100862165D01*
X123392000Y-101023069D01*
X123392000Y-83711525D01*
X123411090Y-83757727D01*
X124011114Y-84358800D01*
X124795485Y-84684499D01*
X125644789Y-84685240D01*
X126429727Y-84360910D01*
X127030800Y-83760886D01*
X127356499Y-82976515D01*
X127357240Y-82127211D01*
X127032910Y-81342273D01*
X126432886Y-80741200D01*
X126381830Y-80720000D01*
X149460474Y-80720000D01*
X149414273Y-80739090D01*
X148813200Y-81339114D01*
X148487501Y-82123485D01*
X148486760Y-82972789D01*
X148811090Y-83757727D01*
X149411114Y-84358800D01*
X150195485Y-84684499D01*
X151044789Y-84685240D01*
X151829727Y-84360910D01*
X152430800Y-83760886D01*
X152452000Y-83709830D01*
X152452000Y-100949446D01*
X152301440Y-100862165D01*
X152121835Y-101041770D01*
X152121835Y-100682560D01*
X151912647Y-100321711D01*
X150975350Y-99944176D01*
X149964923Y-99954067D01*
X149077353Y-100321711D01*
X148868165Y-100682560D01*
X150495000Y-102309395D01*
X152121835Y-100682560D01*
X152121835Y-101041770D01*
X150674605Y-102489000D01*
X152301440Y-104115835D01*
X152452000Y-104028553D01*
X152452000Y-106224000D01*
M02*
