M48
INCH,TZ
T1C0.025
T2C0.040
T3C0.118
T4C0.120
%
G90
G05
T1
X049000Y-034500
X049500Y-034000
X049500Y-035000
X049500Y-036500
X049500Y-038500
X050000Y-034500
X050000Y-036000
X050000Y-037000
X050000Y-038000
X050000Y-039000
X050500Y-036500
X050500Y-038500
X050500Y-041500
X051250Y-041000
X052000Y-041500
X052200Y-035900
X052450Y-034550
X053000Y-036200
X053050Y-034550
X053100Y-039000
X053800Y-036850
X054300Y-036850
X054800Y-036000
X055300Y-034100
X055700Y-036100
X056400Y-035900
X056750Y-041500
X057000Y-038000
X057500Y-037500
X057500Y-038500
X057500Y-039500
X057500Y-040750
X058000Y-034500
X058000Y-038000
X058000Y-041500
X058500Y-034000
X058500Y-035000
X058500Y-036500
X059000Y-034500
X059000Y-036000
X059000Y-037000
X059500Y-036500
T2
X051800Y-032800
X052150Y-039800
X052700Y-040900
X052800Y-032800
X053250Y-039800
X053800Y-032800
X053800Y-040900
X054300Y-039800
X054800Y-032800
X054850Y-040900
X055400Y-039800
X055800Y-032800
X055950Y-040900
X056450Y-039800
X056800Y-032800
T3
X049300Y-032500
X059300Y-032500
T4
X049400Y-040350
X059250Y-040350
T0
M30
