G04 #@! TF.FileFunction,Legend,Bot*
%FSLAX46Y46*%
G04 Gerber Fmt 4.6, Leading zero omitted, Abs format (unit mm)*
G04 Created by KiCad (PCBNEW (2014-11-24 BZR 5301)-product) date Sat Mar 28 18:02:35 2015*
%MOMM*%
G01*
G04 APERTURE LIST*
%ADD10C,0.100000*%
%ADD11C,0.254000*%
G04 APERTURE END LIST*
D10*
D11*
X144858619Y-86106000D02*
X144374810Y-85598000D01*
X144858619Y-85235143D02*
X143842619Y-85235143D01*
X143842619Y-85815715D01*
X143891000Y-85960857D01*
X143939381Y-86033429D01*
X144036143Y-86106000D01*
X144181286Y-86106000D01*
X144278048Y-86033429D01*
X144326429Y-85960857D01*
X144374810Y-85815715D01*
X144374810Y-85235143D01*
X143842619Y-86614000D02*
X144858619Y-87630000D01*
X143842619Y-87630000D02*
X144858619Y-86614000D01*
X144858619Y-88210572D02*
X143842619Y-88210572D01*
X143842619Y-88573429D01*
X143891000Y-88791144D01*
X143987762Y-88936286D01*
X144084524Y-89008858D01*
X144278048Y-89081429D01*
X144423190Y-89081429D01*
X144616714Y-89008858D01*
X144713476Y-88936286D01*
X144810238Y-88791144D01*
X144858619Y-88573429D01*
X144858619Y-88210572D01*
X141302619Y-85198857D02*
X141302619Y-86069714D01*
X142318619Y-85634285D02*
X141302619Y-85634285D01*
X141302619Y-86432571D02*
X142318619Y-87448571D01*
X141302619Y-87448571D02*
X142318619Y-86432571D01*
X142318619Y-88029143D02*
X141302619Y-88029143D01*
X141302619Y-88392000D01*
X141351000Y-88609715D01*
X141447762Y-88754857D01*
X141544524Y-88827429D01*
X141738048Y-88900000D01*
X141883190Y-88900000D01*
X142076714Y-88827429D01*
X142173476Y-88754857D01*
X142270238Y-88609715D01*
X142318619Y-88392000D01*
X142318619Y-88029143D01*
X139778619Y-86033428D02*
X139294810Y-85525428D01*
X139778619Y-85162571D02*
X138762619Y-85162571D01*
X138762619Y-85743143D01*
X138811000Y-85888285D01*
X138859381Y-85960857D01*
X138956143Y-86033428D01*
X139101286Y-86033428D01*
X139198048Y-85960857D01*
X139246429Y-85888285D01*
X139294810Y-85743143D01*
X139294810Y-85162571D01*
X138762619Y-86468857D02*
X138762619Y-87339714D01*
X139778619Y-86904285D02*
X138762619Y-86904285D01*
X139730238Y-87775143D02*
X139778619Y-87992857D01*
X139778619Y-88355714D01*
X139730238Y-88500857D01*
X139681857Y-88573428D01*
X139585095Y-88646000D01*
X139488333Y-88646000D01*
X139391571Y-88573428D01*
X139343190Y-88500857D01*
X139294810Y-88355714D01*
X139246429Y-88065428D01*
X139198048Y-87920286D01*
X139149667Y-87847714D01*
X139052905Y-87775143D01*
X138956143Y-87775143D01*
X138859381Y-87847714D01*
X138811000Y-87920286D01*
X138762619Y-88065428D01*
X138762619Y-88428286D01*
X138811000Y-88646000D01*
X137141857Y-86160428D02*
X137190238Y-86087857D01*
X137238619Y-85870143D01*
X137238619Y-85725000D01*
X137190238Y-85507285D01*
X137093476Y-85362143D01*
X136996714Y-85289571D01*
X136803190Y-85217000D01*
X136658048Y-85217000D01*
X136464524Y-85289571D01*
X136367762Y-85362143D01*
X136271000Y-85507285D01*
X136222619Y-85725000D01*
X136222619Y-85870143D01*
X136271000Y-86087857D01*
X136319381Y-86160428D01*
X136222619Y-86595857D02*
X136222619Y-87466714D01*
X137238619Y-87031285D02*
X136222619Y-87031285D01*
X137190238Y-87902143D02*
X137238619Y-88119857D01*
X137238619Y-88482714D01*
X137190238Y-88627857D01*
X137141857Y-88700428D01*
X137045095Y-88773000D01*
X136948333Y-88773000D01*
X136851571Y-88700428D01*
X136803190Y-88627857D01*
X136754810Y-88482714D01*
X136706429Y-88192428D01*
X136658048Y-88047286D01*
X136609667Y-87974714D01*
X136512905Y-87902143D01*
X136416143Y-87902143D01*
X136319381Y-87974714D01*
X136271000Y-88047286D01*
X136222619Y-88192428D01*
X136222619Y-88555286D01*
X136271000Y-88773000D01*
X133731000Y-85960858D02*
X133682619Y-85815715D01*
X133682619Y-85598001D01*
X133731000Y-85380286D01*
X133827762Y-85235144D01*
X133924524Y-85162572D01*
X134118048Y-85090001D01*
X134263190Y-85090001D01*
X134456714Y-85162572D01*
X134553476Y-85235144D01*
X134650238Y-85380286D01*
X134698619Y-85598001D01*
X134698619Y-85743144D01*
X134650238Y-85960858D01*
X134601857Y-86033429D01*
X134263190Y-86033429D01*
X134263190Y-85743144D01*
X134698619Y-86686572D02*
X133682619Y-86686572D01*
X134698619Y-87557429D01*
X133682619Y-87557429D01*
X134698619Y-88283143D02*
X133682619Y-88283143D01*
X133682619Y-88646000D01*
X133731000Y-88863715D01*
X133827762Y-89008857D01*
X133924524Y-89081429D01*
X134118048Y-89154000D01*
X134263190Y-89154000D01*
X134456714Y-89081429D01*
X134553476Y-89008857D01*
X134650238Y-88863715D01*
X134698619Y-88646000D01*
X134698619Y-88283143D01*
X131644571Y-85162571D02*
X131644571Y-86323714D01*
X132031619Y-85743143D02*
X131257524Y-85743143D01*
X131015619Y-87775142D02*
X131015619Y-87049428D01*
X131499429Y-86976857D01*
X131451048Y-87049428D01*
X131402667Y-87194571D01*
X131402667Y-87557428D01*
X131451048Y-87702571D01*
X131499429Y-87775142D01*
X131596190Y-87847714D01*
X131838095Y-87847714D01*
X131934857Y-87775142D01*
X131983238Y-87702571D01*
X132031619Y-87557428D01*
X132031619Y-87194571D01*
X131983238Y-87049428D01*
X131934857Y-86976857D01*
X131015619Y-88283143D02*
X132031619Y-88791143D01*
X131015619Y-89299143D01*
D10*
G36*
X141932527Y-96680421D02*
X141932527Y-95684003D01*
X140345585Y-95684003D01*
X139559709Y-95683029D01*
X138724106Y-95653355D01*
X137564039Y-95587910D01*
X136796905Y-95480659D01*
X136280935Y-95296087D01*
X135874364Y-94998679D01*
X135789130Y-94918092D01*
X135433784Y-94499029D01*
X135397842Y-94282324D01*
X135439140Y-94274105D01*
X135861552Y-94471518D01*
X135919433Y-94545835D01*
X136253683Y-94686242D01*
X136376825Y-94638671D01*
X136748282Y-94672112D01*
X136968982Y-94873749D01*
X137347089Y-95091765D01*
X138030671Y-95266624D01*
X138858268Y-95383360D01*
X139668415Y-95427002D01*
X140299649Y-95382582D01*
X140590507Y-95235131D01*
X140594867Y-95209894D01*
X140356707Y-95051791D01*
X139733917Y-94920960D01*
X139099489Y-94861483D01*
X138203084Y-94778855D01*
X137709296Y-94621942D01*
X137486635Y-94342469D01*
X137461020Y-94259904D01*
X137260409Y-93922973D01*
X136794796Y-93769275D01*
X136138273Y-93739368D01*
X134951649Y-93739368D01*
X135033140Y-92469368D01*
X135114632Y-91199368D01*
X138122527Y-91123769D01*
X141130421Y-91048171D01*
X141130421Y-92393769D01*
X141130421Y-93739368D01*
X139526211Y-93739368D01*
X138586059Y-93772234D01*
X138083071Y-93886041D01*
X137922840Y-94103607D01*
X137922000Y-94127078D01*
X138087148Y-94371852D01*
X138636260Y-94522660D01*
X139459369Y-94594973D01*
X140336325Y-94664749D01*
X140801578Y-94789649D01*
X140978128Y-95018869D01*
X140996737Y-95209894D01*
X140959315Y-95467883D01*
X140777193Y-95619103D01*
X140345585Y-95684003D01*
X141932527Y-95684003D01*
X141932527Y-93472000D01*
X141932527Y-90263579D01*
X138055685Y-90263579D01*
X134178843Y-90263579D01*
X134178843Y-93472000D01*
X134178843Y-96680421D01*
X138055685Y-96680421D01*
X141932527Y-96680421D01*
X141932527Y-96680421D01*
X141932527Y-96680421D01*
G37*
X141932527Y-96680421D02*
X141932527Y-95684003D01*
X140345585Y-95684003D01*
X139559709Y-95683029D01*
X138724106Y-95653355D01*
X137564039Y-95587910D01*
X136796905Y-95480659D01*
X136280935Y-95296087D01*
X135874364Y-94998679D01*
X135789130Y-94918092D01*
X135433784Y-94499029D01*
X135397842Y-94282324D01*
X135439140Y-94274105D01*
X135861552Y-94471518D01*
X135919433Y-94545835D01*
X136253683Y-94686242D01*
X136376825Y-94638671D01*
X136748282Y-94672112D01*
X136968982Y-94873749D01*
X137347089Y-95091765D01*
X138030671Y-95266624D01*
X138858268Y-95383360D01*
X139668415Y-95427002D01*
X140299649Y-95382582D01*
X140590507Y-95235131D01*
X140594867Y-95209894D01*
X140356707Y-95051791D01*
X139733917Y-94920960D01*
X139099489Y-94861483D01*
X138203084Y-94778855D01*
X137709296Y-94621942D01*
X137486635Y-94342469D01*
X137461020Y-94259904D01*
X137260409Y-93922973D01*
X136794796Y-93769275D01*
X136138273Y-93739368D01*
X134951649Y-93739368D01*
X135033140Y-92469368D01*
X135114632Y-91199368D01*
X138122527Y-91123769D01*
X141130421Y-91048171D01*
X141130421Y-92393769D01*
X141130421Y-93739368D01*
X139526211Y-93739368D01*
X138586059Y-93772234D01*
X138083071Y-93886041D01*
X137922840Y-94103607D01*
X137922000Y-94127078D01*
X138087148Y-94371852D01*
X138636260Y-94522660D01*
X139459369Y-94594973D01*
X140336325Y-94664749D01*
X140801578Y-94789649D01*
X140978128Y-95018869D01*
X140996737Y-95209894D01*
X140959315Y-95467883D01*
X140777193Y-95619103D01*
X140345585Y-95684003D01*
X141932527Y-95684003D01*
X141932527Y-93472000D01*
X141932527Y-90263579D01*
X138055685Y-90263579D01*
X134178843Y-90263579D01*
X134178843Y-93472000D01*
X134178843Y-96680421D01*
X138055685Y-96680421D01*
X141932527Y-96680421D01*
X141932527Y-96680421D01*
G36*
X139067060Y-92817112D02*
X139669129Y-92599818D01*
X139738517Y-92564684D01*
X140385019Y-92195459D01*
X140565836Y-92004788D01*
X140271345Y-92008973D01*
X140033581Y-92064844D01*
X139514137Y-92075860D01*
X139298317Y-91946693D01*
X138970074Y-91890837D01*
X138368512Y-92172523D01*
X138323053Y-92201565D01*
X137859202Y-92526525D01*
X137837281Y-92632081D01*
X138109707Y-92590437D01*
X138605126Y-92591839D01*
X138789908Y-92733617D01*
X139067060Y-92817112D01*
X139067060Y-92817112D01*
X139067060Y-92817112D01*
G37*
X139067060Y-92817112D02*
X139669129Y-92599818D01*
X139738517Y-92564684D01*
X140385019Y-92195459D01*
X140565836Y-92004788D01*
X140271345Y-92008973D01*
X140033581Y-92064844D01*
X139514137Y-92075860D01*
X139298317Y-91946693D01*
X138970074Y-91890837D01*
X138368512Y-92172523D01*
X138323053Y-92201565D01*
X137859202Y-92526525D01*
X137837281Y-92632081D01*
X138109707Y-92590437D01*
X138605126Y-92591839D01*
X138789908Y-92733617D01*
X139067060Y-92817112D01*
X139067060Y-92817112D01*
G36*
X136606802Y-93429516D02*
X136810939Y-93197624D01*
X136852507Y-92582074D01*
X136852527Y-92553969D01*
X136810417Y-91917758D01*
X136591744Y-91653670D01*
X136057998Y-91600446D01*
X136033481Y-91600421D01*
X135477106Y-91648997D01*
X135281034Y-91905446D01*
X135298218Y-92469368D01*
X135437852Y-93093067D01*
X135792475Y-93362976D01*
X136117264Y-93422917D01*
X136606802Y-93429516D01*
X136606802Y-93429516D01*
X136606802Y-93429516D01*
G37*
X136606802Y-93429516D02*
X136810939Y-93197624D01*
X136852507Y-92582074D01*
X136852527Y-92553969D01*
X136810417Y-91917758D01*
X136591744Y-91653670D01*
X136057998Y-91600446D01*
X136033481Y-91600421D01*
X135477106Y-91648997D01*
X135281034Y-91905446D01*
X135298218Y-92469368D01*
X135437852Y-93093067D01*
X135792475Y-93362976D01*
X136117264Y-93422917D01*
X136606802Y-93429516D01*
X136606802Y-93429516D01*
G36*
X136718843Y-95343579D02*
X136852527Y-95209894D01*
X136718843Y-95076210D01*
X136585158Y-95209894D01*
X136718843Y-95343579D01*
X136718843Y-95343579D01*
X136718843Y-95343579D01*
G37*
X136718843Y-95343579D02*
X136852527Y-95209894D01*
X136718843Y-95076210D01*
X136585158Y-95209894D01*
X136718843Y-95343579D01*
X136718843Y-95343579D01*
M02*
