G04 #@! TF.FileFunction,Soldermask,Top*
%FSLAX46Y46*%
G04 Gerber Fmt 4.6, Leading zero omitted, Abs format (unit mm)*
G04 Created by KiCad (PCBNEW (2014-11-24 BZR 5301)-product) date Sat Mar 28 18:02:35 2015*
%MOMM*%
G01*
G04 APERTURE LIST*
%ADD10C,0.100000*%
%ADD11C,0.939800*%
%ADD12R,1.600000X1.150000*%
%ADD13R,1.150000X1.600000*%
%ADD14R,1.600000X1.300000*%
%ADD15R,2.127200X2.432000*%
%ADD16O,2.127200X2.432000*%
%ADD17R,1.000000X2.000000*%
%ADD18C,4.210000*%
%ADD19R,1.924000X1.924000*%
%ADD20C,1.924000*%
G04 APERTURE END LIST*
D10*
D11*
X140462000Y-86614000D03*
X146050000Y-100330000D03*
X128270000Y-105410000D03*
X147320000Y-105410000D03*
X144145000Y-105410000D03*
X146050000Y-103505000D03*
X151130000Y-92710000D03*
X146050000Y-95250000D03*
X149860000Y-93980000D03*
X146050000Y-97790000D03*
X144780000Y-96520000D03*
X148590000Y-92710000D03*
X149860000Y-91440000D03*
X148590000Y-88900000D03*
X149860000Y-87630000D03*
X147320000Y-87630000D03*
X148590000Y-86360000D03*
X130175000Y-104140000D03*
X127000000Y-99060000D03*
X127000000Y-93980000D03*
X128270000Y-92710000D03*
X127000000Y-91440000D03*
X125730000Y-92710000D03*
X127000000Y-87630000D03*
X125730000Y-88900000D03*
X125730000Y-86360000D03*
X124460000Y-87630000D03*
X134874000Y-99060000D03*
X127000000Y-96520000D03*
X134620000Y-91948000D03*
X141478000Y-91694000D03*
X139192000Y-91440000D03*
X147320000Y-96520000D03*
X125730000Y-97790000D03*
X128270000Y-97790000D03*
X132080000Y-105410000D03*
D12*
X131384000Y-86614000D03*
X133284000Y-86614000D03*
D13*
X144526000Y-93152000D03*
X144526000Y-91252000D03*
X131318000Y-93152000D03*
X131318000Y-91252000D03*
D12*
X136464000Y-97790000D03*
X138364000Y-97790000D03*
X131384000Y-97790000D03*
X133284000Y-97790000D03*
D14*
X136568000Y-86614000D03*
X138768000Y-86614000D03*
X144356000Y-86614000D03*
X142156000Y-86614000D03*
D15*
X131572000Y-83312000D03*
D16*
X134112000Y-83312000D03*
X136652000Y-83312000D03*
X139192000Y-83312000D03*
X141732000Y-83312000D03*
X144272000Y-83312000D03*
D17*
X133477000Y-89281000D03*
X136017000Y-89281000D03*
X137287000Y-89281000D03*
X138557000Y-89281000D03*
X139827000Y-89281000D03*
X141097000Y-89281000D03*
X142367000Y-89281000D03*
X142367000Y-95123000D03*
X141097000Y-95123000D03*
X139827000Y-95123000D03*
X138557000Y-95123000D03*
X137287000Y-95123000D03*
X136017000Y-95123000D03*
X134747000Y-95123000D03*
X133477000Y-95123000D03*
X134747000Y-89281000D03*
D18*
X125476000Y-102489000D03*
X150495000Y-102489000D03*
D19*
X143383000Y-101092000D03*
D20*
X140716000Y-101092000D03*
X137922000Y-101092000D03*
X135255000Y-101092000D03*
X132461000Y-101092000D03*
X142113000Y-103886000D03*
X139319000Y-103886000D03*
X136652000Y-103886000D03*
X133858000Y-103886000D03*
M02*
