G04 #@! TF.FileFunction,Legend,Top*
%FSLAX46Y46*%
G04 Gerber Fmt 4.6, Leading zero omitted, Abs format (unit mm)*
G04 Created by KiCad (PCBNEW (2014-11-24 BZR 5301)-product) date Sat Mar 28 18:02:35 2015*
%MOMM*%
G01*
G04 APERTURE LIST*
%ADD10C,0.100000*%
%ADD11C,0.002540*%
%ADD12C,0.150000*%
G04 APERTURE END LIST*
D10*
G36*
X151549100Y-98221018D02*
X151487719Y-98240355D01*
X151268862Y-98257391D01*
X150904373Y-98271836D01*
X150406098Y-98283400D01*
X149785881Y-98291796D01*
X149055567Y-98296734D01*
X148395266Y-98298000D01*
X147674016Y-98296874D01*
X147008734Y-98293665D01*
X146417762Y-98288626D01*
X145919439Y-98282009D01*
X145532105Y-98274068D01*
X145274099Y-98265057D01*
X145163763Y-98255227D01*
X145161000Y-98253377D01*
X145201130Y-98167769D01*
X145310558Y-97964816D01*
X145472841Y-97673196D01*
X145671538Y-97321588D01*
X145890205Y-96938668D01*
X146112399Y-96553115D01*
X146321679Y-96193605D01*
X146501602Y-95888817D01*
X146635724Y-95667427D01*
X146702648Y-95564584D01*
X146806872Y-95463474D01*
X146922523Y-95494957D01*
X146976198Y-95532109D01*
X147071348Y-95613450D01*
X147088253Y-95699166D01*
X147023247Y-95843667D01*
X146946282Y-95976339D01*
X146840909Y-96172474D01*
X146797442Y-96335979D01*
X146808744Y-96534766D01*
X146859763Y-96799586D01*
X146945423Y-97117308D01*
X147045209Y-97299512D01*
X147142683Y-97368905D01*
X147255533Y-97423229D01*
X147214075Y-97443527D01*
X147168854Y-97445967D01*
X147067520Y-97474433D01*
X147087231Y-97579011D01*
X147111083Y-97625805D01*
X147255301Y-97767343D01*
X147421814Y-97771314D01*
X147556281Y-97651147D01*
X147601786Y-97504519D01*
X147592845Y-97297152D01*
X147538286Y-97170086D01*
X147462040Y-97006671D01*
X147439956Y-96762739D01*
X147464182Y-96489933D01*
X147526868Y-96239895D01*
X147620162Y-96064267D01*
X147714346Y-96012000D01*
X147750041Y-96060071D01*
X147695680Y-96145410D01*
X147621439Y-96309015D01*
X147575286Y-96548312D01*
X147561655Y-96799816D01*
X147584977Y-97000045D01*
X147630503Y-97079091D01*
X147739829Y-97082957D01*
X147800275Y-96966200D01*
X147795710Y-96774333D01*
X147770829Y-96683163D01*
X147737656Y-96401516D01*
X147782455Y-96272001D01*
X147880915Y-96120467D01*
X147918776Y-96118433D01*
X147876720Y-96259077D01*
X147859139Y-96299091D01*
X147811176Y-96524599D01*
X147858379Y-96658925D01*
X147920539Y-96744373D01*
X147946773Y-96694404D01*
X147952425Y-96546164D01*
X147974760Y-96345442D01*
X148025195Y-96232738D01*
X148027436Y-96231226D01*
X148067727Y-96265944D01*
X148059899Y-96395562D01*
X148061868Y-96558898D01*
X148118174Y-96604667D01*
X148191733Y-96539867D01*
X148191545Y-96483219D01*
X148193325Y-96385290D01*
X148290176Y-96352967D01*
X148384002Y-96350667D01*
X148384283Y-96408642D01*
X148293620Y-96559245D01*
X148162631Y-96731063D01*
X147986066Y-96960221D01*
X147901412Y-97130881D01*
X147886433Y-97309622D01*
X147908150Y-97493063D01*
X147978604Y-97763273D01*
X148085790Y-97869524D01*
X148232170Y-97813685D01*
X148276733Y-97773067D01*
X148361648Y-97622393D01*
X148368833Y-97465427D01*
X148299742Y-97371961D01*
X148268267Y-97366667D01*
X148116383Y-97421684D01*
X148051584Y-97472500D01*
X147979543Y-97527306D01*
X147996077Y-97444552D01*
X148004285Y-97422584D01*
X148103163Y-97310322D01*
X148284468Y-97310516D01*
X148461279Y-97306864D01*
X148646289Y-97204615D01*
X148808347Y-97061060D01*
X149111361Y-96767924D01*
X150290014Y-97455980D01*
X150694712Y-97694019D01*
X151049738Y-97906215D01*
X151328342Y-98076315D01*
X151503773Y-98188065D01*
X151549100Y-98221018D01*
X151549100Y-98221018D01*
X151549100Y-98221018D01*
G37*
X151549100Y-98221018D02*
X151487719Y-98240355D01*
X151268862Y-98257391D01*
X150904373Y-98271836D01*
X150406098Y-98283400D01*
X149785881Y-98291796D01*
X149055567Y-98296734D01*
X148395266Y-98298000D01*
X147674016Y-98296874D01*
X147008734Y-98293665D01*
X146417762Y-98288626D01*
X145919439Y-98282009D01*
X145532105Y-98274068D01*
X145274099Y-98265057D01*
X145163763Y-98255227D01*
X145161000Y-98253377D01*
X145201130Y-98167769D01*
X145310558Y-97964816D01*
X145472841Y-97673196D01*
X145671538Y-97321588D01*
X145890205Y-96938668D01*
X146112399Y-96553115D01*
X146321679Y-96193605D01*
X146501602Y-95888817D01*
X146635724Y-95667427D01*
X146702648Y-95564584D01*
X146806872Y-95463474D01*
X146922523Y-95494957D01*
X146976198Y-95532109D01*
X147071348Y-95613450D01*
X147088253Y-95699166D01*
X147023247Y-95843667D01*
X146946282Y-95976339D01*
X146840909Y-96172474D01*
X146797442Y-96335979D01*
X146808744Y-96534766D01*
X146859763Y-96799586D01*
X146945423Y-97117308D01*
X147045209Y-97299512D01*
X147142683Y-97368905D01*
X147255533Y-97423229D01*
X147214075Y-97443527D01*
X147168854Y-97445967D01*
X147067520Y-97474433D01*
X147087231Y-97579011D01*
X147111083Y-97625805D01*
X147255301Y-97767343D01*
X147421814Y-97771314D01*
X147556281Y-97651147D01*
X147601786Y-97504519D01*
X147592845Y-97297152D01*
X147538286Y-97170086D01*
X147462040Y-97006671D01*
X147439956Y-96762739D01*
X147464182Y-96489933D01*
X147526868Y-96239895D01*
X147620162Y-96064267D01*
X147714346Y-96012000D01*
X147750041Y-96060071D01*
X147695680Y-96145410D01*
X147621439Y-96309015D01*
X147575286Y-96548312D01*
X147561655Y-96799816D01*
X147584977Y-97000045D01*
X147630503Y-97079091D01*
X147739829Y-97082957D01*
X147800275Y-96966200D01*
X147795710Y-96774333D01*
X147770829Y-96683163D01*
X147737656Y-96401516D01*
X147782455Y-96272001D01*
X147880915Y-96120467D01*
X147918776Y-96118433D01*
X147876720Y-96259077D01*
X147859139Y-96299091D01*
X147811176Y-96524599D01*
X147858379Y-96658925D01*
X147920539Y-96744373D01*
X147946773Y-96694404D01*
X147952425Y-96546164D01*
X147974760Y-96345442D01*
X148025195Y-96232738D01*
X148027436Y-96231226D01*
X148067727Y-96265944D01*
X148059899Y-96395562D01*
X148061868Y-96558898D01*
X148118174Y-96604667D01*
X148191733Y-96539867D01*
X148191545Y-96483219D01*
X148193325Y-96385290D01*
X148290176Y-96352967D01*
X148384002Y-96350667D01*
X148384283Y-96408642D01*
X148293620Y-96559245D01*
X148162631Y-96731063D01*
X147986066Y-96960221D01*
X147901412Y-97130881D01*
X147886433Y-97309622D01*
X147908150Y-97493063D01*
X147978604Y-97763273D01*
X148085790Y-97869524D01*
X148232170Y-97813685D01*
X148276733Y-97773067D01*
X148361648Y-97622393D01*
X148368833Y-97465427D01*
X148299742Y-97371961D01*
X148268267Y-97366667D01*
X148116383Y-97421684D01*
X148051584Y-97472500D01*
X147979543Y-97527306D01*
X147996077Y-97444552D01*
X148004285Y-97422584D01*
X148103163Y-97310322D01*
X148284468Y-97310516D01*
X148461279Y-97306864D01*
X148646289Y-97204615D01*
X148808347Y-97061060D01*
X149111361Y-96767924D01*
X150290014Y-97455980D01*
X150694712Y-97694019D01*
X151049738Y-97906215D01*
X151328342Y-98076315D01*
X151503773Y-98188065D01*
X151549100Y-98221018D01*
X151549100Y-98221018D01*
G36*
X147362333Y-97578334D02*
X147320000Y-97620667D01*
X147277667Y-97578334D01*
X147320000Y-97536000D01*
X147362333Y-97578334D01*
X147362333Y-97578334D01*
X147362333Y-97578334D01*
G37*
X147362333Y-97578334D02*
X147320000Y-97620667D01*
X147277667Y-97578334D01*
X147320000Y-97536000D01*
X147362333Y-97578334D01*
X147362333Y-97578334D01*
G36*
X151884378Y-97591377D02*
X151874402Y-97613331D01*
X151780811Y-97569998D01*
X151569683Y-97456006D01*
X151269160Y-97287022D01*
X150907383Y-97078708D01*
X150771656Y-96999498D01*
X150400534Y-96778444D01*
X150088084Y-96585243D01*
X149860541Y-96436670D01*
X149744138Y-96349498D01*
X149734489Y-96336323D01*
X149786992Y-96251034D01*
X149927249Y-96076960D01*
X150127074Y-95848730D01*
X150168503Y-95803136D01*
X150604007Y-95326626D01*
X151063084Y-96113813D01*
X151278901Y-96483909D01*
X151487206Y-96841179D01*
X151658226Y-97134556D01*
X151731816Y-97260834D01*
X151839182Y-97464416D01*
X151884378Y-97591377D01*
X151884378Y-97591377D01*
X151884378Y-97591377D01*
G37*
X151884378Y-97591377D02*
X151874402Y-97613331D01*
X151780811Y-97569998D01*
X151569683Y-97456006D01*
X151269160Y-97287022D01*
X150907383Y-97078708D01*
X150771656Y-96999498D01*
X150400534Y-96778444D01*
X150088084Y-96585243D01*
X149860541Y-96436670D01*
X149744138Y-96349498D01*
X149734489Y-96336323D01*
X149786992Y-96251034D01*
X149927249Y-96076960D01*
X150127074Y-95848730D01*
X150168503Y-95803136D01*
X150604007Y-95326626D01*
X151063084Y-96113813D01*
X151278901Y-96483909D01*
X151487206Y-96841179D01*
X151658226Y-97134556D01*
X151731816Y-97260834D01*
X151839182Y-97464416D01*
X151884378Y-97591377D01*
X151884378Y-97591377D01*
G36*
X149967850Y-94191667D02*
X149668565Y-94348283D01*
X149443435Y-94435335D01*
X149112563Y-94526836D01*
X148738222Y-94606147D01*
X148641630Y-94622690D01*
X148251450Y-94701151D01*
X147924711Y-94795527D01*
X147711166Y-94891145D01*
X147696146Y-94901534D01*
X147504256Y-95006741D01*
X147344819Y-94989451D01*
X147314489Y-94974474D01*
X147172915Y-94895609D01*
X147124255Y-94865380D01*
X147150086Y-94785275D01*
X147248798Y-94588889D01*
X147404110Y-94303898D01*
X147599737Y-93957978D01*
X147819396Y-93578805D01*
X148046805Y-93194054D01*
X148265680Y-92831401D01*
X148459737Y-92518521D01*
X148612695Y-92283091D01*
X148708269Y-92152786D01*
X148730198Y-92135844D01*
X148796816Y-92214500D01*
X148928840Y-92413360D01*
X149108920Y-92704892D01*
X149319706Y-93061565D01*
X149385655Y-93175966D01*
X149967850Y-94191667D01*
X149967850Y-94191667D01*
X149967850Y-94191667D01*
G37*
X149967850Y-94191667D02*
X149668565Y-94348283D01*
X149443435Y-94435335D01*
X149112563Y-94526836D01*
X148738222Y-94606147D01*
X148641630Y-94622690D01*
X148251450Y-94701151D01*
X147924711Y-94795527D01*
X147711166Y-94891145D01*
X147696146Y-94901534D01*
X147504256Y-95006741D01*
X147344819Y-94989451D01*
X147314489Y-94974474D01*
X147172915Y-94895609D01*
X147124255Y-94865380D01*
X147150086Y-94785275D01*
X147248798Y-94588889D01*
X147404110Y-94303898D01*
X147599737Y-93957978D01*
X147819396Y-93578805D01*
X148046805Y-93194054D01*
X148265680Y-92831401D01*
X148459737Y-92518521D01*
X148612695Y-92283091D01*
X148708269Y-92152786D01*
X148730198Y-92135844D01*
X148796816Y-92214500D01*
X148928840Y-92413360D01*
X149108920Y-92704892D01*
X149319706Y-93061565D01*
X149385655Y-93175966D01*
X149967850Y-94191667D01*
X149967850Y-94191667D01*
D11*
G36*
X125201680Y-98102420D02*
X125237240Y-98084640D01*
X125310900Y-98036380D01*
X125417580Y-97967800D01*
X125542040Y-97883980D01*
X125666500Y-97797620D01*
X125770640Y-97729040D01*
X125844300Y-97683320D01*
X125874780Y-97665540D01*
X125890020Y-97673160D01*
X125950980Y-97701100D01*
X126037340Y-97746820D01*
X126085600Y-97772220D01*
X126166880Y-97807780D01*
X126204980Y-97812860D01*
X126212600Y-97802700D01*
X126240540Y-97741740D01*
X126286260Y-97637600D01*
X126347220Y-97500440D01*
X126415800Y-97337880D01*
X126489460Y-97165160D01*
X126563120Y-96987360D01*
X126634240Y-96819720D01*
X126695200Y-96667320D01*
X126746000Y-96542860D01*
X126779020Y-96456500D01*
X126789180Y-96420940D01*
X126786640Y-96413320D01*
X126746000Y-96372680D01*
X126677420Y-96321880D01*
X126527560Y-96199960D01*
X126377700Y-96014540D01*
X126288800Y-95803720D01*
X126258320Y-95570040D01*
X126283720Y-95354140D01*
X126370080Y-95145860D01*
X126514860Y-94960440D01*
X126690120Y-94820740D01*
X126895860Y-94731840D01*
X127127000Y-94703900D01*
X127347980Y-94729300D01*
X127561340Y-94813120D01*
X127746760Y-94955360D01*
X127825500Y-95046800D01*
X127934720Y-95237300D01*
X127998220Y-95437960D01*
X128003300Y-95491300D01*
X127995680Y-95712280D01*
X127929640Y-95925640D01*
X127810260Y-96118680D01*
X127647700Y-96273620D01*
X127627380Y-96288860D01*
X127551180Y-96344740D01*
X127500380Y-96385380D01*
X127462280Y-96418400D01*
X127744220Y-97101660D01*
X127789940Y-97210880D01*
X127868680Y-97396300D01*
X127937260Y-97556320D01*
X127990600Y-97685860D01*
X128028700Y-97772220D01*
X128046480Y-97805240D01*
X128049020Y-97807780D01*
X128071880Y-97812860D01*
X128125220Y-97792540D01*
X128219200Y-97746820D01*
X128282700Y-97713800D01*
X128356360Y-97678240D01*
X128389380Y-97665540D01*
X128417320Y-97680780D01*
X128485900Y-97726500D01*
X128587500Y-97795080D01*
X128709420Y-97876360D01*
X128826260Y-97957640D01*
X128932940Y-98026220D01*
X129011680Y-98077020D01*
X129049780Y-98097340D01*
X129054860Y-98097340D01*
X129090420Y-98079560D01*
X129151380Y-98026220D01*
X129242820Y-97939860D01*
X129374900Y-97810320D01*
X129395220Y-97790000D01*
X129504440Y-97678240D01*
X129590800Y-97586800D01*
X129651760Y-97520760D01*
X129672080Y-97490280D01*
X129672080Y-97490280D01*
X129651760Y-97454720D01*
X129603500Y-97375980D01*
X129532380Y-97266760D01*
X129446020Y-97139760D01*
X129219960Y-96812100D01*
X129344420Y-96502220D01*
X129382520Y-96405700D01*
X129430780Y-96291400D01*
X129466340Y-96210120D01*
X129484120Y-96172020D01*
X129519680Y-96161860D01*
X129603500Y-96141540D01*
X129725420Y-96116140D01*
X129872740Y-96088200D01*
X130012440Y-96062800D01*
X130139440Y-96037400D01*
X130230880Y-96019620D01*
X130271520Y-96012000D01*
X130281680Y-96006920D01*
X130289300Y-95986600D01*
X130296920Y-95943420D01*
X130299460Y-95867220D01*
X130299460Y-95745300D01*
X130299460Y-95570040D01*
X130299460Y-95552260D01*
X130299460Y-95384620D01*
X130296920Y-95252540D01*
X130291840Y-95166180D01*
X130286760Y-95130620D01*
X130284220Y-95130620D01*
X130246120Y-95120460D01*
X130157220Y-95102680D01*
X130030220Y-95077280D01*
X129880360Y-95049340D01*
X129870200Y-95046800D01*
X129720340Y-95018860D01*
X129593340Y-94990920D01*
X129506980Y-94970600D01*
X129468880Y-94960440D01*
X129461260Y-94950280D01*
X129430780Y-94891860D01*
X129387600Y-94797880D01*
X129336800Y-94683580D01*
X129288540Y-94566740D01*
X129245360Y-94460060D01*
X129217420Y-94381320D01*
X129209800Y-94345760D01*
X129209800Y-94343220D01*
X129232660Y-94307660D01*
X129283460Y-94231460D01*
X129357120Y-94122240D01*
X129443480Y-93995240D01*
X129451100Y-93985080D01*
X129537460Y-93858080D01*
X129608580Y-93751400D01*
X129654300Y-93675200D01*
X129672080Y-93639640D01*
X129672080Y-93637100D01*
X129644140Y-93599000D01*
X129578100Y-93527880D01*
X129486660Y-93431360D01*
X129374900Y-93319600D01*
X129339340Y-93284040D01*
X129214880Y-93164660D01*
X129131060Y-93083380D01*
X129077720Y-93042740D01*
X129052320Y-93032580D01*
X129049780Y-93035120D01*
X129011680Y-93057980D01*
X128932940Y-93108780D01*
X128823720Y-93182440D01*
X128694180Y-93271340D01*
X128684020Y-93276420D01*
X128559560Y-93362780D01*
X128452880Y-93433900D01*
X128376680Y-93484700D01*
X128343660Y-93505020D01*
X128338580Y-93505020D01*
X128287780Y-93489780D01*
X128196340Y-93456760D01*
X128087120Y-93413580D01*
X127967740Y-93367860D01*
X127861060Y-93322140D01*
X127782320Y-93284040D01*
X127744220Y-93263720D01*
X127744220Y-93261180D01*
X127728980Y-93215460D01*
X127708660Y-93121480D01*
X127680720Y-92991940D01*
X127650240Y-92834460D01*
X127647700Y-92811600D01*
X127617220Y-92659200D01*
X127594360Y-92534740D01*
X127576580Y-92448380D01*
X127566420Y-92412820D01*
X127546100Y-92407740D01*
X127472440Y-92402660D01*
X127358140Y-92400120D01*
X127223520Y-92397580D01*
X127078740Y-92397580D01*
X126939040Y-92402660D01*
X126819660Y-92405200D01*
X126733300Y-92412820D01*
X126697740Y-92417900D01*
X126697740Y-92420440D01*
X126682500Y-92468700D01*
X126662180Y-92562680D01*
X126636780Y-92694760D01*
X126606300Y-92849700D01*
X126601220Y-92877640D01*
X126573280Y-93027500D01*
X126547880Y-93151960D01*
X126527560Y-93238320D01*
X126519940Y-93271340D01*
X126504700Y-93278960D01*
X126443740Y-93304360D01*
X126342140Y-93347540D01*
X126217680Y-93398340D01*
X125925580Y-93515180D01*
X125569980Y-93271340D01*
X125536960Y-93248480D01*
X125409960Y-93162120D01*
X125303280Y-93091000D01*
X125229620Y-93045280D01*
X125199140Y-93027500D01*
X125196600Y-93027500D01*
X125161040Y-93060520D01*
X125092460Y-93126560D01*
X124995940Y-93220540D01*
X124881640Y-93332300D01*
X124800360Y-93413580D01*
X124701300Y-93515180D01*
X124640340Y-93581220D01*
X124604780Y-93624400D01*
X124592080Y-93649800D01*
X124597160Y-93667580D01*
X124620020Y-93705680D01*
X124670820Y-93781880D01*
X124744480Y-93891100D01*
X124830840Y-94018100D01*
X124901960Y-94122240D01*
X124980700Y-94241620D01*
X125031500Y-94327980D01*
X125049280Y-94368620D01*
X125044200Y-94386400D01*
X125018800Y-94457520D01*
X124975620Y-94561660D01*
X124922280Y-94688660D01*
X124800360Y-94970600D01*
X124614940Y-95006160D01*
X124503180Y-95026480D01*
X124345700Y-95056960D01*
X124195840Y-95084900D01*
X123962160Y-95130620D01*
X123952000Y-95991680D01*
X123990100Y-96006920D01*
X124023120Y-96014540D01*
X124109480Y-96034860D01*
X124233940Y-96060260D01*
X124381260Y-96085660D01*
X124505720Y-96111060D01*
X124630180Y-96133920D01*
X124721620Y-96151700D01*
X124759720Y-96159320D01*
X124769880Y-96172020D01*
X124802900Y-96232980D01*
X124846080Y-96329500D01*
X124896880Y-96446340D01*
X124947680Y-96568260D01*
X124990860Y-96677480D01*
X125021340Y-96763840D01*
X125034040Y-96807020D01*
X125016260Y-96840040D01*
X124968000Y-96913700D01*
X124899420Y-97017840D01*
X124813060Y-97142300D01*
X124729240Y-97266760D01*
X124658120Y-97373440D01*
X124607320Y-97452180D01*
X124587000Y-97485200D01*
X124597160Y-97510600D01*
X124645420Y-97569020D01*
X124739400Y-97668080D01*
X124879100Y-97805240D01*
X124901960Y-97828100D01*
X125013720Y-97934780D01*
X125107700Y-98021140D01*
X125173740Y-98079560D01*
X125201680Y-98102420D01*
X125201680Y-98102420D01*
G37*
X125201680Y-98102420D02*
X125237240Y-98084640D01*
X125310900Y-98036380D01*
X125417580Y-97967800D01*
X125542040Y-97883980D01*
X125666500Y-97797620D01*
X125770640Y-97729040D01*
X125844300Y-97683320D01*
X125874780Y-97665540D01*
X125890020Y-97673160D01*
X125950980Y-97701100D01*
X126037340Y-97746820D01*
X126085600Y-97772220D01*
X126166880Y-97807780D01*
X126204980Y-97812860D01*
X126212600Y-97802700D01*
X126240540Y-97741740D01*
X126286260Y-97637600D01*
X126347220Y-97500440D01*
X126415800Y-97337880D01*
X126489460Y-97165160D01*
X126563120Y-96987360D01*
X126634240Y-96819720D01*
X126695200Y-96667320D01*
X126746000Y-96542860D01*
X126779020Y-96456500D01*
X126789180Y-96420940D01*
X126786640Y-96413320D01*
X126746000Y-96372680D01*
X126677420Y-96321880D01*
X126527560Y-96199960D01*
X126377700Y-96014540D01*
X126288800Y-95803720D01*
X126258320Y-95570040D01*
X126283720Y-95354140D01*
X126370080Y-95145860D01*
X126514860Y-94960440D01*
X126690120Y-94820740D01*
X126895860Y-94731840D01*
X127127000Y-94703900D01*
X127347980Y-94729300D01*
X127561340Y-94813120D01*
X127746760Y-94955360D01*
X127825500Y-95046800D01*
X127934720Y-95237300D01*
X127998220Y-95437960D01*
X128003300Y-95491300D01*
X127995680Y-95712280D01*
X127929640Y-95925640D01*
X127810260Y-96118680D01*
X127647700Y-96273620D01*
X127627380Y-96288860D01*
X127551180Y-96344740D01*
X127500380Y-96385380D01*
X127462280Y-96418400D01*
X127744220Y-97101660D01*
X127789940Y-97210880D01*
X127868680Y-97396300D01*
X127937260Y-97556320D01*
X127990600Y-97685860D01*
X128028700Y-97772220D01*
X128046480Y-97805240D01*
X128049020Y-97807780D01*
X128071880Y-97812860D01*
X128125220Y-97792540D01*
X128219200Y-97746820D01*
X128282700Y-97713800D01*
X128356360Y-97678240D01*
X128389380Y-97665540D01*
X128417320Y-97680780D01*
X128485900Y-97726500D01*
X128587500Y-97795080D01*
X128709420Y-97876360D01*
X128826260Y-97957640D01*
X128932940Y-98026220D01*
X129011680Y-98077020D01*
X129049780Y-98097340D01*
X129054860Y-98097340D01*
X129090420Y-98079560D01*
X129151380Y-98026220D01*
X129242820Y-97939860D01*
X129374900Y-97810320D01*
X129395220Y-97790000D01*
X129504440Y-97678240D01*
X129590800Y-97586800D01*
X129651760Y-97520760D01*
X129672080Y-97490280D01*
X129672080Y-97490280D01*
X129651760Y-97454720D01*
X129603500Y-97375980D01*
X129532380Y-97266760D01*
X129446020Y-97139760D01*
X129219960Y-96812100D01*
X129344420Y-96502220D01*
X129382520Y-96405700D01*
X129430780Y-96291400D01*
X129466340Y-96210120D01*
X129484120Y-96172020D01*
X129519680Y-96161860D01*
X129603500Y-96141540D01*
X129725420Y-96116140D01*
X129872740Y-96088200D01*
X130012440Y-96062800D01*
X130139440Y-96037400D01*
X130230880Y-96019620D01*
X130271520Y-96012000D01*
X130281680Y-96006920D01*
X130289300Y-95986600D01*
X130296920Y-95943420D01*
X130299460Y-95867220D01*
X130299460Y-95745300D01*
X130299460Y-95570040D01*
X130299460Y-95552260D01*
X130299460Y-95384620D01*
X130296920Y-95252540D01*
X130291840Y-95166180D01*
X130286760Y-95130620D01*
X130284220Y-95130620D01*
X130246120Y-95120460D01*
X130157220Y-95102680D01*
X130030220Y-95077280D01*
X129880360Y-95049340D01*
X129870200Y-95046800D01*
X129720340Y-95018860D01*
X129593340Y-94990920D01*
X129506980Y-94970600D01*
X129468880Y-94960440D01*
X129461260Y-94950280D01*
X129430780Y-94891860D01*
X129387600Y-94797880D01*
X129336800Y-94683580D01*
X129288540Y-94566740D01*
X129245360Y-94460060D01*
X129217420Y-94381320D01*
X129209800Y-94345760D01*
X129209800Y-94343220D01*
X129232660Y-94307660D01*
X129283460Y-94231460D01*
X129357120Y-94122240D01*
X129443480Y-93995240D01*
X129451100Y-93985080D01*
X129537460Y-93858080D01*
X129608580Y-93751400D01*
X129654300Y-93675200D01*
X129672080Y-93639640D01*
X129672080Y-93637100D01*
X129644140Y-93599000D01*
X129578100Y-93527880D01*
X129486660Y-93431360D01*
X129374900Y-93319600D01*
X129339340Y-93284040D01*
X129214880Y-93164660D01*
X129131060Y-93083380D01*
X129077720Y-93042740D01*
X129052320Y-93032580D01*
X129049780Y-93035120D01*
X129011680Y-93057980D01*
X128932940Y-93108780D01*
X128823720Y-93182440D01*
X128694180Y-93271340D01*
X128684020Y-93276420D01*
X128559560Y-93362780D01*
X128452880Y-93433900D01*
X128376680Y-93484700D01*
X128343660Y-93505020D01*
X128338580Y-93505020D01*
X128287780Y-93489780D01*
X128196340Y-93456760D01*
X128087120Y-93413580D01*
X127967740Y-93367860D01*
X127861060Y-93322140D01*
X127782320Y-93284040D01*
X127744220Y-93263720D01*
X127744220Y-93261180D01*
X127728980Y-93215460D01*
X127708660Y-93121480D01*
X127680720Y-92991940D01*
X127650240Y-92834460D01*
X127647700Y-92811600D01*
X127617220Y-92659200D01*
X127594360Y-92534740D01*
X127576580Y-92448380D01*
X127566420Y-92412820D01*
X127546100Y-92407740D01*
X127472440Y-92402660D01*
X127358140Y-92400120D01*
X127223520Y-92397580D01*
X127078740Y-92397580D01*
X126939040Y-92402660D01*
X126819660Y-92405200D01*
X126733300Y-92412820D01*
X126697740Y-92417900D01*
X126697740Y-92420440D01*
X126682500Y-92468700D01*
X126662180Y-92562680D01*
X126636780Y-92694760D01*
X126606300Y-92849700D01*
X126601220Y-92877640D01*
X126573280Y-93027500D01*
X126547880Y-93151960D01*
X126527560Y-93238320D01*
X126519940Y-93271340D01*
X126504700Y-93278960D01*
X126443740Y-93304360D01*
X126342140Y-93347540D01*
X126217680Y-93398340D01*
X125925580Y-93515180D01*
X125569980Y-93271340D01*
X125536960Y-93248480D01*
X125409960Y-93162120D01*
X125303280Y-93091000D01*
X125229620Y-93045280D01*
X125199140Y-93027500D01*
X125196600Y-93027500D01*
X125161040Y-93060520D01*
X125092460Y-93126560D01*
X124995940Y-93220540D01*
X124881640Y-93332300D01*
X124800360Y-93413580D01*
X124701300Y-93515180D01*
X124640340Y-93581220D01*
X124604780Y-93624400D01*
X124592080Y-93649800D01*
X124597160Y-93667580D01*
X124620020Y-93705680D01*
X124670820Y-93781880D01*
X124744480Y-93891100D01*
X124830840Y-94018100D01*
X124901960Y-94122240D01*
X124980700Y-94241620D01*
X125031500Y-94327980D01*
X125049280Y-94368620D01*
X125044200Y-94386400D01*
X125018800Y-94457520D01*
X124975620Y-94561660D01*
X124922280Y-94688660D01*
X124800360Y-94970600D01*
X124614940Y-95006160D01*
X124503180Y-95026480D01*
X124345700Y-95056960D01*
X124195840Y-95084900D01*
X123962160Y-95130620D01*
X123952000Y-95991680D01*
X123990100Y-96006920D01*
X124023120Y-96014540D01*
X124109480Y-96034860D01*
X124233940Y-96060260D01*
X124381260Y-96085660D01*
X124505720Y-96111060D01*
X124630180Y-96133920D01*
X124721620Y-96151700D01*
X124759720Y-96159320D01*
X124769880Y-96172020D01*
X124802900Y-96232980D01*
X124846080Y-96329500D01*
X124896880Y-96446340D01*
X124947680Y-96568260D01*
X124990860Y-96677480D01*
X125021340Y-96763840D01*
X125034040Y-96807020D01*
X125016260Y-96840040D01*
X124968000Y-96913700D01*
X124899420Y-97017840D01*
X124813060Y-97142300D01*
X124729240Y-97266760D01*
X124658120Y-97373440D01*
X124607320Y-97452180D01*
X124587000Y-97485200D01*
X124597160Y-97510600D01*
X124645420Y-97569020D01*
X124739400Y-97668080D01*
X124879100Y-97805240D01*
X124901960Y-97828100D01*
X125013720Y-97934780D01*
X125107700Y-98021140D01*
X125173740Y-98079560D01*
X125201680Y-98102420D01*
D12*
X131984000Y-86014000D02*
X132684000Y-86014000D01*
X132684000Y-87214000D02*
X131984000Y-87214000D01*
X143926000Y-92552000D02*
X143926000Y-91852000D01*
X145126000Y-91852000D02*
X145126000Y-92552000D01*
X130718000Y-92552000D02*
X130718000Y-91852000D01*
X131918000Y-91852000D02*
X131918000Y-92552000D01*
X137064000Y-97190000D02*
X137764000Y-97190000D01*
X137764000Y-98390000D02*
X137064000Y-98390000D01*
X131984000Y-97190000D02*
X132684000Y-97190000D01*
X132684000Y-98390000D02*
X131984000Y-98390000D01*
X138168000Y-87289000D02*
X137168000Y-87289000D01*
X137168000Y-85939000D02*
X138168000Y-85939000D01*
X142756000Y-85939000D02*
X143756000Y-85939000D01*
X143756000Y-87289000D02*
X142756000Y-87289000D01*
X132842000Y-82042000D02*
X145542000Y-82042000D01*
X145542000Y-82042000D02*
X145542000Y-84582000D01*
X145542000Y-84582000D02*
X132842000Y-84582000D01*
X130022000Y-81762000D02*
X131572000Y-81762000D01*
X132842000Y-82042000D02*
X132842000Y-84582000D01*
X131572000Y-84862000D02*
X130022000Y-84862000D01*
X130022000Y-84862000D02*
X130022000Y-81762000D01*
X132969000Y-91440000D02*
X133731000Y-91440000D01*
X133731000Y-91440000D02*
X133731000Y-92964000D01*
X133731000Y-92964000D02*
X132969000Y-92964000D01*
X142875000Y-90170000D02*
X142875000Y-94234000D01*
X142875000Y-94234000D02*
X132969000Y-94234000D01*
X132969000Y-94234000D02*
X132969000Y-90170000D01*
X132969000Y-90170000D02*
X142875000Y-90170000D01*
X122936000Y-112014000D02*
X122936000Y-99568000D01*
X122936000Y-99568000D02*
X122936000Y-99314000D01*
X152908000Y-112014000D02*
X152908000Y-99314000D01*
X122936000Y-112014000D02*
X152908000Y-112014000D01*
X152908000Y-99314000D02*
X122936000Y-99314000D01*
X129373334Y-86971143D02*
X129325715Y-87018762D01*
X129182858Y-87066381D01*
X129087620Y-87066381D01*
X128944762Y-87018762D01*
X128849524Y-86923524D01*
X128801905Y-86828286D01*
X128754286Y-86637810D01*
X128754286Y-86494952D01*
X128801905Y-86304476D01*
X128849524Y-86209238D01*
X128944762Y-86114000D01*
X129087620Y-86066381D01*
X129182858Y-86066381D01*
X129325715Y-86114000D01*
X129373334Y-86161619D01*
X130278096Y-86066381D02*
X129801905Y-86066381D01*
X129754286Y-86542571D01*
X129801905Y-86494952D01*
X129897143Y-86447333D01*
X130135239Y-86447333D01*
X130230477Y-86494952D01*
X130278096Y-86542571D01*
X130325715Y-86637810D01*
X130325715Y-86875905D01*
X130278096Y-86971143D01*
X130230477Y-87018762D01*
X130135239Y-87066381D01*
X129897143Y-87066381D01*
X129801905Y-87018762D01*
X129754286Y-86971143D01*
X146010334Y-92686143D02*
X145962715Y-92733762D01*
X145819858Y-92781381D01*
X145724620Y-92781381D01*
X145581762Y-92733762D01*
X145486524Y-92638524D01*
X145438905Y-92543286D01*
X145391286Y-92352810D01*
X145391286Y-92209952D01*
X145438905Y-92019476D01*
X145486524Y-91924238D01*
X145581762Y-91829000D01*
X145724620Y-91781381D01*
X145819858Y-91781381D01*
X145962715Y-91829000D01*
X146010334Y-91876619D01*
X146867477Y-92114714D02*
X146867477Y-92781381D01*
X146629381Y-91733762D02*
X146391286Y-92448048D01*
X147010334Y-92448048D01*
X129500334Y-92686143D02*
X129452715Y-92733762D01*
X129309858Y-92781381D01*
X129214620Y-92781381D01*
X129071762Y-92733762D01*
X128976524Y-92638524D01*
X128928905Y-92543286D01*
X128881286Y-92352810D01*
X128881286Y-92209952D01*
X128928905Y-92019476D01*
X128976524Y-91924238D01*
X129071762Y-91829000D01*
X129214620Y-91781381D01*
X129309858Y-91781381D01*
X129452715Y-91829000D01*
X129500334Y-91876619D01*
X129833667Y-91781381D02*
X130452715Y-91781381D01*
X130119381Y-92162333D01*
X130262239Y-92162333D01*
X130357477Y-92209952D01*
X130405096Y-92257571D01*
X130452715Y-92352810D01*
X130452715Y-92590905D01*
X130405096Y-92686143D01*
X130357477Y-92733762D01*
X130262239Y-92781381D01*
X129976524Y-92781381D01*
X129881286Y-92733762D01*
X129833667Y-92686143D01*
X139914334Y-98147143D02*
X139866715Y-98194762D01*
X139723858Y-98242381D01*
X139628620Y-98242381D01*
X139485762Y-98194762D01*
X139390524Y-98099524D01*
X139342905Y-98004286D01*
X139295286Y-97813810D01*
X139295286Y-97670952D01*
X139342905Y-97480476D01*
X139390524Y-97385238D01*
X139485762Y-97290000D01*
X139628620Y-97242381D01*
X139723858Y-97242381D01*
X139866715Y-97290000D01*
X139914334Y-97337619D01*
X140295286Y-97337619D02*
X140342905Y-97290000D01*
X140438143Y-97242381D01*
X140676239Y-97242381D01*
X140771477Y-97290000D01*
X140819096Y-97337619D01*
X140866715Y-97432857D01*
X140866715Y-97528095D01*
X140819096Y-97670952D01*
X140247667Y-98242381D01*
X140866715Y-98242381D01*
X134707334Y-98147143D02*
X134659715Y-98194762D01*
X134516858Y-98242381D01*
X134421620Y-98242381D01*
X134278762Y-98194762D01*
X134183524Y-98099524D01*
X134135905Y-98004286D01*
X134088286Y-97813810D01*
X134088286Y-97670952D01*
X134135905Y-97480476D01*
X134183524Y-97385238D01*
X134278762Y-97290000D01*
X134421620Y-97242381D01*
X134516858Y-97242381D01*
X134659715Y-97290000D01*
X134707334Y-97337619D01*
X135659715Y-98242381D02*
X135088286Y-98242381D01*
X135374000Y-98242381D02*
X135374000Y-97242381D01*
X135278762Y-97385238D01*
X135183524Y-97480476D01*
X135088286Y-97528095D01*
X134834334Y-87066381D02*
X134501000Y-86590190D01*
X134262905Y-87066381D02*
X134262905Y-86066381D01*
X134643858Y-86066381D01*
X134739096Y-86114000D01*
X134786715Y-86161619D01*
X134834334Y-86256857D01*
X134834334Y-86399714D01*
X134786715Y-86494952D01*
X134739096Y-86542571D01*
X134643858Y-86590190D01*
X134262905Y-86590190D01*
X135215286Y-86161619D02*
X135262905Y-86114000D01*
X135358143Y-86066381D01*
X135596239Y-86066381D01*
X135691477Y-86114000D01*
X135739096Y-86161619D01*
X135786715Y-86256857D01*
X135786715Y-86352095D01*
X135739096Y-86494952D01*
X135167667Y-87066381D01*
X135786715Y-87066381D01*
X145883334Y-87066381D02*
X145550000Y-86590190D01*
X145311905Y-87066381D02*
X145311905Y-86066381D01*
X145692858Y-86066381D01*
X145788096Y-86114000D01*
X145835715Y-86161619D01*
X145883334Y-86256857D01*
X145883334Y-86399714D01*
X145835715Y-86494952D01*
X145788096Y-86542571D01*
X145692858Y-86590190D01*
X145311905Y-86590190D01*
X146835715Y-87066381D02*
X146264286Y-87066381D01*
X146550000Y-87066381D02*
X146550000Y-86066381D01*
X146454762Y-86209238D01*
X146359524Y-86304476D01*
X146264286Y-86352095D01*
X129738381Y-84050095D02*
X128738381Y-84050095D01*
X128738381Y-83669142D01*
X128786000Y-83573904D01*
X128833619Y-83526285D01*
X128928857Y-83478666D01*
X129071714Y-83478666D01*
X129166952Y-83526285D01*
X129214571Y-83573904D01*
X129262190Y-83669142D01*
X129262190Y-84050095D01*
X129738381Y-82526285D02*
X129738381Y-83097714D01*
X129738381Y-82812000D02*
X128738381Y-82812000D01*
X128881238Y-82907238D01*
X128976476Y-83002476D01*
X129024095Y-83097714D01*
X131278381Y-95884905D02*
X132087905Y-95884905D01*
X132183143Y-95837286D01*
X132230762Y-95789667D01*
X132278381Y-95694429D01*
X132278381Y-95503952D01*
X132230762Y-95408714D01*
X132183143Y-95361095D01*
X132087905Y-95313476D01*
X131278381Y-95313476D01*
X132278381Y-94313476D02*
X132278381Y-94884905D01*
X132278381Y-94599191D02*
X131278381Y-94599191D01*
X131421238Y-94694429D01*
X131516476Y-94789667D01*
X131564095Y-94884905D01*
X123999667Y-97877381D02*
X123999667Y-98591667D01*
X123952047Y-98734524D01*
X123856809Y-98829762D01*
X123713952Y-98877381D01*
X123618714Y-98877381D01*
X124999667Y-98877381D02*
X124428238Y-98877381D01*
X124713952Y-98877381D02*
X124713952Y-97877381D01*
X124618714Y-98020238D01*
X124523476Y-98115476D01*
X124428238Y-98163095D01*
M02*
