G04 #@! TF.FileFunction,Soldermask,Bot*
%FSLAX46Y46*%
G04 Gerber Fmt 4.6, Leading zero omitted, Abs format (unit mm)*
G04 Created by KiCad (PCBNEW (2015-05-28 BZR 5689)-product) date Wed Jul 29 02:52:55 2015*
%MOMM*%
G01*
G04 APERTURE LIST*
%ADD10C,0.100000*%
%ADD11R,1.200000X0.750000*%
%ADD12R,0.750000X1.200000*%
%ADD13R,1.500000X1.250000*%
%ADD14R,1.250000X1.500000*%
%ADD15R,0.600000X0.500000*%
%ADD16R,0.500000X0.600000*%
%ADD17R,1.727200X1.727200*%
%ADD18O,1.727200X1.727200*%
%ADD19R,0.900000X1.200000*%
%ADD20R,1.200000X0.900000*%
%ADD21R,2.032000X2.032000*%
%ADD22O,2.032000X2.032000*%
%ADD23R,2.032000X1.727200*%
%ADD24O,2.032000X1.727200*%
G04 APERTURE END LIST*
D10*
D11*
X193863000Y-44704000D03*
X191963000Y-44704000D03*
X193863000Y-65024000D03*
X191963000Y-65024000D03*
D12*
X194056000Y-67503000D03*
X194056000Y-69403000D03*
X191770000Y-47310000D03*
X191770000Y-49210000D03*
D13*
X198354000Y-57404000D03*
X195854000Y-57404000D03*
D14*
X210566000Y-70886000D03*
X210566000Y-73386000D03*
X212090000Y-43160000D03*
X212090000Y-40660000D03*
D15*
X225510000Y-57912000D03*
X226610000Y-57912000D03*
D16*
X210820000Y-48980000D03*
X210820000Y-50080000D03*
X213360000Y-48980000D03*
X213360000Y-50080000D03*
D15*
X225256000Y-64516000D03*
X226356000Y-64516000D03*
D16*
X205867000Y-65193000D03*
X205867000Y-64093000D03*
D15*
X198670000Y-50546000D03*
X197570000Y-50546000D03*
D13*
X204490000Y-56261000D03*
X206990000Y-56261000D03*
D16*
X215138000Y-48980000D03*
X215138000Y-50080000D03*
D15*
X220133000Y-59436000D03*
X219033000Y-59436000D03*
D16*
X216408000Y-65193000D03*
X216408000Y-64093000D03*
D15*
X198670000Y-55372000D03*
X197570000Y-55372000D03*
D13*
X198354000Y-65278000D03*
X195854000Y-65278000D03*
D14*
X206248000Y-43160000D03*
X206248000Y-40660000D03*
D13*
X225572000Y-49022000D03*
X228072000Y-49022000D03*
D14*
X216281000Y-70886000D03*
X216281000Y-73386000D03*
D13*
X198354000Y-62738000D03*
X195854000Y-62738000D03*
D14*
X212598000Y-64750000D03*
X212598000Y-62250000D03*
D13*
X219690000Y-56642000D03*
X217190000Y-56642000D03*
X219690000Y-61722000D03*
X217190000Y-61722000D03*
D14*
X215138000Y-43160000D03*
X215138000Y-40660000D03*
D17*
X196850000Y-80010000D03*
D18*
X196850000Y-77470000D03*
X199390000Y-80010000D03*
X199390000Y-77470000D03*
X201930000Y-80010000D03*
X201930000Y-77470000D03*
X204470000Y-80010000D03*
X204470000Y-77470000D03*
X207010000Y-80010000D03*
X207010000Y-77470000D03*
X209550000Y-80010000D03*
X209550000Y-77470000D03*
X212090000Y-80010000D03*
X212090000Y-77470000D03*
X214630000Y-80010000D03*
X214630000Y-77470000D03*
X217170000Y-80010000D03*
X217170000Y-77470000D03*
X219710000Y-80010000D03*
X219710000Y-77470000D03*
X222250000Y-80010000D03*
X222250000Y-77470000D03*
X224790000Y-80010000D03*
X224790000Y-77470000D03*
X227330000Y-80010000D03*
X227330000Y-77470000D03*
X229870000Y-80010000D03*
X229870000Y-77470000D03*
X232410000Y-80010000D03*
X232410000Y-77470000D03*
X234950000Y-80010000D03*
X234950000Y-77470000D03*
D19*
X193929000Y-49360000D03*
X193929000Y-47160000D03*
D20*
X229532000Y-53340000D03*
X231732000Y-53340000D03*
X229532000Y-60960000D03*
X231732000Y-60960000D03*
D21*
X192405000Y-36830000D03*
D22*
X192405000Y-34290000D03*
D17*
X234950000Y-34290000D03*
D18*
X234950000Y-36830000D03*
X232410000Y-34290000D03*
X232410000Y-36830000D03*
X229870000Y-34290000D03*
X229870000Y-36830000D03*
X227330000Y-34290000D03*
X227330000Y-36830000D03*
X224790000Y-34290000D03*
X224790000Y-36830000D03*
X222250000Y-34290000D03*
X222250000Y-36830000D03*
X219710000Y-34290000D03*
X219710000Y-36830000D03*
X217170000Y-34290000D03*
X217170000Y-36830000D03*
X214630000Y-34290000D03*
X214630000Y-36830000D03*
X212090000Y-34290000D03*
X212090000Y-36830000D03*
X209550000Y-34290000D03*
X209550000Y-36830000D03*
X207010000Y-34290000D03*
X207010000Y-36830000D03*
X204470000Y-34290000D03*
X204470000Y-36830000D03*
X201930000Y-34290000D03*
X201930000Y-36830000D03*
X199390000Y-34290000D03*
X199390000Y-36830000D03*
X196850000Y-34290000D03*
X196850000Y-36830000D03*
D23*
X234950000Y-50800000D03*
D24*
X234950000Y-53340000D03*
X234950000Y-55880000D03*
X234950000Y-58420000D03*
X234950000Y-60960000D03*
X234950000Y-63500000D03*
M02*
