M48
;DRILL file {KiCad (2015-05-28 BZR 5689)-product} date Wed Jul 29 02:53:57 2015
;FORMAT={2:4/ absolute / inch / suppress leading zeros}
FMAT,2
INCH,TZ
T1C0.013
T2C0.040
%
G90
G05
M72
T1
X75850Y-26500
X76400Y-17100
X76450Y-25050
X76700Y-18500
X78200Y-27400
X78250Y-19400
X78650Y-22200
X78650Y-24950
X78650Y-25950
X78690Y-23780
X78700Y-19800
X78700Y-22750
X78710Y-21410
X79500Y-18500
X80000Y-24350
X80400Y-21600
X81450Y-25600
X81550Y-18875
X81750Y-17400
X82400Y-26100
X82575Y-19400
X82750Y-18850
X82900Y-26000
X83100Y-27350
X83150Y-17650
X83250Y-25600
X83500Y-19000
X83500Y-26200
X84000Y-18850
X84700Y-18850
X84800Y-25600
X86150Y-18900
X86150Y-26100
X86450Y-19650
X86600Y-21750
X86600Y-23750
X86600Y-24800
X86725Y-19250
X86925Y-18925
X87000Y-22900
X87150Y-25050
X87190Y-22130
X87200Y-18400
X87650Y-18700
X88000Y-26300
X88290Y-25310
X88350Y-22800
X88550Y-19950
X88690Y-24750
X88900Y-21620
X89550Y-26050
X90800Y-24400
X91000Y-25550
X91100Y-22000
T2
X75750Y-13500
X75750Y-14500
X77500Y-13500
X77500Y-14500
X77500Y-30500
X77500Y-31500
X78500Y-13500
X78500Y-14500
X78500Y-30500
X78500Y-31500
X79500Y-13500
X79500Y-14500
X79500Y-30500
X79500Y-31500
X80500Y-13500
X80500Y-14500
X80500Y-30500
X80500Y-31500
X81500Y-13500
X81500Y-14500
X81500Y-30500
X81500Y-31500
X82500Y-13500
X82500Y-14500
X82500Y-30500
X82500Y-31500
X83500Y-13500
X83500Y-14500
X83500Y-30500
X83500Y-31500
X84500Y-13500
X84500Y-14500
X84500Y-30500
X84500Y-31500
X85500Y-13500
X85500Y-14500
X85500Y-30500
X85500Y-31500
X86500Y-13500
X86500Y-14500
X86500Y-30500
X86500Y-31500
X87500Y-13500
X87500Y-14500
X87500Y-30500
X87500Y-31500
X88500Y-13500
X88500Y-14500
X88500Y-30500
X88500Y-31500
X89500Y-13500
X89500Y-14500
X89500Y-30500
X89500Y-31500
X90500Y-13500
X90500Y-14500
X90500Y-30500
X90500Y-31500
X91500Y-13500
X91500Y-14500
X91500Y-30500
X91500Y-31500
X92500Y-13500
X92500Y-14500
X92500Y-20000
X92500Y-21000
X92500Y-22000
X92500Y-23000
X92500Y-24000
X92500Y-25000
X92500Y-30500
X92500Y-31500
T0
M30
