G04 #@! TF.FileFunction,Soldermask,Top*
%FSLAX46Y46*%
G04 Gerber Fmt 4.6, Leading zero omitted, Abs format (unit mm)*
G04 Created by KiCad (PCBNEW (2015-05-28 BZR 5689)-product) date Wed Jul 29 02:52:55 2015*
%MOMM*%
G01*
G04 APERTURE LIST*
%ADD10C,0.100000*%
%ADD11R,1.200000X0.750000*%
%ADD12R,1.198880X1.198880*%
%ADD13R,1.727200X1.727200*%
%ADD14O,1.727200X1.727200*%
%ADD15R,0.900000X1.200000*%
%ADD16R,1.200000X0.900000*%
%ADD17R,1.600000X0.300000*%
%ADD18R,0.300000X1.600000*%
%ADD19R,2.032000X3.657600*%
%ADD20R,2.032000X1.016000*%
%ADD21R,1.524000X1.524000*%
%ADD22R,2.032000X2.032000*%
%ADD23O,2.032000X2.032000*%
%ADD24R,2.032000X1.727200*%
%ADD25O,2.032000X1.727200*%
G04 APERTURE END LIST*
D10*
D11*
X229550000Y-60960000D03*
X227650000Y-60960000D03*
D12*
X191549020Y-40640000D03*
X189450980Y-40640000D03*
D13*
X196850000Y-80010000D03*
D14*
X196850000Y-77470000D03*
X199390000Y-80010000D03*
X199390000Y-77470000D03*
X201930000Y-80010000D03*
X201930000Y-77470000D03*
X204470000Y-80010000D03*
X204470000Y-77470000D03*
X207010000Y-80010000D03*
X207010000Y-77470000D03*
X209550000Y-80010000D03*
X209550000Y-77470000D03*
X212090000Y-80010000D03*
X212090000Y-77470000D03*
X214630000Y-80010000D03*
X214630000Y-77470000D03*
X217170000Y-80010000D03*
X217170000Y-77470000D03*
X219710000Y-80010000D03*
X219710000Y-77470000D03*
X222250000Y-80010000D03*
X222250000Y-77470000D03*
X224790000Y-80010000D03*
X224790000Y-77470000D03*
X227330000Y-80010000D03*
X227330000Y-77470000D03*
X229870000Y-80010000D03*
X229870000Y-77470000D03*
X232410000Y-80010000D03*
X232410000Y-77470000D03*
X234950000Y-80010000D03*
X234950000Y-77470000D03*
D15*
X189230000Y-36660000D03*
X189230000Y-34460000D03*
D16*
X227500000Y-64770000D03*
X229700000Y-64770000D03*
X227500000Y-62865000D03*
X229700000Y-62865000D03*
D17*
X201295000Y-48387000D03*
X201295000Y-48887000D03*
X201295000Y-49387000D03*
X201295000Y-49887000D03*
X201295000Y-50387000D03*
X201295000Y-50887000D03*
X201295000Y-51387000D03*
X201295000Y-51887000D03*
X201295000Y-52387000D03*
X201295000Y-52887000D03*
X201295000Y-53387000D03*
X201295000Y-53887000D03*
X201295000Y-54387000D03*
X201295000Y-54887000D03*
X201295000Y-55387000D03*
X201295000Y-55887000D03*
X201295000Y-56387000D03*
X201295000Y-56887000D03*
X201295000Y-57387000D03*
X201295000Y-57887000D03*
X201295000Y-58387000D03*
X201295000Y-58887000D03*
X201295000Y-59387000D03*
X201295000Y-59887000D03*
X201295000Y-60387000D03*
X201295000Y-60887000D03*
X201295000Y-61387000D03*
X201295000Y-61887000D03*
X201295000Y-62387000D03*
X201295000Y-62887000D03*
X201295000Y-63387000D03*
X201295000Y-63887000D03*
X201295000Y-64387000D03*
X201295000Y-64887000D03*
X201295000Y-65387000D03*
X201295000Y-65887000D03*
D18*
X203327000Y-67945000D03*
D17*
X222885000Y-65913000D03*
D18*
X203827000Y-67945000D03*
X204327000Y-67945000D03*
X204827000Y-67945000D03*
X205327000Y-67945000D03*
X205827000Y-67945000D03*
X206327000Y-67945000D03*
X206827000Y-67945000D03*
X207327000Y-67945000D03*
X207827000Y-67945000D03*
X208327000Y-67945000D03*
X208827000Y-67945000D03*
X209327000Y-67945000D03*
X209827000Y-67945000D03*
X210327000Y-67945000D03*
X210827000Y-67945000D03*
X211327000Y-67945000D03*
X211827000Y-67945000D03*
X212327000Y-67945000D03*
X212827000Y-67945000D03*
X213327000Y-67945000D03*
X213827000Y-67945000D03*
X214327000Y-67945000D03*
X214827000Y-67945000D03*
X215327000Y-67945000D03*
X215827000Y-67945000D03*
X216327000Y-67945000D03*
X216827000Y-67945000D03*
X217327000Y-67945000D03*
X217827000Y-67945000D03*
X218327000Y-67945000D03*
X218827000Y-67945000D03*
X219327000Y-67945000D03*
X219827000Y-67945000D03*
X220327000Y-67945000D03*
X220827000Y-67945000D03*
D17*
X222885000Y-65413000D03*
X222885000Y-64913000D03*
X222885000Y-64413000D03*
X222885000Y-63913000D03*
X222885000Y-63413000D03*
X222885000Y-62913000D03*
X222885000Y-62413000D03*
X222885000Y-61913000D03*
X222885000Y-61413000D03*
X222885000Y-60913000D03*
X222885000Y-60413000D03*
X222885000Y-59913000D03*
X222885000Y-59413000D03*
X222885000Y-58913000D03*
X222885000Y-58413000D03*
X222885000Y-57913000D03*
X222885000Y-57413000D03*
X222885000Y-56913000D03*
X222885000Y-56413000D03*
X222885000Y-55913000D03*
X222885000Y-55413000D03*
X222885000Y-54913000D03*
X222885000Y-54413000D03*
X222885000Y-53913000D03*
X222885000Y-53413000D03*
X222885000Y-52913000D03*
X222885000Y-52413000D03*
X222885000Y-51913000D03*
X222885000Y-51413000D03*
X222885000Y-50913000D03*
X222885000Y-50413000D03*
X222885000Y-49913000D03*
X222885000Y-49413000D03*
X222885000Y-48913000D03*
X222885000Y-48413000D03*
D18*
X220853000Y-46355000D03*
X220353000Y-46355000D03*
X219853000Y-46355000D03*
X219353000Y-46355000D03*
X218853000Y-46355000D03*
X218353000Y-46355000D03*
X217853000Y-46355000D03*
X217353000Y-46355000D03*
X216853000Y-46355000D03*
X216353000Y-46355000D03*
X215853000Y-46355000D03*
X215353000Y-46355000D03*
X214853000Y-46355000D03*
X214353000Y-46355000D03*
X213853000Y-46355000D03*
X213353000Y-46355000D03*
X212853000Y-46355000D03*
X212353000Y-46355000D03*
X211853000Y-46355000D03*
X211353000Y-46355000D03*
X210853000Y-46355000D03*
X210353000Y-46355000D03*
X209853000Y-46355000D03*
X209353000Y-46355000D03*
X208853000Y-46355000D03*
X208353000Y-46355000D03*
X207853000Y-46355000D03*
X207353000Y-46355000D03*
X206853000Y-46355000D03*
X206353000Y-46355000D03*
X205853000Y-46355000D03*
X205353000Y-46355000D03*
X204853000Y-46355000D03*
X204353000Y-46355000D03*
X203853000Y-46355000D03*
X203353000Y-46355000D03*
D19*
X189738000Y-46990000D03*
D20*
X196342000Y-46990000D03*
X196342000Y-44704000D03*
X196342000Y-49276000D03*
D19*
X189738000Y-67310000D03*
D20*
X196342000Y-67310000D03*
X196342000Y-65024000D03*
X196342000Y-69596000D03*
D21*
X229997000Y-58420000D03*
X229997000Y-55880000D03*
X227203000Y-55880000D03*
X227203000Y-58420000D03*
D22*
X192405000Y-36830000D03*
D23*
X192405000Y-34290000D03*
D13*
X234950000Y-34290000D03*
D14*
X234950000Y-36830000D03*
X232410000Y-34290000D03*
X232410000Y-36830000D03*
X229870000Y-34290000D03*
X229870000Y-36830000D03*
X227330000Y-34290000D03*
X227330000Y-36830000D03*
X224790000Y-34290000D03*
X224790000Y-36830000D03*
X222250000Y-34290000D03*
X222250000Y-36830000D03*
X219710000Y-34290000D03*
X219710000Y-36830000D03*
X217170000Y-34290000D03*
X217170000Y-36830000D03*
X214630000Y-34290000D03*
X214630000Y-36830000D03*
X212090000Y-34290000D03*
X212090000Y-36830000D03*
X209550000Y-34290000D03*
X209550000Y-36830000D03*
X207010000Y-34290000D03*
X207010000Y-36830000D03*
X204470000Y-34290000D03*
X204470000Y-36830000D03*
X201930000Y-34290000D03*
X201930000Y-36830000D03*
X199390000Y-34290000D03*
X199390000Y-36830000D03*
X196850000Y-34290000D03*
X196850000Y-36830000D03*
D24*
X234950000Y-50800000D03*
D25*
X234950000Y-53340000D03*
X234950000Y-55880000D03*
X234950000Y-58420000D03*
X234950000Y-60960000D03*
X234950000Y-63500000D03*
M02*
