G04 #@! TF.FileFunction,Copper,L2,Bot,Signal*
%FSLAX46Y46*%
G04 Gerber Fmt 4.6, Leading zero omitted, Abs format (unit mm)*
G04 Created by KiCad (PCBNEW (2015-05-28 BZR 5689)-product) date Wed Jul 29 02:52:55 2015*
%MOMM*%
G01*
G04 APERTURE LIST*
%ADD10C,0.100000*%
%ADD11R,1.200000X0.750000*%
%ADD12R,0.750000X1.200000*%
%ADD13R,1.500000X1.250000*%
%ADD14R,1.250000X1.500000*%
%ADD15R,0.600000X0.500000*%
%ADD16R,0.500000X0.600000*%
%ADD17R,1.727200X1.727200*%
%ADD18O,1.727200X1.727200*%
%ADD19R,0.900000X1.200000*%
%ADD20R,1.200000X0.900000*%
%ADD21R,2.032000X2.032000*%
%ADD22O,2.032000X2.032000*%
%ADD23R,2.032000X1.727200*%
%ADD24O,2.032000X1.727200*%
%ADD25C,0.685800*%
%ADD26C,0.203200*%
%ADD27C,0.508000*%
%ADD28C,0.254000*%
G04 APERTURE END LIST*
D10*
D11*
X193863000Y-44704000D03*
X191963000Y-44704000D03*
X193863000Y-65024000D03*
X191963000Y-65024000D03*
D12*
X194056000Y-67503000D03*
X194056000Y-69403000D03*
X191770000Y-47310000D03*
X191770000Y-49210000D03*
D13*
X198354000Y-57404000D03*
X195854000Y-57404000D03*
D14*
X210566000Y-70886000D03*
X210566000Y-73386000D03*
X212090000Y-43160000D03*
X212090000Y-40660000D03*
D15*
X225510000Y-57912000D03*
X226610000Y-57912000D03*
D16*
X210820000Y-48980000D03*
X210820000Y-50080000D03*
X213360000Y-48980000D03*
X213360000Y-50080000D03*
D15*
X225256000Y-64516000D03*
X226356000Y-64516000D03*
D16*
X205867000Y-65193000D03*
X205867000Y-64093000D03*
D15*
X198670000Y-50546000D03*
X197570000Y-50546000D03*
D13*
X204490000Y-56261000D03*
X206990000Y-56261000D03*
D16*
X215138000Y-48980000D03*
X215138000Y-50080000D03*
D15*
X220133000Y-59436000D03*
X219033000Y-59436000D03*
D16*
X216408000Y-65193000D03*
X216408000Y-64093000D03*
D15*
X198670000Y-55372000D03*
X197570000Y-55372000D03*
D13*
X198354000Y-65278000D03*
X195854000Y-65278000D03*
D14*
X206248000Y-43160000D03*
X206248000Y-40660000D03*
D13*
X225572000Y-49022000D03*
X228072000Y-49022000D03*
D14*
X216281000Y-70886000D03*
X216281000Y-73386000D03*
D13*
X198354000Y-62738000D03*
X195854000Y-62738000D03*
D14*
X212598000Y-64750000D03*
X212598000Y-62250000D03*
D13*
X219690000Y-56642000D03*
X217190000Y-56642000D03*
X219690000Y-61722000D03*
X217190000Y-61722000D03*
D14*
X215138000Y-43160000D03*
X215138000Y-40660000D03*
D17*
X196850000Y-80010000D03*
D18*
X196850000Y-77470000D03*
X199390000Y-80010000D03*
X199390000Y-77470000D03*
X201930000Y-80010000D03*
X201930000Y-77470000D03*
X204470000Y-80010000D03*
X204470000Y-77470000D03*
X207010000Y-80010000D03*
X207010000Y-77470000D03*
X209550000Y-80010000D03*
X209550000Y-77470000D03*
X212090000Y-80010000D03*
X212090000Y-77470000D03*
X214630000Y-80010000D03*
X214630000Y-77470000D03*
X217170000Y-80010000D03*
X217170000Y-77470000D03*
X219710000Y-80010000D03*
X219710000Y-77470000D03*
X222250000Y-80010000D03*
X222250000Y-77470000D03*
X224790000Y-80010000D03*
X224790000Y-77470000D03*
X227330000Y-80010000D03*
X227330000Y-77470000D03*
X229870000Y-80010000D03*
X229870000Y-77470000D03*
X232410000Y-80010000D03*
X232410000Y-77470000D03*
X234950000Y-80010000D03*
X234950000Y-77470000D03*
D19*
X193929000Y-49360000D03*
X193929000Y-47160000D03*
D20*
X229532000Y-53340000D03*
X231732000Y-53340000D03*
X229532000Y-60960000D03*
X231732000Y-60960000D03*
D21*
X192405000Y-36830000D03*
D22*
X192405000Y-34290000D03*
D17*
X234950000Y-34290000D03*
D18*
X234950000Y-36830000D03*
X232410000Y-34290000D03*
X232410000Y-36830000D03*
X229870000Y-34290000D03*
X229870000Y-36830000D03*
X227330000Y-34290000D03*
X227330000Y-36830000D03*
X224790000Y-34290000D03*
X224790000Y-36830000D03*
X222250000Y-34290000D03*
X222250000Y-36830000D03*
X219710000Y-34290000D03*
X219710000Y-36830000D03*
X217170000Y-34290000D03*
X217170000Y-36830000D03*
X214630000Y-34290000D03*
X214630000Y-36830000D03*
X212090000Y-34290000D03*
X212090000Y-36830000D03*
X209550000Y-34290000D03*
X209550000Y-36830000D03*
X207010000Y-34290000D03*
X207010000Y-36830000D03*
X204470000Y-34290000D03*
X204470000Y-36830000D03*
X201930000Y-34290000D03*
X201930000Y-36830000D03*
X199390000Y-34290000D03*
X199390000Y-36830000D03*
X196850000Y-34290000D03*
X196850000Y-36830000D03*
D23*
X234950000Y-50800000D03*
D24*
X234950000Y-53340000D03*
X234950000Y-55880000D03*
X234950000Y-58420000D03*
X234950000Y-60960000D03*
X234950000Y-63500000D03*
D25*
X194183000Y-63627000D03*
X194056000Y-43434000D03*
X221361000Y-63627000D03*
X209296000Y-66294000D03*
X218821000Y-66294000D03*
X222631000Y-47498000D03*
X218821000Y-48006000D03*
X198628000Y-69596000D03*
X198755000Y-49276000D03*
X212090000Y-66548000D03*
X210185000Y-47879000D03*
X207137000Y-47942500D03*
X199872600Y-60401200D03*
X199923400Y-54381400D03*
X231140000Y-64897000D03*
X230632000Y-61976000D03*
X225806000Y-54914800D03*
X221462600Y-56210200D03*
X231394000Y-55880000D03*
X224917000Y-50673000D03*
X192659000Y-67310000D03*
X199898000Y-50292000D03*
X199771000Y-56388000D03*
X204216000Y-54864000D03*
X199771000Y-65913000D03*
X199771000Y-63373000D03*
X206883000Y-65024000D03*
X211455000Y-65024000D03*
X215392000Y-65024000D03*
X219964000Y-55245000D03*
X219964000Y-60325000D03*
X219964000Y-62992000D03*
X207645000Y-44196000D03*
X209740500Y-49276000D03*
X213360000Y-47879000D03*
X215138000Y-47879000D03*
X224256600Y-64287400D03*
X225272600Y-62865000D03*
X203200000Y-61849000D03*
X212090000Y-48260000D03*
X210566000Y-66040000D03*
X201930000Y-46990000D03*
X220980000Y-58166000D03*
X194818000Y-46990000D03*
X199898000Y-57785000D03*
X211074000Y-69469000D03*
X224409000Y-57912000D03*
X211201000Y-44831000D03*
X221488000Y-46736000D03*
X219583000Y-49911000D03*
X223520000Y-66802000D03*
X227457000Y-66167000D03*
X220789500Y-48069500D03*
X220281500Y-48895000D03*
D26*
X193863000Y-65024000D02*
X193863000Y-63947000D01*
X193863000Y-63947000D02*
X194183000Y-63627000D01*
X193863000Y-44704000D02*
X193863000Y-43627000D01*
X193863000Y-43627000D02*
X194056000Y-43434000D01*
X225044000Y-50800000D02*
X234950000Y-50800000D01*
X224917000Y-50673000D02*
X225044000Y-50800000D01*
D27*
X194056000Y-67503000D02*
X192852000Y-67503000D01*
X192852000Y-67503000D02*
X192659000Y-67310000D01*
D26*
X199898000Y-50292000D02*
X199644000Y-50546000D01*
X199644000Y-50546000D02*
X198670000Y-50546000D01*
X199771000Y-56388000D02*
X199686000Y-56388000D01*
X199686000Y-56388000D02*
X198670000Y-55372000D01*
X204216000Y-55987000D02*
X204216000Y-54864000D01*
X204490000Y-56261000D02*
X204216000Y-55987000D01*
X199771000Y-65913000D02*
X199136000Y-65278000D01*
X199136000Y-65278000D02*
X198354000Y-65278000D01*
X199771000Y-63373000D02*
X199136000Y-62738000D01*
X199136000Y-62738000D02*
X198354000Y-62738000D01*
X206036000Y-65024000D02*
X206883000Y-65024000D01*
X205867000Y-65193000D02*
X206036000Y-65024000D01*
X212324000Y-65024000D02*
X211455000Y-65024000D01*
X212598000Y-64750000D02*
X212324000Y-65024000D01*
X216408000Y-70759000D02*
X216408000Y-65193000D01*
X216281000Y-70886000D02*
X216408000Y-70759000D01*
X216239000Y-65024000D02*
X215392000Y-65024000D01*
X216408000Y-65193000D02*
X216239000Y-65024000D01*
X219964000Y-56368000D02*
X219964000Y-55245000D01*
X219690000Y-56642000D02*
X219964000Y-56368000D01*
X219964000Y-59605000D02*
X219964000Y-60325000D01*
X220133000Y-59436000D02*
X219964000Y-59605000D01*
X219964000Y-61996000D02*
X219964000Y-62992000D01*
X219690000Y-61722000D02*
X219964000Y-61996000D01*
X207284000Y-44196000D02*
X207645000Y-44196000D01*
X206248000Y-43160000D02*
X207284000Y-44196000D01*
X210524000Y-49276000D02*
X209740500Y-49276000D01*
X210820000Y-48980000D02*
X210524000Y-49276000D01*
X213360000Y-48980000D02*
X213360000Y-47879000D01*
X215138000Y-48980000D02*
X215138000Y-47879000D01*
X215138000Y-43160000D02*
X215138000Y-47879000D01*
X225552000Y-50038000D02*
X224917000Y-50673000D01*
X225552000Y-49042000D02*
X225552000Y-50038000D01*
X225572000Y-49022000D02*
X225552000Y-49042000D01*
X225027400Y-64287400D02*
X225256000Y-64516000D01*
X224256600Y-64287400D02*
X225027400Y-64287400D01*
X225272600Y-64499400D02*
X225272600Y-62865000D01*
X225256000Y-64516000D02*
X225272600Y-64499400D01*
D27*
X212090000Y-57150000D02*
X208407000Y-60833000D01*
X207391000Y-61849000D02*
X203200000Y-61849000D01*
X208407000Y-60833000D02*
X207391000Y-61849000D01*
X212090000Y-57150000D02*
X212090000Y-48260000D01*
X212090000Y-57150000D02*
X210566000Y-58674000D01*
X210566000Y-58674000D02*
X210566000Y-66040000D01*
X212090000Y-57150000D02*
X213106000Y-58166000D01*
X201930000Y-46990000D02*
X212090000Y-57150000D01*
X213106000Y-58166000D02*
X220980000Y-58166000D01*
X193929000Y-47160000D02*
X194648000Y-47160000D01*
X194648000Y-47160000D02*
X194818000Y-46990000D01*
X191770000Y-47310000D02*
X192593000Y-47310000D01*
X192743000Y-47160000D02*
X193929000Y-47160000D01*
X192593000Y-47310000D02*
X192743000Y-47160000D01*
D26*
X198735000Y-57785000D02*
X198354000Y-57404000D01*
X199898000Y-57785000D02*
X198735000Y-57785000D01*
D27*
X211455000Y-57785000D02*
X199898000Y-57785000D01*
X212090000Y-57150000D02*
X211455000Y-57785000D01*
D26*
X211074000Y-70378000D02*
X210566000Y-70886000D01*
X211074000Y-69469000D02*
X211074000Y-70378000D01*
X224409000Y-57912000D02*
X225510000Y-57912000D01*
X211201000Y-44831000D02*
X211201000Y-44049000D01*
X211201000Y-44049000D02*
X212090000Y-43160000D01*
X221488000Y-52070000D02*
X221488000Y-52324000D01*
X222504000Y-53340000D02*
X221488000Y-52324000D01*
X222504000Y-53340000D02*
X229532000Y-53340000D01*
X221488000Y-46736000D02*
X221488000Y-52070000D01*
X221488000Y-52070000D02*
X221488000Y-52197000D01*
X225615500Y-56832500D02*
X225679000Y-56896000D01*
X227711000Y-57150000D02*
X227711000Y-59182000D01*
X227457000Y-56896000D02*
X227711000Y-57150000D01*
X225679000Y-56896000D02*
X227457000Y-56896000D01*
X221424500Y-55054500D02*
X223837500Y-55054500D01*
X223837500Y-55054500D02*
X225615500Y-56832500D01*
X227711000Y-59182000D02*
X227711000Y-60198000D01*
X227711000Y-60198000D02*
X228473000Y-60960000D01*
X219583000Y-53213000D02*
X219583000Y-49911000D01*
X221424500Y-55054500D02*
X219583000Y-53213000D01*
X229532000Y-60960000D02*
X228473000Y-60960000D01*
X223520000Y-66802000D02*
X226822000Y-66802000D01*
X226822000Y-66802000D02*
X227457000Y-66167000D01*
X231732000Y-53340000D02*
X234950000Y-53340000D01*
X222250000Y-53975000D02*
X228346000Y-53975000D01*
X228346000Y-53975000D02*
X228854000Y-54483000D01*
X220980000Y-52705000D02*
X222250000Y-53975000D01*
X220980000Y-48260000D02*
X220980000Y-52705000D01*
X220789500Y-48069500D02*
X220980000Y-48260000D01*
X233172000Y-55880000D02*
X232537000Y-55245000D01*
X232537000Y-55245000D02*
X232537000Y-54864000D01*
X232537000Y-54864000D02*
X232156000Y-54483000D01*
X232156000Y-54483000D02*
X228854000Y-54483000D01*
X234950000Y-55880000D02*
X233172000Y-55880000D01*
X221837250Y-54514750D02*
X224059750Y-54514750D01*
X224059750Y-54514750D02*
X225901250Y-56356250D01*
X225901250Y-56356250D02*
X227679250Y-56356250D01*
X227679250Y-56356250D02*
X228219000Y-56896000D01*
X220281500Y-48895000D02*
X220281500Y-52959000D01*
X220281500Y-52959000D02*
X221837250Y-54514750D01*
X229870000Y-58420000D02*
X234950000Y-58420000D01*
X228473000Y-58420000D02*
X228219000Y-58166000D01*
X228219000Y-58166000D02*
X228219000Y-56896000D01*
X229870000Y-58420000D02*
X228473000Y-58420000D01*
X234950000Y-60960000D02*
X231732000Y-60960000D01*
D28*
G36*
X234020365Y-57150000D02*
X233705585Y-57360330D01*
X233489716Y-57683400D01*
X229870000Y-57683400D01*
X228955600Y-57683400D01*
X228955600Y-56896000D01*
X228899530Y-56614116D01*
X228899530Y-56614115D01*
X228739855Y-56375145D01*
X228200105Y-55835395D01*
X227961135Y-55675720D01*
X227679250Y-55619650D01*
X226206360Y-55619650D01*
X225298310Y-54711600D01*
X228040890Y-54711600D01*
X228333145Y-55003855D01*
X228572115Y-55163530D01*
X228854000Y-55219600D01*
X231800400Y-55219600D01*
X231800400Y-55245000D01*
X231856470Y-55526885D01*
X232016145Y-55765855D01*
X232651145Y-56400855D01*
X232890115Y-56560530D01*
X232890116Y-56560530D01*
X233172000Y-56616600D01*
X233489716Y-56616600D01*
X233705585Y-56939670D01*
X234020365Y-57150000D01*
X234020365Y-57150000D01*
G37*
X234020365Y-57150000D02*
X233705585Y-57360330D01*
X233489716Y-57683400D01*
X229870000Y-57683400D01*
X228955600Y-57683400D01*
X228955600Y-56896000D01*
X228899530Y-56614116D01*
X228899530Y-56614115D01*
X228739855Y-56375145D01*
X228200105Y-55835395D01*
X227961135Y-55675720D01*
X227679250Y-55619650D01*
X226206360Y-55619650D01*
X225298310Y-54711600D01*
X228040890Y-54711600D01*
X228333145Y-55003855D01*
X228572115Y-55163530D01*
X228854000Y-55219600D01*
X231800400Y-55219600D01*
X231800400Y-55245000D01*
X231856470Y-55526885D01*
X232016145Y-55765855D01*
X232651145Y-56400855D01*
X232890115Y-56560530D01*
X232890116Y-56560530D01*
X233172000Y-56616600D01*
X233489716Y-56616600D01*
X233705585Y-56939670D01*
X234020365Y-57150000D01*
G36*
X236601000Y-81661000D02*
X236557358Y-81661000D01*
X236448600Y-81661000D01*
X236448600Y-80039359D01*
X236448600Y-79980641D01*
X236334526Y-79407152D01*
X236009670Y-78920971D01*
X235738827Y-78740000D01*
X236009670Y-78559029D01*
X236334526Y-78072848D01*
X236448600Y-77499359D01*
X236448600Y-77440641D01*
X236334526Y-76867152D01*
X236009670Y-76380971D01*
X235523489Y-76056115D01*
X234950000Y-75942041D01*
X234823000Y-75967302D01*
X234823000Y-64840924D01*
X234823000Y-63627000D01*
X233463783Y-63627000D01*
X233342642Y-63859026D01*
X233345291Y-63874791D01*
X233599268Y-64402036D01*
X234035680Y-64791954D01*
X234588087Y-64985184D01*
X234823000Y-64840924D01*
X234823000Y-75967302D01*
X234376511Y-76056115D01*
X233890330Y-76380971D01*
X233680000Y-76695751D01*
X233469670Y-76380971D01*
X232983489Y-76056115D01*
X232410000Y-75942041D01*
X231836511Y-76056115D01*
X231350330Y-76380971D01*
X231140000Y-76695751D01*
X230929670Y-76380971D01*
X230443489Y-76056115D01*
X229870000Y-75942041D01*
X229296511Y-76056115D01*
X228810330Y-76380971D01*
X228600000Y-76695751D01*
X228435069Y-76448915D01*
X228435069Y-65973337D01*
X228286507Y-65613788D01*
X228011659Y-65338460D01*
X227652370Y-65189270D01*
X227263337Y-65188931D01*
X227037978Y-65282047D01*
X227194327Y-65125699D01*
X227291000Y-64892310D01*
X227291000Y-64799750D01*
X227291000Y-64232250D01*
X227291000Y-64139690D01*
X227194327Y-63906301D01*
X227015698Y-63727673D01*
X226782309Y-63631000D01*
X226641750Y-63631000D01*
X226483000Y-63789750D01*
X226483000Y-64391000D01*
X227132250Y-64391000D01*
X227291000Y-64232250D01*
X227291000Y-64799750D01*
X227132250Y-64641000D01*
X226483000Y-64641000D01*
X226483000Y-65242250D01*
X226641750Y-65401000D01*
X226782309Y-65401000D01*
X226881206Y-65360035D01*
X226628460Y-65612341D01*
X226479270Y-65971630D01*
X226479188Y-66065400D01*
X226250669Y-66065400D01*
X226250669Y-62671337D01*
X226102107Y-62311788D01*
X225827259Y-62036460D01*
X225467970Y-61887270D01*
X225078937Y-61886931D01*
X224719388Y-62035493D01*
X224444060Y-62310341D01*
X224294870Y-62669630D01*
X224294531Y-63058663D01*
X224398225Y-63309623D01*
X224062937Y-63309331D01*
X223703388Y-63457893D01*
X223428060Y-63732741D01*
X223278870Y-64092030D01*
X223278531Y-64481063D01*
X223427093Y-64840612D01*
X223701941Y-65115940D01*
X224061230Y-65265130D01*
X224450263Y-65265469D01*
X224519147Y-65237006D01*
X224706360Y-65363377D01*
X224956000Y-65413440D01*
X225556000Y-65413440D01*
X225798123Y-65366463D01*
X225816758Y-65354221D01*
X225929691Y-65401000D01*
X226070250Y-65401000D01*
X226229000Y-65242250D01*
X226229000Y-64641000D01*
X226209000Y-64641000D01*
X226209000Y-64391000D01*
X226229000Y-64391000D01*
X226229000Y-63789750D01*
X226070250Y-63631000D01*
X226009200Y-63631000D01*
X226009200Y-63511438D01*
X226101140Y-63419659D01*
X226250330Y-63060370D01*
X226250669Y-62671337D01*
X226250669Y-66065400D01*
X224166438Y-66065400D01*
X224074659Y-65973460D01*
X223715370Y-65824270D01*
X223326337Y-65823931D01*
X222966788Y-65972493D01*
X222691460Y-66247341D01*
X222542270Y-66606630D01*
X222541931Y-66995663D01*
X222690493Y-67355212D01*
X222965341Y-67630540D01*
X223324630Y-67779730D01*
X223713663Y-67780069D01*
X224073212Y-67631507D01*
X224166281Y-67538600D01*
X226822000Y-67538600D01*
X227103885Y-67482530D01*
X227342855Y-67322855D01*
X227520754Y-67144955D01*
X227650663Y-67145069D01*
X228010212Y-66996507D01*
X228285540Y-66721659D01*
X228434730Y-66362370D01*
X228435069Y-65973337D01*
X228435069Y-76448915D01*
X228389670Y-76380971D01*
X227903489Y-76056115D01*
X227330000Y-75942041D01*
X226756511Y-76056115D01*
X226270330Y-76380971D01*
X226060000Y-76695751D01*
X225849670Y-76380971D01*
X225363489Y-76056115D01*
X224790000Y-75942041D01*
X224216511Y-76056115D01*
X223730330Y-76380971D01*
X223520000Y-76695751D01*
X223309670Y-76380971D01*
X222823489Y-76056115D01*
X222250000Y-75942041D01*
X221676511Y-76056115D01*
X221190330Y-76380971D01*
X220980000Y-76695751D01*
X220769670Y-76380971D01*
X220283489Y-76056115D01*
X219710000Y-75942041D01*
X219136511Y-76056115D01*
X218650330Y-76380971D01*
X218440000Y-76695751D01*
X218229670Y-76380971D01*
X217743489Y-76056115D01*
X217553440Y-76018311D01*
X217553440Y-71636000D01*
X217553440Y-70136000D01*
X217506463Y-69893877D01*
X217366673Y-69681073D01*
X217155640Y-69538623D01*
X217144600Y-69536409D01*
X217144600Y-65906750D01*
X217255377Y-65742640D01*
X217305440Y-65493000D01*
X217305440Y-64893000D01*
X217258463Y-64650877D01*
X217246221Y-64632241D01*
X217293000Y-64519309D01*
X217293000Y-64378750D01*
X217293000Y-63807250D01*
X217293000Y-63666691D01*
X217196327Y-63433302D01*
X217063000Y-63299974D01*
X217063000Y-62823250D01*
X217063000Y-61849000D01*
X217063000Y-61595000D01*
X217063000Y-60620750D01*
X216904250Y-60462000D01*
X216313691Y-60462000D01*
X216080302Y-60558673D01*
X215901673Y-60737301D01*
X215805000Y-60970690D01*
X215805000Y-61223309D01*
X215805000Y-61436250D01*
X215963750Y-61595000D01*
X217063000Y-61595000D01*
X217063000Y-61849000D01*
X215963750Y-61849000D01*
X215805000Y-62007750D01*
X215805000Y-62220691D01*
X215805000Y-62473310D01*
X215901673Y-62706699D01*
X216080302Y-62885327D01*
X216313691Y-62982000D01*
X216904250Y-62982000D01*
X217063000Y-62823250D01*
X217063000Y-63299974D01*
X217017699Y-63254673D01*
X216784310Y-63158000D01*
X216691750Y-63158000D01*
X216533000Y-63316750D01*
X216533000Y-63966000D01*
X217134250Y-63966000D01*
X217293000Y-63807250D01*
X217293000Y-64378750D01*
X217134250Y-64220000D01*
X216533000Y-64220000D01*
X216533000Y-64240000D01*
X216283000Y-64240000D01*
X216283000Y-64220000D01*
X216261000Y-64220000D01*
X216261000Y-63966000D01*
X216283000Y-63966000D01*
X216283000Y-63316750D01*
X216124250Y-63158000D01*
X216031690Y-63158000D01*
X215798301Y-63254673D01*
X215619673Y-63433302D01*
X215523000Y-63666691D01*
X215523000Y-63807250D01*
X215681748Y-63965998D01*
X215523000Y-63965998D01*
X215523000Y-64046213D01*
X215198337Y-64045931D01*
X214838788Y-64194493D01*
X214563460Y-64469341D01*
X214414270Y-64828630D01*
X214413931Y-65217663D01*
X214562493Y-65577212D01*
X214837341Y-65852540D01*
X215196630Y-66001730D01*
X215585663Y-66002069D01*
X215671400Y-65966643D01*
X215671400Y-69488560D01*
X215656000Y-69488560D01*
X215413877Y-69535537D01*
X215201073Y-69675327D01*
X215058623Y-69886360D01*
X215008560Y-70136000D01*
X215008560Y-71636000D01*
X215055537Y-71878123D01*
X215195327Y-72090927D01*
X215259637Y-72134337D01*
X215117673Y-72276302D01*
X215021000Y-72509691D01*
X215021000Y-73100250D01*
X215179750Y-73259000D01*
X216154000Y-73259000D01*
X216154000Y-73239000D01*
X216408000Y-73239000D01*
X216408000Y-73259000D01*
X217382250Y-73259000D01*
X217541000Y-73100250D01*
X217541000Y-72509691D01*
X217444327Y-72276302D01*
X217302849Y-72134823D01*
X217360927Y-72096673D01*
X217503377Y-71885640D01*
X217553440Y-71636000D01*
X217553440Y-76018311D01*
X217541000Y-76015837D01*
X217541000Y-74262309D01*
X217541000Y-73671750D01*
X217382250Y-73513000D01*
X216408000Y-73513000D01*
X216408000Y-74612250D01*
X216566750Y-74771000D01*
X216779691Y-74771000D01*
X217032310Y-74771000D01*
X217265699Y-74674327D01*
X217444327Y-74495698D01*
X217541000Y-74262309D01*
X217541000Y-76015837D01*
X217170000Y-75942041D01*
X216596511Y-76056115D01*
X216154000Y-76351791D01*
X216154000Y-74612250D01*
X216154000Y-73513000D01*
X215179750Y-73513000D01*
X215021000Y-73671750D01*
X215021000Y-74262309D01*
X215117673Y-74495698D01*
X215296301Y-74674327D01*
X215529690Y-74771000D01*
X215782309Y-74771000D01*
X215995250Y-74771000D01*
X216154000Y-74612250D01*
X216154000Y-76351791D01*
X216110330Y-76380971D01*
X215900000Y-76695751D01*
X215689670Y-76380971D01*
X215203489Y-76056115D01*
X214630000Y-75942041D01*
X214056511Y-76056115D01*
X213570330Y-76380971D01*
X213360000Y-76695751D01*
X213149670Y-76380971D01*
X212663489Y-76056115D01*
X212090000Y-75942041D01*
X212052069Y-75949585D01*
X212052069Y-69275337D01*
X211903507Y-68915788D01*
X211628659Y-68640460D01*
X211269370Y-68491270D01*
X210880337Y-68490931D01*
X210520788Y-68639493D01*
X210245460Y-68914341D01*
X210096270Y-69273630D01*
X210096082Y-69488560D01*
X209941000Y-69488560D01*
X209698877Y-69535537D01*
X209486073Y-69675327D01*
X209343623Y-69886360D01*
X209293560Y-70136000D01*
X209293560Y-71636000D01*
X209340537Y-71878123D01*
X209480327Y-72090927D01*
X209544637Y-72134337D01*
X209402673Y-72276302D01*
X209306000Y-72509691D01*
X209306000Y-73100250D01*
X209464750Y-73259000D01*
X210439000Y-73259000D01*
X210439000Y-73239000D01*
X210693000Y-73239000D01*
X210693000Y-73259000D01*
X211667250Y-73259000D01*
X211826000Y-73100250D01*
X211826000Y-72509691D01*
X211729327Y-72276302D01*
X211587849Y-72134823D01*
X211645927Y-72096673D01*
X211788377Y-71885640D01*
X211838440Y-71636000D01*
X211838440Y-70136000D01*
X211830580Y-70095492D01*
X211902540Y-70023659D01*
X212051730Y-69664370D01*
X212052069Y-69275337D01*
X212052069Y-75949585D01*
X211826000Y-75994553D01*
X211826000Y-74262309D01*
X211826000Y-73671750D01*
X211667250Y-73513000D01*
X210693000Y-73513000D01*
X210693000Y-74612250D01*
X210851750Y-74771000D01*
X211064691Y-74771000D01*
X211317310Y-74771000D01*
X211550699Y-74674327D01*
X211729327Y-74495698D01*
X211826000Y-74262309D01*
X211826000Y-75994553D01*
X211516511Y-76056115D01*
X211030330Y-76380971D01*
X210820000Y-76695751D01*
X210609670Y-76380971D01*
X210439000Y-76266932D01*
X210439000Y-74612250D01*
X210439000Y-73513000D01*
X209464750Y-73513000D01*
X209306000Y-73671750D01*
X209306000Y-74262309D01*
X209402673Y-74495698D01*
X209581301Y-74674327D01*
X209814690Y-74771000D01*
X210067309Y-74771000D01*
X210280250Y-74771000D01*
X210439000Y-74612250D01*
X210439000Y-76266932D01*
X210123489Y-76056115D01*
X209550000Y-75942041D01*
X208976511Y-76056115D01*
X208490330Y-76380971D01*
X208280000Y-76695751D01*
X208069670Y-76380971D01*
X207861069Y-76241588D01*
X207861069Y-64830337D01*
X207712507Y-64470788D01*
X207437659Y-64195460D01*
X207078370Y-64046270D01*
X206752000Y-64045985D01*
X206752000Y-63965998D01*
X206593252Y-63965998D01*
X206752000Y-63807250D01*
X206752000Y-63666691D01*
X206655327Y-63433302D01*
X206476699Y-63254673D01*
X206243310Y-63158000D01*
X206150750Y-63158000D01*
X205992000Y-63316750D01*
X205992000Y-63966000D01*
X206014000Y-63966000D01*
X206014000Y-64220000D01*
X205992000Y-64220000D01*
X205992000Y-64240000D01*
X205742000Y-64240000D01*
X205742000Y-64220000D01*
X205742000Y-63966000D01*
X205742000Y-63316750D01*
X205583250Y-63158000D01*
X205490690Y-63158000D01*
X205257301Y-63254673D01*
X205078673Y-63433302D01*
X204982000Y-63666691D01*
X204982000Y-63807250D01*
X205140750Y-63966000D01*
X205742000Y-63966000D01*
X205742000Y-64220000D01*
X205140750Y-64220000D01*
X204982000Y-64378750D01*
X204982000Y-64519309D01*
X205028150Y-64630726D01*
X205019623Y-64643360D01*
X204969560Y-64893000D01*
X204969560Y-65493000D01*
X205016537Y-65735123D01*
X205156327Y-65947927D01*
X205367360Y-66090377D01*
X205617000Y-66140440D01*
X206117000Y-66140440D01*
X206359123Y-66093463D01*
X206571915Y-65953680D01*
X206687630Y-66001730D01*
X207076663Y-66002069D01*
X207436212Y-65853507D01*
X207711540Y-65578659D01*
X207860730Y-65219370D01*
X207861069Y-64830337D01*
X207861069Y-76241588D01*
X207583489Y-76056115D01*
X207010000Y-75942041D01*
X206436511Y-76056115D01*
X205950330Y-76380971D01*
X205740000Y-76695751D01*
X205529670Y-76380971D01*
X205043489Y-76056115D01*
X204470000Y-75942041D01*
X203896511Y-76056115D01*
X203410330Y-76380971D01*
X203200000Y-76695751D01*
X202989670Y-76380971D01*
X202503489Y-76056115D01*
X201930000Y-75942041D01*
X201356511Y-76056115D01*
X200870330Y-76380971D01*
X200749069Y-76562450D01*
X200749069Y-65719337D01*
X200600507Y-65359788D01*
X200325659Y-65084460D01*
X199966370Y-64935270D01*
X199834865Y-64935155D01*
X199751440Y-64851730D01*
X199751440Y-64653000D01*
X199704463Y-64410877D01*
X199665003Y-64350807D01*
X199964663Y-64351069D01*
X200324212Y-64202507D01*
X200599540Y-63927659D01*
X200748730Y-63568370D01*
X200749069Y-63179337D01*
X200600507Y-62819788D01*
X200325659Y-62544460D01*
X199966370Y-62395270D01*
X199834865Y-62395155D01*
X199751440Y-62311730D01*
X199751440Y-62113000D01*
X199704463Y-61870877D01*
X199564673Y-61658073D01*
X199353640Y-61515623D01*
X199104000Y-61465560D01*
X197604000Y-61465560D01*
X197361877Y-61512537D01*
X197149073Y-61652327D01*
X197105662Y-61716637D01*
X196963698Y-61574673D01*
X196730309Y-61478000D01*
X196139750Y-61478000D01*
X195981000Y-61636750D01*
X195981000Y-62611000D01*
X196001000Y-62611000D01*
X196001000Y-62865000D01*
X195981000Y-62865000D01*
X195981000Y-63839250D01*
X196139750Y-63998000D01*
X196730309Y-63998000D01*
X196963698Y-63901327D01*
X197105176Y-63759849D01*
X197143327Y-63817927D01*
X197354360Y-63960377D01*
X197591631Y-64007959D01*
X197361877Y-64052537D01*
X197149073Y-64192327D01*
X197105662Y-64256637D01*
X196963698Y-64114673D01*
X196730309Y-64018000D01*
X196139750Y-64018000D01*
X195981000Y-64176750D01*
X195981000Y-65151000D01*
X196001000Y-65151000D01*
X196001000Y-65405000D01*
X195981000Y-65405000D01*
X195981000Y-66379250D01*
X196139750Y-66538000D01*
X196730309Y-66538000D01*
X196963698Y-66441327D01*
X197105176Y-66299849D01*
X197143327Y-66357927D01*
X197354360Y-66500377D01*
X197604000Y-66550440D01*
X199025574Y-66550440D01*
X199216341Y-66741540D01*
X199575630Y-66890730D01*
X199964663Y-66891069D01*
X200324212Y-66742507D01*
X200599540Y-66467659D01*
X200748730Y-66108370D01*
X200749069Y-65719337D01*
X200749069Y-76562450D01*
X200660000Y-76695751D01*
X200449670Y-76380971D01*
X199963489Y-76056115D01*
X199390000Y-75942041D01*
X198816511Y-76056115D01*
X198330330Y-76380971D01*
X198120000Y-76695751D01*
X197909670Y-76380971D01*
X197423489Y-76056115D01*
X196850000Y-75942041D01*
X196276511Y-76056115D01*
X195796069Y-76377136D01*
X195796069Y-46796337D01*
X195647507Y-46436788D01*
X195372659Y-46161460D01*
X195110440Y-46052577D01*
X195110440Y-45079000D01*
X195110440Y-44329000D01*
X195063463Y-44086877D01*
X194928848Y-43881951D01*
X195033730Y-43629370D01*
X195034069Y-43240337D01*
X194885507Y-42880788D01*
X194610659Y-42605460D01*
X194251370Y-42456270D01*
X194068440Y-42456110D01*
X194068440Y-37846000D01*
X194068440Y-35814000D01*
X194021463Y-35571877D01*
X193881673Y-35359073D01*
X193721956Y-35251262D01*
X193811385Y-35154818D01*
X194010975Y-34672944D01*
X194010975Y-33907056D01*
X193811385Y-33425182D01*
X193373379Y-32952812D01*
X192787946Y-32684017D01*
X192532000Y-32802633D01*
X192532000Y-34163000D01*
X193891836Y-34163000D01*
X194010975Y-33907056D01*
X194010975Y-34672944D01*
X193891836Y-34417000D01*
X192532000Y-34417000D01*
X192532000Y-34437000D01*
X192278000Y-34437000D01*
X192278000Y-34417000D01*
X192278000Y-34163000D01*
X192278000Y-32802633D01*
X192022054Y-32684017D01*
X191436621Y-32952812D01*
X190998615Y-33425182D01*
X190799025Y-33907056D01*
X190918164Y-34163000D01*
X192278000Y-34163000D01*
X192278000Y-34417000D01*
X190918164Y-34417000D01*
X190799025Y-34672944D01*
X190998615Y-35154818D01*
X191088574Y-35251835D01*
X190934073Y-35353327D01*
X190791623Y-35564360D01*
X190741560Y-35814000D01*
X190741560Y-37846000D01*
X190788537Y-38088123D01*
X190928327Y-38300927D01*
X191139360Y-38443377D01*
X191389000Y-38493440D01*
X193421000Y-38493440D01*
X193663123Y-38446463D01*
X193875927Y-38306673D01*
X194018377Y-38095640D01*
X194068440Y-37846000D01*
X194068440Y-42456110D01*
X193862337Y-42455931D01*
X193502788Y-42604493D01*
X193227460Y-42879341D01*
X193078270Y-43238630D01*
X193077931Y-43627663D01*
X193112283Y-43710802D01*
X193020877Y-43728537D01*
X192924120Y-43792095D01*
X192922698Y-43790673D01*
X192689309Y-43694000D01*
X192248750Y-43694000D01*
X192090000Y-43852750D01*
X192090000Y-44577000D01*
X192110000Y-44577000D01*
X192110000Y-44831000D01*
X192090000Y-44831000D01*
X192090000Y-45555250D01*
X192248750Y-45714000D01*
X192689309Y-45714000D01*
X192922698Y-45617327D01*
X192923980Y-45616044D01*
X193013360Y-45676377D01*
X193263000Y-45726440D01*
X194463000Y-45726440D01*
X194705123Y-45679463D01*
X194917927Y-45539673D01*
X195060377Y-45328640D01*
X195110440Y-45079000D01*
X195110440Y-46052577D01*
X195013370Y-46012270D01*
X194701787Y-46011998D01*
X194628640Y-45962623D01*
X194379000Y-45912560D01*
X193479000Y-45912560D01*
X193236877Y-45959537D01*
X193024073Y-46099327D01*
X192908191Y-46271000D01*
X192743000Y-46271000D01*
X192630796Y-46293318D01*
X192605673Y-46255073D01*
X192394640Y-46112623D01*
X192145000Y-46062560D01*
X191836000Y-46062560D01*
X191836000Y-45555250D01*
X191836000Y-44831000D01*
X191836000Y-44577000D01*
X191836000Y-43852750D01*
X191677250Y-43694000D01*
X191236691Y-43694000D01*
X191003302Y-43790673D01*
X190824673Y-43969301D01*
X190728000Y-44202690D01*
X190728000Y-44418250D01*
X190886750Y-44577000D01*
X191836000Y-44577000D01*
X191836000Y-44831000D01*
X190886750Y-44831000D01*
X190728000Y-44989750D01*
X190728000Y-45205310D01*
X190824673Y-45438699D01*
X191003302Y-45617327D01*
X191236691Y-45714000D01*
X191677250Y-45714000D01*
X191836000Y-45555250D01*
X191836000Y-46062560D01*
X191395000Y-46062560D01*
X191152877Y-46109537D01*
X190940073Y-46249327D01*
X190797623Y-46460360D01*
X190747560Y-46710000D01*
X190747560Y-47910000D01*
X190794537Y-48152123D01*
X190858095Y-48248879D01*
X190856673Y-48250302D01*
X190760000Y-48483691D01*
X190760000Y-48924250D01*
X190918750Y-49083000D01*
X191643000Y-49083000D01*
X191643000Y-49063000D01*
X191897000Y-49063000D01*
X191897000Y-49083000D01*
X192621250Y-49083000D01*
X192780000Y-48924250D01*
X192780000Y-48483691D01*
X192683327Y-48250302D01*
X192682044Y-48249019D01*
X192734855Y-48170783D01*
X192933205Y-48131329D01*
X192933206Y-48131329D01*
X192954197Y-48117302D01*
X193018327Y-48214927D01*
X193082637Y-48258337D01*
X192940673Y-48400302D01*
X192844000Y-48633691D01*
X192844000Y-49074250D01*
X193002750Y-49233000D01*
X193802000Y-49233000D01*
X193802000Y-49213000D01*
X194056000Y-49213000D01*
X194056000Y-49233000D01*
X194855250Y-49233000D01*
X195014000Y-49074250D01*
X195014000Y-48633691D01*
X194917327Y-48400302D01*
X194775849Y-48258823D01*
X194833927Y-48220673D01*
X194976377Y-48009640D01*
X194981798Y-47982603D01*
X194988205Y-47981329D01*
X194988206Y-47981329D01*
X195008055Y-47968065D01*
X195011663Y-47968069D01*
X195371212Y-47819507D01*
X195646540Y-47544659D01*
X195795730Y-47185370D01*
X195796069Y-46796337D01*
X195796069Y-76377136D01*
X195790330Y-76380971D01*
X195727000Y-76475750D01*
X195727000Y-66379250D01*
X195727000Y-65405000D01*
X195707000Y-65405000D01*
X195707000Y-65151000D01*
X195727000Y-65151000D01*
X195727000Y-64176750D01*
X195568250Y-64018000D01*
X195079497Y-64018000D01*
X195087801Y-63998000D01*
X195568250Y-63998000D01*
X195727000Y-63839250D01*
X195727000Y-62865000D01*
X195707000Y-62865000D01*
X195707000Y-62611000D01*
X195727000Y-62611000D01*
X195727000Y-61636750D01*
X195727000Y-58505250D01*
X195727000Y-57531000D01*
X195727000Y-57277000D01*
X195727000Y-56302750D01*
X195568250Y-56144000D01*
X195014000Y-56144000D01*
X195014000Y-50086309D01*
X195014000Y-49645750D01*
X194855250Y-49487000D01*
X194056000Y-49487000D01*
X194056000Y-50436250D01*
X194214750Y-50595000D01*
X194252691Y-50595000D01*
X194505310Y-50595000D01*
X194738699Y-50498327D01*
X194917327Y-50319698D01*
X195014000Y-50086309D01*
X195014000Y-56144000D01*
X194977691Y-56144000D01*
X194744302Y-56240673D01*
X194565673Y-56419301D01*
X194469000Y-56652690D01*
X194469000Y-56905309D01*
X194469000Y-57118250D01*
X194627750Y-57277000D01*
X195727000Y-57277000D01*
X195727000Y-57531000D01*
X194627750Y-57531000D01*
X194469000Y-57689750D01*
X194469000Y-57902691D01*
X194469000Y-58155310D01*
X194565673Y-58388699D01*
X194744302Y-58567327D01*
X194977691Y-58664000D01*
X195568250Y-58664000D01*
X195727000Y-58505250D01*
X195727000Y-61636750D01*
X195568250Y-61478000D01*
X194977691Y-61478000D01*
X194744302Y-61574673D01*
X194565673Y-61753301D01*
X194469000Y-61986690D01*
X194469000Y-62239309D01*
X194469000Y-62452250D01*
X194627748Y-62610998D01*
X194469000Y-62610998D01*
X194469000Y-62686902D01*
X194378370Y-62649270D01*
X193989337Y-62648931D01*
X193802000Y-62726336D01*
X193802000Y-50436250D01*
X193802000Y-49487000D01*
X193002750Y-49487000D01*
X192844000Y-49645750D01*
X192844000Y-50086309D01*
X192940673Y-50319698D01*
X193119301Y-50498327D01*
X193352690Y-50595000D01*
X193605309Y-50595000D01*
X193643250Y-50595000D01*
X193802000Y-50436250D01*
X193802000Y-62726336D01*
X193629788Y-62797493D01*
X193354460Y-63072341D01*
X193205270Y-63431630D01*
X193205096Y-63631252D01*
X193182470Y-63665115D01*
X193126400Y-63947000D01*
X193126400Y-64028063D01*
X193020877Y-64048537D01*
X192924120Y-64112095D01*
X192922698Y-64110673D01*
X192780000Y-64051565D01*
X192780000Y-49936309D01*
X192780000Y-49495750D01*
X192621250Y-49337000D01*
X191897000Y-49337000D01*
X191897000Y-50286250D01*
X192055750Y-50445000D01*
X192271310Y-50445000D01*
X192504699Y-50348327D01*
X192683327Y-50169698D01*
X192780000Y-49936309D01*
X192780000Y-64051565D01*
X192689309Y-64014000D01*
X192248750Y-64014000D01*
X192090000Y-64172750D01*
X192090000Y-64897000D01*
X192110000Y-64897000D01*
X192110000Y-65151000D01*
X192090000Y-65151000D01*
X192090000Y-65875250D01*
X192248750Y-66034000D01*
X192689309Y-66034000D01*
X192922698Y-65937327D01*
X192923980Y-65936044D01*
X193013360Y-65996377D01*
X193263000Y-66046440D01*
X194463000Y-66046440D01*
X194475121Y-66044088D01*
X194565673Y-66262699D01*
X194590525Y-66287551D01*
X194431000Y-66255560D01*
X193681000Y-66255560D01*
X193438877Y-66302537D01*
X193226073Y-66442327D01*
X193202722Y-66476918D01*
X192854370Y-66332270D01*
X192465337Y-66331931D01*
X192105788Y-66480493D01*
X191836000Y-66749810D01*
X191836000Y-65875250D01*
X191836000Y-65151000D01*
X191836000Y-64897000D01*
X191836000Y-64172750D01*
X191677250Y-64014000D01*
X191643000Y-64014000D01*
X191643000Y-50286250D01*
X191643000Y-49337000D01*
X190918750Y-49337000D01*
X190760000Y-49495750D01*
X190760000Y-49936309D01*
X190856673Y-50169698D01*
X191035301Y-50348327D01*
X191268690Y-50445000D01*
X191484250Y-50445000D01*
X191643000Y-50286250D01*
X191643000Y-64014000D01*
X191236691Y-64014000D01*
X191003302Y-64110673D01*
X190824673Y-64289301D01*
X190728000Y-64522690D01*
X190728000Y-64738250D01*
X190886750Y-64897000D01*
X191836000Y-64897000D01*
X191836000Y-65151000D01*
X190886750Y-65151000D01*
X190728000Y-65309750D01*
X190728000Y-65525310D01*
X190824673Y-65758699D01*
X191003302Y-65937327D01*
X191236691Y-66034000D01*
X191677250Y-66034000D01*
X191836000Y-65875250D01*
X191836000Y-66749810D01*
X191830460Y-66755341D01*
X191681270Y-67114630D01*
X191680931Y-67503663D01*
X191829493Y-67863212D01*
X192104341Y-68138540D01*
X192446168Y-68280479D01*
X192446170Y-68280480D01*
X192511794Y-68324329D01*
X192511795Y-68324329D01*
X192852000Y-68392000D01*
X193111330Y-68392000D01*
X193144095Y-68441879D01*
X193142673Y-68443302D01*
X193046000Y-68676691D01*
X193046000Y-69117250D01*
X193204750Y-69276000D01*
X193929000Y-69276000D01*
X193929000Y-69256000D01*
X194183000Y-69256000D01*
X194183000Y-69276000D01*
X194907250Y-69276000D01*
X195066000Y-69117250D01*
X195066000Y-68676691D01*
X194969327Y-68443302D01*
X194968044Y-68442019D01*
X195028377Y-68352640D01*
X195078440Y-68103000D01*
X195078440Y-66903000D01*
X195031463Y-66660877D01*
X194940673Y-66522666D01*
X194977691Y-66538000D01*
X195568250Y-66538000D01*
X195727000Y-66379250D01*
X195727000Y-76475750D01*
X195465474Y-76867152D01*
X195351400Y-77440641D01*
X195351400Y-77499359D01*
X195465474Y-78072848D01*
X195777300Y-78539529D01*
X195744277Y-78545937D01*
X195531473Y-78685727D01*
X195389023Y-78896760D01*
X195338960Y-79146400D01*
X195338960Y-80873600D01*
X195385937Y-81115723D01*
X195525727Y-81328527D01*
X195736760Y-81470977D01*
X195986400Y-81521040D01*
X197713600Y-81521040D01*
X197955723Y-81474063D01*
X198168527Y-81334273D01*
X198310977Y-81123240D01*
X198319179Y-81082340D01*
X198330330Y-81099029D01*
X198816511Y-81423885D01*
X199390000Y-81537959D01*
X199963489Y-81423885D01*
X200449670Y-81099029D01*
X200660000Y-80784248D01*
X200870330Y-81099029D01*
X201356511Y-81423885D01*
X201930000Y-81537959D01*
X202503489Y-81423885D01*
X202989670Y-81099029D01*
X203200000Y-80784248D01*
X203410330Y-81099029D01*
X203896511Y-81423885D01*
X204470000Y-81537959D01*
X205043489Y-81423885D01*
X205529670Y-81099029D01*
X205740000Y-80784248D01*
X205950330Y-81099029D01*
X206436511Y-81423885D01*
X207010000Y-81537959D01*
X207583489Y-81423885D01*
X208069670Y-81099029D01*
X208280000Y-80784248D01*
X208490330Y-81099029D01*
X208976511Y-81423885D01*
X209550000Y-81537959D01*
X210123489Y-81423885D01*
X210609670Y-81099029D01*
X210820000Y-80784248D01*
X211030330Y-81099029D01*
X211516511Y-81423885D01*
X212090000Y-81537959D01*
X212663489Y-81423885D01*
X213149670Y-81099029D01*
X213360000Y-80784248D01*
X213570330Y-81099029D01*
X214056511Y-81423885D01*
X214630000Y-81537959D01*
X215203489Y-81423885D01*
X215689670Y-81099029D01*
X215900000Y-80784248D01*
X216110330Y-81099029D01*
X216596511Y-81423885D01*
X217170000Y-81537959D01*
X217743489Y-81423885D01*
X218229670Y-81099029D01*
X218440000Y-80784248D01*
X218650330Y-81099029D01*
X219136511Y-81423885D01*
X219710000Y-81537959D01*
X220283489Y-81423885D01*
X220769670Y-81099029D01*
X220980000Y-80784248D01*
X221190330Y-81099029D01*
X221676511Y-81423885D01*
X222250000Y-81537959D01*
X222823489Y-81423885D01*
X223309670Y-81099029D01*
X223520000Y-80784248D01*
X223730330Y-81099029D01*
X224216511Y-81423885D01*
X224790000Y-81537959D01*
X225363489Y-81423885D01*
X225849670Y-81099029D01*
X226060000Y-80784248D01*
X226270330Y-81099029D01*
X226756511Y-81423885D01*
X227330000Y-81537959D01*
X227903489Y-81423885D01*
X228389670Y-81099029D01*
X228600000Y-80784248D01*
X228810330Y-81099029D01*
X229296511Y-81423885D01*
X229870000Y-81537959D01*
X230443489Y-81423885D01*
X230929670Y-81099029D01*
X231140000Y-80784248D01*
X231350330Y-81099029D01*
X231836511Y-81423885D01*
X232410000Y-81537959D01*
X232983489Y-81423885D01*
X233469670Y-81099029D01*
X233680000Y-80784248D01*
X233890330Y-81099029D01*
X234376511Y-81423885D01*
X234950000Y-81537959D01*
X235523489Y-81423885D01*
X236009670Y-81099029D01*
X236334526Y-80612848D01*
X236448600Y-80039359D01*
X236448600Y-81661000D01*
X195066000Y-81661000D01*
X195066000Y-70129309D01*
X195066000Y-69688750D01*
X194907250Y-69530000D01*
X194183000Y-69530000D01*
X194183000Y-70479250D01*
X194341750Y-70638000D01*
X194557310Y-70638000D01*
X194790699Y-70541327D01*
X194969327Y-70362698D01*
X195066000Y-70129309D01*
X195066000Y-81661000D01*
X193929000Y-81661000D01*
X193929000Y-70479250D01*
X193929000Y-69530000D01*
X193204750Y-69530000D01*
X193046000Y-69688750D01*
X193046000Y-70129309D01*
X193142673Y-70362698D01*
X193321301Y-70541327D01*
X193554690Y-70638000D01*
X193770250Y-70638000D01*
X193929000Y-70479250D01*
X193929000Y-81661000D01*
X187579000Y-81661000D01*
X187579000Y-32639000D01*
X236601000Y-32639000D01*
X236601000Y-49872283D01*
X236566463Y-49694277D01*
X236461040Y-49533790D01*
X236461040Y-35153600D01*
X236461040Y-33426400D01*
X236414063Y-33184277D01*
X236274273Y-32971473D01*
X236063240Y-32829023D01*
X235813600Y-32778960D01*
X234086400Y-32778960D01*
X233844277Y-32825937D01*
X233631473Y-32965727D01*
X233489023Y-33176760D01*
X233480820Y-33217659D01*
X233469670Y-33200971D01*
X232983489Y-32876115D01*
X232410000Y-32762041D01*
X231836511Y-32876115D01*
X231350330Y-33200971D01*
X231140000Y-33515751D01*
X230929670Y-33200971D01*
X230443489Y-32876115D01*
X229870000Y-32762041D01*
X229296511Y-32876115D01*
X228810330Y-33200971D01*
X228600000Y-33515751D01*
X228389670Y-33200971D01*
X227903489Y-32876115D01*
X227330000Y-32762041D01*
X226756511Y-32876115D01*
X226270330Y-33200971D01*
X226060000Y-33515751D01*
X225849670Y-33200971D01*
X225363489Y-32876115D01*
X224790000Y-32762041D01*
X224216511Y-32876115D01*
X223730330Y-33200971D01*
X223520000Y-33515751D01*
X223309670Y-33200971D01*
X222823489Y-32876115D01*
X222250000Y-32762041D01*
X221676511Y-32876115D01*
X221190330Y-33200971D01*
X220980000Y-33515751D01*
X220769670Y-33200971D01*
X220283489Y-32876115D01*
X219710000Y-32762041D01*
X219136511Y-32876115D01*
X218650330Y-33200971D01*
X218440000Y-33515751D01*
X218229670Y-33200971D01*
X217743489Y-32876115D01*
X217170000Y-32762041D01*
X216596511Y-32876115D01*
X216110330Y-33200971D01*
X215900000Y-33515751D01*
X215689670Y-33200971D01*
X215203489Y-32876115D01*
X214630000Y-32762041D01*
X214056511Y-32876115D01*
X213570330Y-33200971D01*
X213360000Y-33515751D01*
X213149670Y-33200971D01*
X212663489Y-32876115D01*
X212090000Y-32762041D01*
X211516511Y-32876115D01*
X211030330Y-33200971D01*
X210820000Y-33515751D01*
X210609670Y-33200971D01*
X210123489Y-32876115D01*
X209550000Y-32762041D01*
X208976511Y-32876115D01*
X208490330Y-33200971D01*
X208280000Y-33515751D01*
X208069670Y-33200971D01*
X207583489Y-32876115D01*
X207010000Y-32762041D01*
X206436511Y-32876115D01*
X205950330Y-33200971D01*
X205740000Y-33515751D01*
X205529670Y-33200971D01*
X205043489Y-32876115D01*
X204470000Y-32762041D01*
X203896511Y-32876115D01*
X203410330Y-33200971D01*
X203200000Y-33515751D01*
X202989670Y-33200971D01*
X202503489Y-32876115D01*
X201930000Y-32762041D01*
X201356511Y-32876115D01*
X200870330Y-33200971D01*
X200660000Y-33515751D01*
X200449670Y-33200971D01*
X199963489Y-32876115D01*
X199390000Y-32762041D01*
X198816511Y-32876115D01*
X198330330Y-33200971D01*
X198120000Y-33515751D01*
X197909670Y-33200971D01*
X197423489Y-32876115D01*
X196850000Y-32762041D01*
X196276511Y-32876115D01*
X195790330Y-33200971D01*
X195465474Y-33687152D01*
X195351400Y-34260641D01*
X195351400Y-34319359D01*
X195465474Y-34892848D01*
X195790330Y-35379029D01*
X196061172Y-35560000D01*
X195790330Y-35740971D01*
X195465474Y-36227152D01*
X195351400Y-36800641D01*
X195351400Y-36859359D01*
X195465474Y-37432848D01*
X195790330Y-37919029D01*
X196276511Y-38243885D01*
X196850000Y-38357959D01*
X197423489Y-38243885D01*
X197909670Y-37919029D01*
X198120000Y-37604248D01*
X198330330Y-37919029D01*
X198816511Y-38243885D01*
X199390000Y-38357959D01*
X199963489Y-38243885D01*
X200449670Y-37919029D01*
X200660000Y-37604248D01*
X200870330Y-37919029D01*
X201356511Y-38243885D01*
X201930000Y-38357959D01*
X202503489Y-38243885D01*
X202989670Y-37919029D01*
X203200000Y-37604248D01*
X203410330Y-37919029D01*
X203896511Y-38243885D01*
X204470000Y-38357959D01*
X205043489Y-38243885D01*
X205529670Y-37919029D01*
X205740000Y-37604248D01*
X205950330Y-37919029D01*
X206436511Y-38243885D01*
X207010000Y-38357959D01*
X207583489Y-38243885D01*
X208069670Y-37919029D01*
X208280000Y-37604248D01*
X208490330Y-37919029D01*
X208976511Y-38243885D01*
X209550000Y-38357959D01*
X210123489Y-38243885D01*
X210609670Y-37919029D01*
X210820000Y-37604248D01*
X211030330Y-37919029D01*
X211516511Y-38243885D01*
X212090000Y-38357959D01*
X212663489Y-38243885D01*
X213149670Y-37919029D01*
X213360000Y-37604248D01*
X213570330Y-37919029D01*
X214056511Y-38243885D01*
X214630000Y-38357959D01*
X215203489Y-38243885D01*
X215689670Y-37919029D01*
X215900000Y-37604248D01*
X216110330Y-37919029D01*
X216596511Y-38243885D01*
X217170000Y-38357959D01*
X217743489Y-38243885D01*
X218229670Y-37919029D01*
X218440000Y-37604248D01*
X218650330Y-37919029D01*
X219136511Y-38243885D01*
X219710000Y-38357959D01*
X220283489Y-38243885D01*
X220769670Y-37919029D01*
X220980000Y-37604248D01*
X221190330Y-37919029D01*
X221676511Y-38243885D01*
X222250000Y-38357959D01*
X222823489Y-38243885D01*
X223309670Y-37919029D01*
X223520000Y-37604248D01*
X223730330Y-37919029D01*
X224216511Y-38243885D01*
X224790000Y-38357959D01*
X225363489Y-38243885D01*
X225849670Y-37919029D01*
X226060000Y-37604248D01*
X226270330Y-37919029D01*
X226756511Y-38243885D01*
X227330000Y-38357959D01*
X227903489Y-38243885D01*
X228389670Y-37919029D01*
X228600000Y-37604248D01*
X228810330Y-37919029D01*
X229296511Y-38243885D01*
X229870000Y-38357959D01*
X230443489Y-38243885D01*
X230929670Y-37919029D01*
X231140000Y-37604248D01*
X231350330Y-37919029D01*
X231836511Y-38243885D01*
X232410000Y-38357959D01*
X232983489Y-38243885D01*
X233469670Y-37919029D01*
X233680000Y-37604248D01*
X233890330Y-37919029D01*
X234376511Y-38243885D01*
X234950000Y-38357959D01*
X235523489Y-38243885D01*
X236009670Y-37919029D01*
X236334526Y-37432848D01*
X236448600Y-36859359D01*
X236448600Y-36800641D01*
X236334526Y-36227152D01*
X236022699Y-35760470D01*
X236055723Y-35754063D01*
X236268527Y-35614273D01*
X236410977Y-35403240D01*
X236461040Y-35153600D01*
X236461040Y-49533790D01*
X236426673Y-49481473D01*
X236215640Y-49339023D01*
X235966000Y-49288960D01*
X233934000Y-49288960D01*
X233691877Y-49335937D01*
X233479073Y-49475727D01*
X233336623Y-49686760D01*
X233286560Y-49936400D01*
X233286560Y-50063400D01*
X229303625Y-50063400D01*
X229360327Y-50006699D01*
X229457000Y-49773310D01*
X229457000Y-49520691D01*
X229457000Y-49307750D01*
X229457000Y-48736250D01*
X229457000Y-48523309D01*
X229457000Y-48270690D01*
X229360327Y-48037301D01*
X229181698Y-47858673D01*
X228948309Y-47762000D01*
X228357750Y-47762000D01*
X228199000Y-47920750D01*
X228199000Y-48895000D01*
X229298250Y-48895000D01*
X229457000Y-48736250D01*
X229457000Y-49307750D01*
X229298250Y-49149000D01*
X228199000Y-49149000D01*
X228199000Y-49169000D01*
X227945000Y-49169000D01*
X227945000Y-49149000D01*
X227925000Y-49149000D01*
X227925000Y-48895000D01*
X227945000Y-48895000D01*
X227945000Y-47920750D01*
X227786250Y-47762000D01*
X227195691Y-47762000D01*
X226962302Y-47858673D01*
X226820823Y-48000150D01*
X226782673Y-47942073D01*
X226571640Y-47799623D01*
X226322000Y-47749560D01*
X224822000Y-47749560D01*
X224579877Y-47796537D01*
X224367073Y-47936327D01*
X224224623Y-48147360D01*
X224174560Y-48397000D01*
X224174560Y-49647000D01*
X224221537Y-49889123D01*
X224259771Y-49947328D01*
X224088460Y-50118341D01*
X223939270Y-50477630D01*
X223938931Y-50866663D01*
X224087493Y-51226212D01*
X224362341Y-51501540D01*
X224721630Y-51650730D01*
X225110663Y-51651069D01*
X225387700Y-51536600D01*
X233286560Y-51536600D01*
X233286560Y-51663600D01*
X233333537Y-51905723D01*
X233473327Y-52118527D01*
X233684360Y-52260977D01*
X233722962Y-52268718D01*
X233705585Y-52280330D01*
X233489716Y-52603400D01*
X232903246Y-52603400D01*
X232792673Y-52435073D01*
X232581640Y-52292623D01*
X232332000Y-52242560D01*
X231132000Y-52242560D01*
X230889877Y-52289537D01*
X230677073Y-52429327D01*
X230632386Y-52495528D01*
X230592673Y-52435073D01*
X230381640Y-52292623D01*
X230132000Y-52242560D01*
X228932000Y-52242560D01*
X228689877Y-52289537D01*
X228477073Y-52429327D01*
X228359571Y-52603400D01*
X222809110Y-52603400D01*
X222224600Y-52018890D01*
X222224600Y-47382438D01*
X222316540Y-47290659D01*
X222465730Y-46931370D01*
X222466069Y-46542337D01*
X222317507Y-46182788D01*
X222042659Y-45907460D01*
X221683370Y-45758270D01*
X221294337Y-45757931D01*
X220934788Y-45906493D01*
X220659460Y-46181341D01*
X220510270Y-46540630D01*
X220509931Y-46929663D01*
X220579552Y-47098159D01*
X220236288Y-47239993D01*
X219960960Y-47514841D01*
X219811770Y-47874130D01*
X219811633Y-48031055D01*
X219728288Y-48065493D01*
X219452960Y-48340341D01*
X219303770Y-48699630D01*
X219303535Y-48968383D01*
X219029788Y-49081493D01*
X218754460Y-49356341D01*
X218605270Y-49715630D01*
X218604931Y-50104663D01*
X218753493Y-50464212D01*
X218846400Y-50557281D01*
X218846400Y-53213000D01*
X218902470Y-53494885D01*
X219062145Y-53733855D01*
X219646421Y-54318131D01*
X219410788Y-54415493D01*
X219135460Y-54690341D01*
X218986270Y-55049630D01*
X218985991Y-55369560D01*
X218940000Y-55369560D01*
X218697877Y-55416537D01*
X218485073Y-55556327D01*
X218441662Y-55620637D01*
X218299698Y-55478673D01*
X218066309Y-55382000D01*
X217475750Y-55382000D01*
X217317000Y-55540750D01*
X217317000Y-56515000D01*
X217337000Y-56515000D01*
X217337000Y-56769000D01*
X217317000Y-56769000D01*
X217317000Y-56789000D01*
X217063000Y-56789000D01*
X217063000Y-56769000D01*
X217063000Y-56515000D01*
X217063000Y-55540750D01*
X216904250Y-55382000D01*
X216313691Y-55382000D01*
X216080302Y-55478673D01*
X216023000Y-55535974D01*
X216023000Y-50506309D01*
X216023000Y-50365750D01*
X215864250Y-50207000D01*
X215263000Y-50207000D01*
X215263000Y-50856250D01*
X215421750Y-51015000D01*
X215514310Y-51015000D01*
X215747699Y-50918327D01*
X215926327Y-50739698D01*
X216023000Y-50506309D01*
X216023000Y-55535974D01*
X215901673Y-55657301D01*
X215805000Y-55890690D01*
X215805000Y-56143309D01*
X215805000Y-56356250D01*
X215963750Y-56515000D01*
X217063000Y-56515000D01*
X217063000Y-56769000D01*
X215963750Y-56769000D01*
X215805000Y-56927750D01*
X215805000Y-57140691D01*
X215805000Y-57277000D01*
X215013000Y-57277000D01*
X215013000Y-50856250D01*
X215013000Y-50207000D01*
X214411750Y-50207000D01*
X214253000Y-50365750D01*
X214253000Y-50506309D01*
X214349673Y-50739698D01*
X214528301Y-50918327D01*
X214761690Y-51015000D01*
X214854250Y-51015000D01*
X215013000Y-50856250D01*
X215013000Y-57277000D01*
X214245000Y-57277000D01*
X214245000Y-50506309D01*
X214245000Y-50365750D01*
X214086250Y-50207000D01*
X213485000Y-50207000D01*
X213485000Y-50856250D01*
X213643750Y-51015000D01*
X213736310Y-51015000D01*
X213969699Y-50918327D01*
X214148327Y-50739698D01*
X214245000Y-50506309D01*
X214245000Y-57277000D01*
X213474236Y-57277000D01*
X212979000Y-56781764D01*
X212979000Y-51013057D01*
X212983690Y-51015000D01*
X213076250Y-51015000D01*
X213235000Y-50856250D01*
X213235000Y-50207000D01*
X213213000Y-50207000D01*
X213213000Y-49953000D01*
X213235000Y-49953000D01*
X213235000Y-49933000D01*
X213485000Y-49933000D01*
X213485000Y-49953000D01*
X214086250Y-49953000D01*
X214245000Y-49794250D01*
X214245000Y-49653691D01*
X214198849Y-49542273D01*
X214207377Y-49529640D01*
X214248860Y-49322781D01*
X214287537Y-49522123D01*
X214299778Y-49540758D01*
X214253000Y-49653691D01*
X214253000Y-49794250D01*
X214411750Y-49953000D01*
X215013000Y-49953000D01*
X215013000Y-49933000D01*
X215263000Y-49933000D01*
X215263000Y-49953000D01*
X215864250Y-49953000D01*
X216023000Y-49794250D01*
X216023000Y-49653691D01*
X215976849Y-49542273D01*
X215985377Y-49529640D01*
X216035440Y-49280000D01*
X216035440Y-48680000D01*
X215988463Y-48437877D01*
X215973957Y-48415795D01*
X216115730Y-48074370D01*
X216116069Y-47685337D01*
X215967507Y-47325788D01*
X215874600Y-47232718D01*
X215874600Y-44535787D01*
X216005123Y-44510463D01*
X216217927Y-44370673D01*
X216360377Y-44159640D01*
X216410440Y-43910000D01*
X216410440Y-42410000D01*
X216363463Y-42167877D01*
X216223673Y-41955073D01*
X216159362Y-41911662D01*
X216301327Y-41769698D01*
X216398000Y-41536309D01*
X216398000Y-40945750D01*
X216398000Y-40374250D01*
X216398000Y-39783691D01*
X216301327Y-39550302D01*
X216122699Y-39371673D01*
X215889310Y-39275000D01*
X215636691Y-39275000D01*
X215423750Y-39275000D01*
X215265000Y-39433750D01*
X215265000Y-40533000D01*
X216239250Y-40533000D01*
X216398000Y-40374250D01*
X216398000Y-40945750D01*
X216239250Y-40787000D01*
X215265000Y-40787000D01*
X215265000Y-40807000D01*
X215011000Y-40807000D01*
X215011000Y-40787000D01*
X215011000Y-40533000D01*
X215011000Y-39433750D01*
X214852250Y-39275000D01*
X214639309Y-39275000D01*
X214386690Y-39275000D01*
X214153301Y-39371673D01*
X213974673Y-39550302D01*
X213878000Y-39783691D01*
X213878000Y-40374250D01*
X214036750Y-40533000D01*
X215011000Y-40533000D01*
X215011000Y-40787000D01*
X214036750Y-40787000D01*
X213878000Y-40945750D01*
X213878000Y-41536309D01*
X213974673Y-41769698D01*
X214116150Y-41911176D01*
X214058073Y-41949327D01*
X213915623Y-42160360D01*
X213865560Y-42410000D01*
X213865560Y-43910000D01*
X213912537Y-44152123D01*
X214052327Y-44364927D01*
X214263360Y-44507377D01*
X214401400Y-44535059D01*
X214401400Y-47232561D01*
X214309460Y-47324341D01*
X214249035Y-47469858D01*
X214189507Y-47325788D01*
X213914659Y-47050460D01*
X213555370Y-46901270D01*
X213362440Y-46901101D01*
X213362440Y-43910000D01*
X213362440Y-42410000D01*
X213315463Y-42167877D01*
X213175673Y-41955073D01*
X213111362Y-41911662D01*
X213253327Y-41769698D01*
X213350000Y-41536309D01*
X213350000Y-40945750D01*
X213350000Y-40374250D01*
X213350000Y-39783691D01*
X213253327Y-39550302D01*
X213074699Y-39371673D01*
X212841310Y-39275000D01*
X212588691Y-39275000D01*
X212375750Y-39275000D01*
X212217000Y-39433750D01*
X212217000Y-40533000D01*
X213191250Y-40533000D01*
X213350000Y-40374250D01*
X213350000Y-40945750D01*
X213191250Y-40787000D01*
X212217000Y-40787000D01*
X212217000Y-40807000D01*
X211963000Y-40807000D01*
X211963000Y-40787000D01*
X211963000Y-40533000D01*
X211963000Y-39433750D01*
X211804250Y-39275000D01*
X211591309Y-39275000D01*
X211338690Y-39275000D01*
X211105301Y-39371673D01*
X210926673Y-39550302D01*
X210830000Y-39783691D01*
X210830000Y-40374250D01*
X210988750Y-40533000D01*
X211963000Y-40533000D01*
X211963000Y-40787000D01*
X210988750Y-40787000D01*
X210830000Y-40945750D01*
X210830000Y-41536309D01*
X210926673Y-41769698D01*
X211068150Y-41911176D01*
X211010073Y-41949327D01*
X210867623Y-42160360D01*
X210817560Y-42410000D01*
X210817560Y-43390730D01*
X210680145Y-43528145D01*
X210520470Y-43767115D01*
X210464400Y-44049000D01*
X210464400Y-44184561D01*
X210372460Y-44276341D01*
X210223270Y-44635630D01*
X210222931Y-45024663D01*
X210371493Y-45384212D01*
X210646341Y-45659540D01*
X211005630Y-45808730D01*
X211394663Y-45809069D01*
X211754212Y-45660507D01*
X212029540Y-45385659D01*
X212178730Y-45026370D01*
X212179069Y-44637337D01*
X212146056Y-44557440D01*
X212715000Y-44557440D01*
X212957123Y-44510463D01*
X213169927Y-44370673D01*
X213312377Y-44159640D01*
X213362440Y-43910000D01*
X213362440Y-46901101D01*
X213166337Y-46900931D01*
X212806788Y-47049493D01*
X212531460Y-47324341D01*
X212510169Y-47375614D01*
X212285370Y-47282270D01*
X211896337Y-47281931D01*
X211536788Y-47430493D01*
X211261460Y-47705341D01*
X211121313Y-48042850D01*
X211070000Y-48032560D01*
X210570000Y-48032560D01*
X210327877Y-48079537D01*
X210115073Y-48219327D01*
X210034219Y-48339108D01*
X209935870Y-48298270D01*
X209546837Y-48297931D01*
X209187288Y-48446493D01*
X208911960Y-48721341D01*
X208762770Y-49080630D01*
X208762431Y-49469663D01*
X208910993Y-49829212D01*
X209185841Y-50104540D01*
X209545130Y-50253730D01*
X209934163Y-50254069D01*
X210048074Y-50207002D01*
X210093748Y-50207002D01*
X209935000Y-50365750D01*
X209935000Y-50506309D01*
X210031673Y-50739698D01*
X210210301Y-50918327D01*
X210443690Y-51015000D01*
X210536250Y-51015000D01*
X210695000Y-50856250D01*
X210695000Y-50207000D01*
X210673000Y-50207000D01*
X210673000Y-49982962D01*
X210805885Y-49956530D01*
X210841099Y-49933000D01*
X210945000Y-49933000D01*
X210945000Y-49953000D01*
X210967000Y-49953000D01*
X210967000Y-50207000D01*
X210945000Y-50207000D01*
X210945000Y-50856250D01*
X211103750Y-51015000D01*
X211196310Y-51015000D01*
X211201000Y-51013057D01*
X211201000Y-55003764D01*
X210695000Y-54497764D01*
X208623069Y-52425833D01*
X208623069Y-44002337D01*
X208474507Y-43642788D01*
X208199659Y-43367460D01*
X207840370Y-43218270D01*
X207520440Y-43217991D01*
X207520440Y-42410000D01*
X207473463Y-42167877D01*
X207333673Y-41955073D01*
X207269362Y-41911662D01*
X207411327Y-41769698D01*
X207508000Y-41536309D01*
X207508000Y-40945750D01*
X207508000Y-40374250D01*
X207508000Y-39783691D01*
X207411327Y-39550302D01*
X207232699Y-39371673D01*
X206999310Y-39275000D01*
X206746691Y-39275000D01*
X206533750Y-39275000D01*
X206375000Y-39433750D01*
X206375000Y-40533000D01*
X207349250Y-40533000D01*
X207508000Y-40374250D01*
X207508000Y-40945750D01*
X207349250Y-40787000D01*
X206375000Y-40787000D01*
X206375000Y-40807000D01*
X206121000Y-40807000D01*
X206121000Y-40787000D01*
X206121000Y-40533000D01*
X206121000Y-39433750D01*
X205962250Y-39275000D01*
X205749309Y-39275000D01*
X205496690Y-39275000D01*
X205263301Y-39371673D01*
X205084673Y-39550302D01*
X204988000Y-39783691D01*
X204988000Y-40374250D01*
X205146750Y-40533000D01*
X206121000Y-40533000D01*
X206121000Y-40787000D01*
X205146750Y-40787000D01*
X204988000Y-40945750D01*
X204988000Y-41536309D01*
X205084673Y-41769698D01*
X205226150Y-41911176D01*
X205168073Y-41949327D01*
X205025623Y-42160360D01*
X204975560Y-42410000D01*
X204975560Y-43910000D01*
X205022537Y-44152123D01*
X205162327Y-44364927D01*
X205373360Y-44507377D01*
X205623000Y-44557440D01*
X206603730Y-44557440D01*
X206763145Y-44716855D01*
X206823350Y-44757082D01*
X207090341Y-45024540D01*
X207449630Y-45173730D01*
X207838663Y-45174069D01*
X208198212Y-45025507D01*
X208473540Y-44750659D01*
X208622730Y-44391370D01*
X208623069Y-44002337D01*
X208623069Y-52425833D01*
X202847863Y-46650627D01*
X202759507Y-46436788D01*
X202484659Y-46161460D01*
X202125370Y-46012270D01*
X201736337Y-46011931D01*
X201376788Y-46160493D01*
X201101460Y-46435341D01*
X200952270Y-46794630D01*
X200951931Y-47183663D01*
X201100493Y-47543212D01*
X201375341Y-47818540D01*
X201590749Y-47907985D01*
X210578764Y-56896000D01*
X208375000Y-56896000D01*
X208375000Y-56759691D01*
X208375000Y-56546750D01*
X208375000Y-55975250D01*
X208375000Y-55762309D01*
X208375000Y-55509690D01*
X208278327Y-55276301D01*
X208099698Y-55097673D01*
X207866309Y-55001000D01*
X207275750Y-55001000D01*
X207117000Y-55159750D01*
X207117000Y-56134000D01*
X208216250Y-56134000D01*
X208375000Y-55975250D01*
X208375000Y-56546750D01*
X208216250Y-56388000D01*
X207117000Y-56388000D01*
X207117000Y-56408000D01*
X206863000Y-56408000D01*
X206863000Y-56388000D01*
X206843000Y-56388000D01*
X206843000Y-56134000D01*
X206863000Y-56134000D01*
X206863000Y-55159750D01*
X206704250Y-55001000D01*
X206113691Y-55001000D01*
X205880302Y-55097673D01*
X205738823Y-55239150D01*
X205700673Y-55181073D01*
X205489640Y-55038623D01*
X205240000Y-54988560D01*
X205193791Y-54988560D01*
X205194069Y-54670337D01*
X205045507Y-54310788D01*
X204770659Y-54035460D01*
X204411370Y-53886270D01*
X204022337Y-53885931D01*
X203662788Y-54034493D01*
X203387460Y-54309341D01*
X203238270Y-54668630D01*
X203237931Y-55057663D01*
X203286233Y-55174564D01*
X203285073Y-55175327D01*
X203142623Y-55386360D01*
X203092560Y-55636000D01*
X203092560Y-56886000D01*
X203094500Y-56896000D01*
X200876069Y-56896000D01*
X200876069Y-50098337D01*
X200727507Y-49738788D01*
X200452659Y-49463460D01*
X200093370Y-49314270D01*
X199704337Y-49313931D01*
X199344788Y-49462493D01*
X199126880Y-49680020D01*
X198970000Y-49648560D01*
X198370000Y-49648560D01*
X198127877Y-49695537D01*
X198109241Y-49707778D01*
X197996309Y-49661000D01*
X197855750Y-49661000D01*
X197697000Y-49819750D01*
X197697000Y-50421000D01*
X197717000Y-50421000D01*
X197717000Y-50671000D01*
X197697000Y-50671000D01*
X197697000Y-51272250D01*
X197855750Y-51431000D01*
X197996309Y-51431000D01*
X198107726Y-51384849D01*
X198120360Y-51393377D01*
X198370000Y-51443440D01*
X198970000Y-51443440D01*
X199212123Y-51396463D01*
X199385458Y-51282600D01*
X199644000Y-51282600D01*
X199708675Y-51269735D01*
X200091663Y-51270069D01*
X200451212Y-51121507D01*
X200726540Y-50846659D01*
X200875730Y-50487370D01*
X200876069Y-50098337D01*
X200876069Y-56896000D01*
X200618914Y-56896000D01*
X200748730Y-56583370D01*
X200749069Y-56194337D01*
X200600507Y-55834788D01*
X200325659Y-55559460D01*
X199966370Y-55410270D01*
X199749791Y-55410081D01*
X199617440Y-55277730D01*
X199617440Y-55122000D01*
X199570463Y-54879877D01*
X199430673Y-54667073D01*
X199219640Y-54524623D01*
X198970000Y-54474560D01*
X198370000Y-54474560D01*
X198127877Y-54521537D01*
X198109241Y-54533778D01*
X197996309Y-54487000D01*
X197855750Y-54487000D01*
X197697000Y-54645750D01*
X197697000Y-55247000D01*
X197717000Y-55247000D01*
X197717000Y-55497000D01*
X197697000Y-55497000D01*
X197697000Y-55519000D01*
X197443000Y-55519000D01*
X197443000Y-55497000D01*
X197443000Y-55247000D01*
X197443000Y-54645750D01*
X197443000Y-51272250D01*
X197443000Y-50671000D01*
X197443000Y-50421000D01*
X197443000Y-49819750D01*
X197284250Y-49661000D01*
X197143691Y-49661000D01*
X196910302Y-49757673D01*
X196731673Y-49936301D01*
X196635000Y-50169690D01*
X196635000Y-50262250D01*
X196793750Y-50421000D01*
X197443000Y-50421000D01*
X197443000Y-50671000D01*
X196793750Y-50671000D01*
X196635000Y-50829750D01*
X196635000Y-50922310D01*
X196731673Y-51155699D01*
X196910302Y-51334327D01*
X197143691Y-51431000D01*
X197284250Y-51431000D01*
X197443000Y-51272250D01*
X197443000Y-54645750D01*
X197284250Y-54487000D01*
X197143691Y-54487000D01*
X196910302Y-54583673D01*
X196731673Y-54762301D01*
X196635000Y-54995690D01*
X196635000Y-55088250D01*
X196793750Y-55247000D01*
X197443000Y-55247000D01*
X197443000Y-55497000D01*
X196793750Y-55497000D01*
X196635000Y-55655750D01*
X196635000Y-55748310D01*
X196731673Y-55981699D01*
X196910302Y-56160327D01*
X197143691Y-56257000D01*
X197242431Y-56257000D01*
X197149073Y-56318327D01*
X197105662Y-56382637D01*
X196963698Y-56240673D01*
X196730309Y-56144000D01*
X196139750Y-56144000D01*
X195981000Y-56302750D01*
X195981000Y-57277000D01*
X196001000Y-57277000D01*
X196001000Y-57531000D01*
X195981000Y-57531000D01*
X195981000Y-58505250D01*
X196139750Y-58664000D01*
X196730309Y-58664000D01*
X196963698Y-58567327D01*
X197105176Y-58425849D01*
X197143327Y-58483927D01*
X197354360Y-58626377D01*
X197604000Y-58676440D01*
X199104000Y-58676440D01*
X199346123Y-58629463D01*
X199359897Y-58620414D01*
X199702630Y-58762730D01*
X200091663Y-58763069D01*
X200307227Y-58674000D01*
X209308764Y-58674000D01*
X207778382Y-60204382D01*
X207022764Y-60960000D01*
X203609055Y-60960000D01*
X203395370Y-60871270D01*
X203006337Y-60870931D01*
X202646788Y-61019493D01*
X202371460Y-61294341D01*
X202222270Y-61653630D01*
X202221931Y-62042663D01*
X202370493Y-62402212D01*
X202645341Y-62677540D01*
X203004630Y-62826730D01*
X203393663Y-62827069D01*
X203609227Y-62738000D01*
X207391000Y-62738000D01*
X207731205Y-62670329D01*
X207731206Y-62670329D01*
X208019618Y-62477618D01*
X209035618Y-61461618D01*
X209677000Y-60820236D01*
X209677000Y-65630944D01*
X209588270Y-65844630D01*
X209587931Y-66233663D01*
X209736493Y-66593212D01*
X210011341Y-66868540D01*
X210370630Y-67017730D01*
X210759663Y-67018069D01*
X211119212Y-66869507D01*
X211394540Y-66594659D01*
X211543730Y-66235370D01*
X211543933Y-66001977D01*
X211582079Y-66002010D01*
X211723360Y-66097377D01*
X211973000Y-66147440D01*
X213223000Y-66147440D01*
X213465123Y-66100463D01*
X213677927Y-65960673D01*
X213820377Y-65749640D01*
X213870440Y-65500000D01*
X213870440Y-64000000D01*
X213823463Y-63757877D01*
X213683673Y-63545073D01*
X213619362Y-63501662D01*
X213761327Y-63359698D01*
X213858000Y-63126309D01*
X213858000Y-62535750D01*
X213858000Y-61964250D01*
X213858000Y-61373691D01*
X213761327Y-61140302D01*
X213582699Y-60961673D01*
X213349310Y-60865000D01*
X213096691Y-60865000D01*
X212883750Y-60865000D01*
X212725000Y-61023750D01*
X212725000Y-62123000D01*
X213699250Y-62123000D01*
X213858000Y-61964250D01*
X213858000Y-62535750D01*
X213699250Y-62377000D01*
X212725000Y-62377000D01*
X212725000Y-62397000D01*
X212471000Y-62397000D01*
X212471000Y-62377000D01*
X212451000Y-62377000D01*
X212451000Y-62123000D01*
X212471000Y-62123000D01*
X212471000Y-61023750D01*
X212312250Y-60865000D01*
X212099309Y-60865000D01*
X211846690Y-60865000D01*
X211613301Y-60961673D01*
X211455000Y-61119974D01*
X211455000Y-59042236D01*
X212083618Y-58413618D01*
X212090000Y-58407236D01*
X212477382Y-58794618D01*
X212765794Y-58987329D01*
X212765795Y-58987329D01*
X213106000Y-59055000D01*
X218099942Y-59055000D01*
X218098000Y-59059690D01*
X218098000Y-59152250D01*
X218256750Y-59311000D01*
X218906000Y-59311000D01*
X218906000Y-59289000D01*
X219160000Y-59289000D01*
X219160000Y-59311000D01*
X219180000Y-59311000D01*
X219180000Y-59561000D01*
X219160000Y-59561000D01*
X219160000Y-59583000D01*
X218906000Y-59583000D01*
X218906000Y-59561000D01*
X218256750Y-59561000D01*
X218098000Y-59719750D01*
X218098000Y-59812310D01*
X218194673Y-60045699D01*
X218373302Y-60224327D01*
X218606691Y-60321000D01*
X218747250Y-60321000D01*
X218905998Y-60162252D01*
X218905998Y-60321000D01*
X218906000Y-60321000D01*
X218986103Y-60321000D01*
X218985991Y-60449560D01*
X218940000Y-60449560D01*
X218906000Y-60456156D01*
X218697877Y-60496537D01*
X218485073Y-60636327D01*
X218441662Y-60700637D01*
X218299698Y-60558673D01*
X218066309Y-60462000D01*
X217475750Y-60462000D01*
X217317000Y-60620750D01*
X217317000Y-61595000D01*
X217337000Y-61595000D01*
X217337000Y-61849000D01*
X217317000Y-61849000D01*
X217317000Y-62823250D01*
X217475750Y-62982000D01*
X218066309Y-62982000D01*
X218299698Y-62885327D01*
X218441176Y-62743849D01*
X218479327Y-62801927D01*
X218690360Y-62944377D01*
X218940000Y-62994440D01*
X218986097Y-62994440D01*
X218985931Y-63185663D01*
X219134493Y-63545212D01*
X219409341Y-63820540D01*
X219768630Y-63969730D01*
X220157663Y-63970069D01*
X220517212Y-63821507D01*
X220792540Y-63546659D01*
X220941730Y-63187370D01*
X220942069Y-62798337D01*
X220926562Y-62760807D01*
X221037377Y-62596640D01*
X221087440Y-62347000D01*
X221087440Y-61097000D01*
X221040463Y-60854877D01*
X220900673Y-60642073D01*
X220893269Y-60637075D01*
X220941730Y-60520370D01*
X220942069Y-60131337D01*
X220925441Y-60091096D01*
X221030377Y-59935640D01*
X221080440Y-59686000D01*
X221080440Y-59186000D01*
X221072287Y-59143980D01*
X221173663Y-59144069D01*
X221533212Y-58995507D01*
X221808540Y-58720659D01*
X221957730Y-58361370D01*
X221958069Y-57972337D01*
X221809507Y-57612788D01*
X221534659Y-57337460D01*
X221175370Y-57188270D01*
X221087440Y-57188193D01*
X221087440Y-56017000D01*
X221040463Y-55774877D01*
X220913898Y-55582206D01*
X221142615Y-55735030D01*
X221424500Y-55791100D01*
X223532390Y-55791100D01*
X224726111Y-56984821D01*
X224604370Y-56934270D01*
X224215337Y-56933931D01*
X223855788Y-57082493D01*
X223580460Y-57357341D01*
X223431270Y-57716630D01*
X223430931Y-58105663D01*
X223579493Y-58465212D01*
X223854341Y-58740540D01*
X224213630Y-58889730D01*
X224602663Y-58890069D01*
X224944641Y-58748766D01*
X224960360Y-58759377D01*
X225210000Y-58809440D01*
X225810000Y-58809440D01*
X226052123Y-58762463D01*
X226070758Y-58750221D01*
X226183691Y-58797000D01*
X226324250Y-58797000D01*
X226483000Y-58638250D01*
X226483000Y-58037000D01*
X226463000Y-58037000D01*
X226463000Y-57787000D01*
X226483000Y-57787000D01*
X226483000Y-57765000D01*
X226737000Y-57765000D01*
X226737000Y-57787000D01*
X226757000Y-57787000D01*
X226757000Y-58037000D01*
X226737000Y-58037000D01*
X226737000Y-58638250D01*
X226895750Y-58797000D01*
X226974400Y-58797000D01*
X226974400Y-59182000D01*
X226974400Y-60198000D01*
X227030470Y-60479885D01*
X227190145Y-60718855D01*
X227952145Y-61480855D01*
X228191115Y-61640530D01*
X228191116Y-61640530D01*
X228343882Y-61670917D01*
X228471327Y-61864927D01*
X228682360Y-62007377D01*
X228932000Y-62057440D01*
X230132000Y-62057440D01*
X230374123Y-62010463D01*
X230586927Y-61870673D01*
X230631613Y-61804471D01*
X230671327Y-61864927D01*
X230882360Y-62007377D01*
X231132000Y-62057440D01*
X232332000Y-62057440D01*
X232574123Y-62010463D01*
X232786927Y-61870673D01*
X232904428Y-61696600D01*
X233489716Y-61696600D01*
X233705585Y-62019670D01*
X234015069Y-62226460D01*
X233599268Y-62597964D01*
X233345291Y-63125209D01*
X233342642Y-63140974D01*
X233463783Y-63373000D01*
X234823000Y-63373000D01*
X234823000Y-63353000D01*
X235077000Y-63353000D01*
X235077000Y-63373000D01*
X235097000Y-63373000D01*
X235097000Y-63627000D01*
X235077000Y-63627000D01*
X235077000Y-64840924D01*
X235311913Y-64985184D01*
X235864320Y-64791954D01*
X236300732Y-64402036D01*
X236554709Y-63874791D01*
X236557358Y-63859026D01*
X236436218Y-63627002D01*
X236601000Y-63627002D01*
X236601000Y-81661000D01*
X236601000Y-81661000D01*
G37*
X236601000Y-81661000D02*
X236557358Y-81661000D01*
X236448600Y-81661000D01*
X236448600Y-80039359D01*
X236448600Y-79980641D01*
X236334526Y-79407152D01*
X236009670Y-78920971D01*
X235738827Y-78740000D01*
X236009670Y-78559029D01*
X236334526Y-78072848D01*
X236448600Y-77499359D01*
X236448600Y-77440641D01*
X236334526Y-76867152D01*
X236009670Y-76380971D01*
X235523489Y-76056115D01*
X234950000Y-75942041D01*
X234823000Y-75967302D01*
X234823000Y-64840924D01*
X234823000Y-63627000D01*
X233463783Y-63627000D01*
X233342642Y-63859026D01*
X233345291Y-63874791D01*
X233599268Y-64402036D01*
X234035680Y-64791954D01*
X234588087Y-64985184D01*
X234823000Y-64840924D01*
X234823000Y-75967302D01*
X234376511Y-76056115D01*
X233890330Y-76380971D01*
X233680000Y-76695751D01*
X233469670Y-76380971D01*
X232983489Y-76056115D01*
X232410000Y-75942041D01*
X231836511Y-76056115D01*
X231350330Y-76380971D01*
X231140000Y-76695751D01*
X230929670Y-76380971D01*
X230443489Y-76056115D01*
X229870000Y-75942041D01*
X229296511Y-76056115D01*
X228810330Y-76380971D01*
X228600000Y-76695751D01*
X228435069Y-76448915D01*
X228435069Y-65973337D01*
X228286507Y-65613788D01*
X228011659Y-65338460D01*
X227652370Y-65189270D01*
X227263337Y-65188931D01*
X227037978Y-65282047D01*
X227194327Y-65125699D01*
X227291000Y-64892310D01*
X227291000Y-64799750D01*
X227291000Y-64232250D01*
X227291000Y-64139690D01*
X227194327Y-63906301D01*
X227015698Y-63727673D01*
X226782309Y-63631000D01*
X226641750Y-63631000D01*
X226483000Y-63789750D01*
X226483000Y-64391000D01*
X227132250Y-64391000D01*
X227291000Y-64232250D01*
X227291000Y-64799750D01*
X227132250Y-64641000D01*
X226483000Y-64641000D01*
X226483000Y-65242250D01*
X226641750Y-65401000D01*
X226782309Y-65401000D01*
X226881206Y-65360035D01*
X226628460Y-65612341D01*
X226479270Y-65971630D01*
X226479188Y-66065400D01*
X226250669Y-66065400D01*
X226250669Y-62671337D01*
X226102107Y-62311788D01*
X225827259Y-62036460D01*
X225467970Y-61887270D01*
X225078937Y-61886931D01*
X224719388Y-62035493D01*
X224444060Y-62310341D01*
X224294870Y-62669630D01*
X224294531Y-63058663D01*
X224398225Y-63309623D01*
X224062937Y-63309331D01*
X223703388Y-63457893D01*
X223428060Y-63732741D01*
X223278870Y-64092030D01*
X223278531Y-64481063D01*
X223427093Y-64840612D01*
X223701941Y-65115940D01*
X224061230Y-65265130D01*
X224450263Y-65265469D01*
X224519147Y-65237006D01*
X224706360Y-65363377D01*
X224956000Y-65413440D01*
X225556000Y-65413440D01*
X225798123Y-65366463D01*
X225816758Y-65354221D01*
X225929691Y-65401000D01*
X226070250Y-65401000D01*
X226229000Y-65242250D01*
X226229000Y-64641000D01*
X226209000Y-64641000D01*
X226209000Y-64391000D01*
X226229000Y-64391000D01*
X226229000Y-63789750D01*
X226070250Y-63631000D01*
X226009200Y-63631000D01*
X226009200Y-63511438D01*
X226101140Y-63419659D01*
X226250330Y-63060370D01*
X226250669Y-62671337D01*
X226250669Y-66065400D01*
X224166438Y-66065400D01*
X224074659Y-65973460D01*
X223715370Y-65824270D01*
X223326337Y-65823931D01*
X222966788Y-65972493D01*
X222691460Y-66247341D01*
X222542270Y-66606630D01*
X222541931Y-66995663D01*
X222690493Y-67355212D01*
X222965341Y-67630540D01*
X223324630Y-67779730D01*
X223713663Y-67780069D01*
X224073212Y-67631507D01*
X224166281Y-67538600D01*
X226822000Y-67538600D01*
X227103885Y-67482530D01*
X227342855Y-67322855D01*
X227520754Y-67144955D01*
X227650663Y-67145069D01*
X228010212Y-66996507D01*
X228285540Y-66721659D01*
X228434730Y-66362370D01*
X228435069Y-65973337D01*
X228435069Y-76448915D01*
X228389670Y-76380971D01*
X227903489Y-76056115D01*
X227330000Y-75942041D01*
X226756511Y-76056115D01*
X226270330Y-76380971D01*
X226060000Y-76695751D01*
X225849670Y-76380971D01*
X225363489Y-76056115D01*
X224790000Y-75942041D01*
X224216511Y-76056115D01*
X223730330Y-76380971D01*
X223520000Y-76695751D01*
X223309670Y-76380971D01*
X222823489Y-76056115D01*
X222250000Y-75942041D01*
X221676511Y-76056115D01*
X221190330Y-76380971D01*
X220980000Y-76695751D01*
X220769670Y-76380971D01*
X220283489Y-76056115D01*
X219710000Y-75942041D01*
X219136511Y-76056115D01*
X218650330Y-76380971D01*
X218440000Y-76695751D01*
X218229670Y-76380971D01*
X217743489Y-76056115D01*
X217553440Y-76018311D01*
X217553440Y-71636000D01*
X217553440Y-70136000D01*
X217506463Y-69893877D01*
X217366673Y-69681073D01*
X217155640Y-69538623D01*
X217144600Y-69536409D01*
X217144600Y-65906750D01*
X217255377Y-65742640D01*
X217305440Y-65493000D01*
X217305440Y-64893000D01*
X217258463Y-64650877D01*
X217246221Y-64632241D01*
X217293000Y-64519309D01*
X217293000Y-64378750D01*
X217293000Y-63807250D01*
X217293000Y-63666691D01*
X217196327Y-63433302D01*
X217063000Y-63299974D01*
X217063000Y-62823250D01*
X217063000Y-61849000D01*
X217063000Y-61595000D01*
X217063000Y-60620750D01*
X216904250Y-60462000D01*
X216313691Y-60462000D01*
X216080302Y-60558673D01*
X215901673Y-60737301D01*
X215805000Y-60970690D01*
X215805000Y-61223309D01*
X215805000Y-61436250D01*
X215963750Y-61595000D01*
X217063000Y-61595000D01*
X217063000Y-61849000D01*
X215963750Y-61849000D01*
X215805000Y-62007750D01*
X215805000Y-62220691D01*
X215805000Y-62473310D01*
X215901673Y-62706699D01*
X216080302Y-62885327D01*
X216313691Y-62982000D01*
X216904250Y-62982000D01*
X217063000Y-62823250D01*
X217063000Y-63299974D01*
X217017699Y-63254673D01*
X216784310Y-63158000D01*
X216691750Y-63158000D01*
X216533000Y-63316750D01*
X216533000Y-63966000D01*
X217134250Y-63966000D01*
X217293000Y-63807250D01*
X217293000Y-64378750D01*
X217134250Y-64220000D01*
X216533000Y-64220000D01*
X216533000Y-64240000D01*
X216283000Y-64240000D01*
X216283000Y-64220000D01*
X216261000Y-64220000D01*
X216261000Y-63966000D01*
X216283000Y-63966000D01*
X216283000Y-63316750D01*
X216124250Y-63158000D01*
X216031690Y-63158000D01*
X215798301Y-63254673D01*
X215619673Y-63433302D01*
X215523000Y-63666691D01*
X215523000Y-63807250D01*
X215681748Y-63965998D01*
X215523000Y-63965998D01*
X215523000Y-64046213D01*
X215198337Y-64045931D01*
X214838788Y-64194493D01*
X214563460Y-64469341D01*
X214414270Y-64828630D01*
X214413931Y-65217663D01*
X214562493Y-65577212D01*
X214837341Y-65852540D01*
X215196630Y-66001730D01*
X215585663Y-66002069D01*
X215671400Y-65966643D01*
X215671400Y-69488560D01*
X215656000Y-69488560D01*
X215413877Y-69535537D01*
X215201073Y-69675327D01*
X215058623Y-69886360D01*
X215008560Y-70136000D01*
X215008560Y-71636000D01*
X215055537Y-71878123D01*
X215195327Y-72090927D01*
X215259637Y-72134337D01*
X215117673Y-72276302D01*
X215021000Y-72509691D01*
X215021000Y-73100250D01*
X215179750Y-73259000D01*
X216154000Y-73259000D01*
X216154000Y-73239000D01*
X216408000Y-73239000D01*
X216408000Y-73259000D01*
X217382250Y-73259000D01*
X217541000Y-73100250D01*
X217541000Y-72509691D01*
X217444327Y-72276302D01*
X217302849Y-72134823D01*
X217360927Y-72096673D01*
X217503377Y-71885640D01*
X217553440Y-71636000D01*
X217553440Y-76018311D01*
X217541000Y-76015837D01*
X217541000Y-74262309D01*
X217541000Y-73671750D01*
X217382250Y-73513000D01*
X216408000Y-73513000D01*
X216408000Y-74612250D01*
X216566750Y-74771000D01*
X216779691Y-74771000D01*
X217032310Y-74771000D01*
X217265699Y-74674327D01*
X217444327Y-74495698D01*
X217541000Y-74262309D01*
X217541000Y-76015837D01*
X217170000Y-75942041D01*
X216596511Y-76056115D01*
X216154000Y-76351791D01*
X216154000Y-74612250D01*
X216154000Y-73513000D01*
X215179750Y-73513000D01*
X215021000Y-73671750D01*
X215021000Y-74262309D01*
X215117673Y-74495698D01*
X215296301Y-74674327D01*
X215529690Y-74771000D01*
X215782309Y-74771000D01*
X215995250Y-74771000D01*
X216154000Y-74612250D01*
X216154000Y-76351791D01*
X216110330Y-76380971D01*
X215900000Y-76695751D01*
X215689670Y-76380971D01*
X215203489Y-76056115D01*
X214630000Y-75942041D01*
X214056511Y-76056115D01*
X213570330Y-76380971D01*
X213360000Y-76695751D01*
X213149670Y-76380971D01*
X212663489Y-76056115D01*
X212090000Y-75942041D01*
X212052069Y-75949585D01*
X212052069Y-69275337D01*
X211903507Y-68915788D01*
X211628659Y-68640460D01*
X211269370Y-68491270D01*
X210880337Y-68490931D01*
X210520788Y-68639493D01*
X210245460Y-68914341D01*
X210096270Y-69273630D01*
X210096082Y-69488560D01*
X209941000Y-69488560D01*
X209698877Y-69535537D01*
X209486073Y-69675327D01*
X209343623Y-69886360D01*
X209293560Y-70136000D01*
X209293560Y-71636000D01*
X209340537Y-71878123D01*
X209480327Y-72090927D01*
X209544637Y-72134337D01*
X209402673Y-72276302D01*
X209306000Y-72509691D01*
X209306000Y-73100250D01*
X209464750Y-73259000D01*
X210439000Y-73259000D01*
X210439000Y-73239000D01*
X210693000Y-73239000D01*
X210693000Y-73259000D01*
X211667250Y-73259000D01*
X211826000Y-73100250D01*
X211826000Y-72509691D01*
X211729327Y-72276302D01*
X211587849Y-72134823D01*
X211645927Y-72096673D01*
X211788377Y-71885640D01*
X211838440Y-71636000D01*
X211838440Y-70136000D01*
X211830580Y-70095492D01*
X211902540Y-70023659D01*
X212051730Y-69664370D01*
X212052069Y-69275337D01*
X212052069Y-75949585D01*
X211826000Y-75994553D01*
X211826000Y-74262309D01*
X211826000Y-73671750D01*
X211667250Y-73513000D01*
X210693000Y-73513000D01*
X210693000Y-74612250D01*
X210851750Y-74771000D01*
X211064691Y-74771000D01*
X211317310Y-74771000D01*
X211550699Y-74674327D01*
X211729327Y-74495698D01*
X211826000Y-74262309D01*
X211826000Y-75994553D01*
X211516511Y-76056115D01*
X211030330Y-76380971D01*
X210820000Y-76695751D01*
X210609670Y-76380971D01*
X210439000Y-76266932D01*
X210439000Y-74612250D01*
X210439000Y-73513000D01*
X209464750Y-73513000D01*
X209306000Y-73671750D01*
X209306000Y-74262309D01*
X209402673Y-74495698D01*
X209581301Y-74674327D01*
X209814690Y-74771000D01*
X210067309Y-74771000D01*
X210280250Y-74771000D01*
X210439000Y-74612250D01*
X210439000Y-76266932D01*
X210123489Y-76056115D01*
X209550000Y-75942041D01*
X208976511Y-76056115D01*
X208490330Y-76380971D01*
X208280000Y-76695751D01*
X208069670Y-76380971D01*
X207861069Y-76241588D01*
X207861069Y-64830337D01*
X207712507Y-64470788D01*
X207437659Y-64195460D01*
X207078370Y-64046270D01*
X206752000Y-64045985D01*
X206752000Y-63965998D01*
X206593252Y-63965998D01*
X206752000Y-63807250D01*
X206752000Y-63666691D01*
X206655327Y-63433302D01*
X206476699Y-63254673D01*
X206243310Y-63158000D01*
X206150750Y-63158000D01*
X205992000Y-63316750D01*
X205992000Y-63966000D01*
X206014000Y-63966000D01*
X206014000Y-64220000D01*
X205992000Y-64220000D01*
X205992000Y-64240000D01*
X205742000Y-64240000D01*
X205742000Y-64220000D01*
X205742000Y-63966000D01*
X205742000Y-63316750D01*
X205583250Y-63158000D01*
X205490690Y-63158000D01*
X205257301Y-63254673D01*
X205078673Y-63433302D01*
X204982000Y-63666691D01*
X204982000Y-63807250D01*
X205140750Y-63966000D01*
X205742000Y-63966000D01*
X205742000Y-64220000D01*
X205140750Y-64220000D01*
X204982000Y-64378750D01*
X204982000Y-64519309D01*
X205028150Y-64630726D01*
X205019623Y-64643360D01*
X204969560Y-64893000D01*
X204969560Y-65493000D01*
X205016537Y-65735123D01*
X205156327Y-65947927D01*
X205367360Y-66090377D01*
X205617000Y-66140440D01*
X206117000Y-66140440D01*
X206359123Y-66093463D01*
X206571915Y-65953680D01*
X206687630Y-66001730D01*
X207076663Y-66002069D01*
X207436212Y-65853507D01*
X207711540Y-65578659D01*
X207860730Y-65219370D01*
X207861069Y-64830337D01*
X207861069Y-76241588D01*
X207583489Y-76056115D01*
X207010000Y-75942041D01*
X206436511Y-76056115D01*
X205950330Y-76380971D01*
X205740000Y-76695751D01*
X205529670Y-76380971D01*
X205043489Y-76056115D01*
X204470000Y-75942041D01*
X203896511Y-76056115D01*
X203410330Y-76380971D01*
X203200000Y-76695751D01*
X202989670Y-76380971D01*
X202503489Y-76056115D01*
X201930000Y-75942041D01*
X201356511Y-76056115D01*
X200870330Y-76380971D01*
X200749069Y-76562450D01*
X200749069Y-65719337D01*
X200600507Y-65359788D01*
X200325659Y-65084460D01*
X199966370Y-64935270D01*
X199834865Y-64935155D01*
X199751440Y-64851730D01*
X199751440Y-64653000D01*
X199704463Y-64410877D01*
X199665003Y-64350807D01*
X199964663Y-64351069D01*
X200324212Y-64202507D01*
X200599540Y-63927659D01*
X200748730Y-63568370D01*
X200749069Y-63179337D01*
X200600507Y-62819788D01*
X200325659Y-62544460D01*
X199966370Y-62395270D01*
X199834865Y-62395155D01*
X199751440Y-62311730D01*
X199751440Y-62113000D01*
X199704463Y-61870877D01*
X199564673Y-61658073D01*
X199353640Y-61515623D01*
X199104000Y-61465560D01*
X197604000Y-61465560D01*
X197361877Y-61512537D01*
X197149073Y-61652327D01*
X197105662Y-61716637D01*
X196963698Y-61574673D01*
X196730309Y-61478000D01*
X196139750Y-61478000D01*
X195981000Y-61636750D01*
X195981000Y-62611000D01*
X196001000Y-62611000D01*
X196001000Y-62865000D01*
X195981000Y-62865000D01*
X195981000Y-63839250D01*
X196139750Y-63998000D01*
X196730309Y-63998000D01*
X196963698Y-63901327D01*
X197105176Y-63759849D01*
X197143327Y-63817927D01*
X197354360Y-63960377D01*
X197591631Y-64007959D01*
X197361877Y-64052537D01*
X197149073Y-64192327D01*
X197105662Y-64256637D01*
X196963698Y-64114673D01*
X196730309Y-64018000D01*
X196139750Y-64018000D01*
X195981000Y-64176750D01*
X195981000Y-65151000D01*
X196001000Y-65151000D01*
X196001000Y-65405000D01*
X195981000Y-65405000D01*
X195981000Y-66379250D01*
X196139750Y-66538000D01*
X196730309Y-66538000D01*
X196963698Y-66441327D01*
X197105176Y-66299849D01*
X197143327Y-66357927D01*
X197354360Y-66500377D01*
X197604000Y-66550440D01*
X199025574Y-66550440D01*
X199216341Y-66741540D01*
X199575630Y-66890730D01*
X199964663Y-66891069D01*
X200324212Y-66742507D01*
X200599540Y-66467659D01*
X200748730Y-66108370D01*
X200749069Y-65719337D01*
X200749069Y-76562450D01*
X200660000Y-76695751D01*
X200449670Y-76380971D01*
X199963489Y-76056115D01*
X199390000Y-75942041D01*
X198816511Y-76056115D01*
X198330330Y-76380971D01*
X198120000Y-76695751D01*
X197909670Y-76380971D01*
X197423489Y-76056115D01*
X196850000Y-75942041D01*
X196276511Y-76056115D01*
X195796069Y-76377136D01*
X195796069Y-46796337D01*
X195647507Y-46436788D01*
X195372659Y-46161460D01*
X195110440Y-46052577D01*
X195110440Y-45079000D01*
X195110440Y-44329000D01*
X195063463Y-44086877D01*
X194928848Y-43881951D01*
X195033730Y-43629370D01*
X195034069Y-43240337D01*
X194885507Y-42880788D01*
X194610659Y-42605460D01*
X194251370Y-42456270D01*
X194068440Y-42456110D01*
X194068440Y-37846000D01*
X194068440Y-35814000D01*
X194021463Y-35571877D01*
X193881673Y-35359073D01*
X193721956Y-35251262D01*
X193811385Y-35154818D01*
X194010975Y-34672944D01*
X194010975Y-33907056D01*
X193811385Y-33425182D01*
X193373379Y-32952812D01*
X192787946Y-32684017D01*
X192532000Y-32802633D01*
X192532000Y-34163000D01*
X193891836Y-34163000D01*
X194010975Y-33907056D01*
X194010975Y-34672944D01*
X193891836Y-34417000D01*
X192532000Y-34417000D01*
X192532000Y-34437000D01*
X192278000Y-34437000D01*
X192278000Y-34417000D01*
X192278000Y-34163000D01*
X192278000Y-32802633D01*
X192022054Y-32684017D01*
X191436621Y-32952812D01*
X190998615Y-33425182D01*
X190799025Y-33907056D01*
X190918164Y-34163000D01*
X192278000Y-34163000D01*
X192278000Y-34417000D01*
X190918164Y-34417000D01*
X190799025Y-34672944D01*
X190998615Y-35154818D01*
X191088574Y-35251835D01*
X190934073Y-35353327D01*
X190791623Y-35564360D01*
X190741560Y-35814000D01*
X190741560Y-37846000D01*
X190788537Y-38088123D01*
X190928327Y-38300927D01*
X191139360Y-38443377D01*
X191389000Y-38493440D01*
X193421000Y-38493440D01*
X193663123Y-38446463D01*
X193875927Y-38306673D01*
X194018377Y-38095640D01*
X194068440Y-37846000D01*
X194068440Y-42456110D01*
X193862337Y-42455931D01*
X193502788Y-42604493D01*
X193227460Y-42879341D01*
X193078270Y-43238630D01*
X193077931Y-43627663D01*
X193112283Y-43710802D01*
X193020877Y-43728537D01*
X192924120Y-43792095D01*
X192922698Y-43790673D01*
X192689309Y-43694000D01*
X192248750Y-43694000D01*
X192090000Y-43852750D01*
X192090000Y-44577000D01*
X192110000Y-44577000D01*
X192110000Y-44831000D01*
X192090000Y-44831000D01*
X192090000Y-45555250D01*
X192248750Y-45714000D01*
X192689309Y-45714000D01*
X192922698Y-45617327D01*
X192923980Y-45616044D01*
X193013360Y-45676377D01*
X193263000Y-45726440D01*
X194463000Y-45726440D01*
X194705123Y-45679463D01*
X194917927Y-45539673D01*
X195060377Y-45328640D01*
X195110440Y-45079000D01*
X195110440Y-46052577D01*
X195013370Y-46012270D01*
X194701787Y-46011998D01*
X194628640Y-45962623D01*
X194379000Y-45912560D01*
X193479000Y-45912560D01*
X193236877Y-45959537D01*
X193024073Y-46099327D01*
X192908191Y-46271000D01*
X192743000Y-46271000D01*
X192630796Y-46293318D01*
X192605673Y-46255073D01*
X192394640Y-46112623D01*
X192145000Y-46062560D01*
X191836000Y-46062560D01*
X191836000Y-45555250D01*
X191836000Y-44831000D01*
X191836000Y-44577000D01*
X191836000Y-43852750D01*
X191677250Y-43694000D01*
X191236691Y-43694000D01*
X191003302Y-43790673D01*
X190824673Y-43969301D01*
X190728000Y-44202690D01*
X190728000Y-44418250D01*
X190886750Y-44577000D01*
X191836000Y-44577000D01*
X191836000Y-44831000D01*
X190886750Y-44831000D01*
X190728000Y-44989750D01*
X190728000Y-45205310D01*
X190824673Y-45438699D01*
X191003302Y-45617327D01*
X191236691Y-45714000D01*
X191677250Y-45714000D01*
X191836000Y-45555250D01*
X191836000Y-46062560D01*
X191395000Y-46062560D01*
X191152877Y-46109537D01*
X190940073Y-46249327D01*
X190797623Y-46460360D01*
X190747560Y-46710000D01*
X190747560Y-47910000D01*
X190794537Y-48152123D01*
X190858095Y-48248879D01*
X190856673Y-48250302D01*
X190760000Y-48483691D01*
X190760000Y-48924250D01*
X190918750Y-49083000D01*
X191643000Y-49083000D01*
X191643000Y-49063000D01*
X191897000Y-49063000D01*
X191897000Y-49083000D01*
X192621250Y-49083000D01*
X192780000Y-48924250D01*
X192780000Y-48483691D01*
X192683327Y-48250302D01*
X192682044Y-48249019D01*
X192734855Y-48170783D01*
X192933205Y-48131329D01*
X192933206Y-48131329D01*
X192954197Y-48117302D01*
X193018327Y-48214927D01*
X193082637Y-48258337D01*
X192940673Y-48400302D01*
X192844000Y-48633691D01*
X192844000Y-49074250D01*
X193002750Y-49233000D01*
X193802000Y-49233000D01*
X193802000Y-49213000D01*
X194056000Y-49213000D01*
X194056000Y-49233000D01*
X194855250Y-49233000D01*
X195014000Y-49074250D01*
X195014000Y-48633691D01*
X194917327Y-48400302D01*
X194775849Y-48258823D01*
X194833927Y-48220673D01*
X194976377Y-48009640D01*
X194981798Y-47982603D01*
X194988205Y-47981329D01*
X194988206Y-47981329D01*
X195008055Y-47968065D01*
X195011663Y-47968069D01*
X195371212Y-47819507D01*
X195646540Y-47544659D01*
X195795730Y-47185370D01*
X195796069Y-46796337D01*
X195796069Y-76377136D01*
X195790330Y-76380971D01*
X195727000Y-76475750D01*
X195727000Y-66379250D01*
X195727000Y-65405000D01*
X195707000Y-65405000D01*
X195707000Y-65151000D01*
X195727000Y-65151000D01*
X195727000Y-64176750D01*
X195568250Y-64018000D01*
X195079497Y-64018000D01*
X195087801Y-63998000D01*
X195568250Y-63998000D01*
X195727000Y-63839250D01*
X195727000Y-62865000D01*
X195707000Y-62865000D01*
X195707000Y-62611000D01*
X195727000Y-62611000D01*
X195727000Y-61636750D01*
X195727000Y-58505250D01*
X195727000Y-57531000D01*
X195727000Y-57277000D01*
X195727000Y-56302750D01*
X195568250Y-56144000D01*
X195014000Y-56144000D01*
X195014000Y-50086309D01*
X195014000Y-49645750D01*
X194855250Y-49487000D01*
X194056000Y-49487000D01*
X194056000Y-50436250D01*
X194214750Y-50595000D01*
X194252691Y-50595000D01*
X194505310Y-50595000D01*
X194738699Y-50498327D01*
X194917327Y-50319698D01*
X195014000Y-50086309D01*
X195014000Y-56144000D01*
X194977691Y-56144000D01*
X194744302Y-56240673D01*
X194565673Y-56419301D01*
X194469000Y-56652690D01*
X194469000Y-56905309D01*
X194469000Y-57118250D01*
X194627750Y-57277000D01*
X195727000Y-57277000D01*
X195727000Y-57531000D01*
X194627750Y-57531000D01*
X194469000Y-57689750D01*
X194469000Y-57902691D01*
X194469000Y-58155310D01*
X194565673Y-58388699D01*
X194744302Y-58567327D01*
X194977691Y-58664000D01*
X195568250Y-58664000D01*
X195727000Y-58505250D01*
X195727000Y-61636750D01*
X195568250Y-61478000D01*
X194977691Y-61478000D01*
X194744302Y-61574673D01*
X194565673Y-61753301D01*
X194469000Y-61986690D01*
X194469000Y-62239309D01*
X194469000Y-62452250D01*
X194627748Y-62610998D01*
X194469000Y-62610998D01*
X194469000Y-62686902D01*
X194378370Y-62649270D01*
X193989337Y-62648931D01*
X193802000Y-62726336D01*
X193802000Y-50436250D01*
X193802000Y-49487000D01*
X193002750Y-49487000D01*
X192844000Y-49645750D01*
X192844000Y-50086309D01*
X192940673Y-50319698D01*
X193119301Y-50498327D01*
X193352690Y-50595000D01*
X193605309Y-50595000D01*
X193643250Y-50595000D01*
X193802000Y-50436250D01*
X193802000Y-62726336D01*
X193629788Y-62797493D01*
X193354460Y-63072341D01*
X193205270Y-63431630D01*
X193205096Y-63631252D01*
X193182470Y-63665115D01*
X193126400Y-63947000D01*
X193126400Y-64028063D01*
X193020877Y-64048537D01*
X192924120Y-64112095D01*
X192922698Y-64110673D01*
X192780000Y-64051565D01*
X192780000Y-49936309D01*
X192780000Y-49495750D01*
X192621250Y-49337000D01*
X191897000Y-49337000D01*
X191897000Y-50286250D01*
X192055750Y-50445000D01*
X192271310Y-50445000D01*
X192504699Y-50348327D01*
X192683327Y-50169698D01*
X192780000Y-49936309D01*
X192780000Y-64051565D01*
X192689309Y-64014000D01*
X192248750Y-64014000D01*
X192090000Y-64172750D01*
X192090000Y-64897000D01*
X192110000Y-64897000D01*
X192110000Y-65151000D01*
X192090000Y-65151000D01*
X192090000Y-65875250D01*
X192248750Y-66034000D01*
X192689309Y-66034000D01*
X192922698Y-65937327D01*
X192923980Y-65936044D01*
X193013360Y-65996377D01*
X193263000Y-66046440D01*
X194463000Y-66046440D01*
X194475121Y-66044088D01*
X194565673Y-66262699D01*
X194590525Y-66287551D01*
X194431000Y-66255560D01*
X193681000Y-66255560D01*
X193438877Y-66302537D01*
X193226073Y-66442327D01*
X193202722Y-66476918D01*
X192854370Y-66332270D01*
X192465337Y-66331931D01*
X192105788Y-66480493D01*
X191836000Y-66749810D01*
X191836000Y-65875250D01*
X191836000Y-65151000D01*
X191836000Y-64897000D01*
X191836000Y-64172750D01*
X191677250Y-64014000D01*
X191643000Y-64014000D01*
X191643000Y-50286250D01*
X191643000Y-49337000D01*
X190918750Y-49337000D01*
X190760000Y-49495750D01*
X190760000Y-49936309D01*
X190856673Y-50169698D01*
X191035301Y-50348327D01*
X191268690Y-50445000D01*
X191484250Y-50445000D01*
X191643000Y-50286250D01*
X191643000Y-64014000D01*
X191236691Y-64014000D01*
X191003302Y-64110673D01*
X190824673Y-64289301D01*
X190728000Y-64522690D01*
X190728000Y-64738250D01*
X190886750Y-64897000D01*
X191836000Y-64897000D01*
X191836000Y-65151000D01*
X190886750Y-65151000D01*
X190728000Y-65309750D01*
X190728000Y-65525310D01*
X190824673Y-65758699D01*
X191003302Y-65937327D01*
X191236691Y-66034000D01*
X191677250Y-66034000D01*
X191836000Y-65875250D01*
X191836000Y-66749810D01*
X191830460Y-66755341D01*
X191681270Y-67114630D01*
X191680931Y-67503663D01*
X191829493Y-67863212D01*
X192104341Y-68138540D01*
X192446168Y-68280479D01*
X192446170Y-68280480D01*
X192511794Y-68324329D01*
X192511795Y-68324329D01*
X192852000Y-68392000D01*
X193111330Y-68392000D01*
X193144095Y-68441879D01*
X193142673Y-68443302D01*
X193046000Y-68676691D01*
X193046000Y-69117250D01*
X193204750Y-69276000D01*
X193929000Y-69276000D01*
X193929000Y-69256000D01*
X194183000Y-69256000D01*
X194183000Y-69276000D01*
X194907250Y-69276000D01*
X195066000Y-69117250D01*
X195066000Y-68676691D01*
X194969327Y-68443302D01*
X194968044Y-68442019D01*
X195028377Y-68352640D01*
X195078440Y-68103000D01*
X195078440Y-66903000D01*
X195031463Y-66660877D01*
X194940673Y-66522666D01*
X194977691Y-66538000D01*
X195568250Y-66538000D01*
X195727000Y-66379250D01*
X195727000Y-76475750D01*
X195465474Y-76867152D01*
X195351400Y-77440641D01*
X195351400Y-77499359D01*
X195465474Y-78072848D01*
X195777300Y-78539529D01*
X195744277Y-78545937D01*
X195531473Y-78685727D01*
X195389023Y-78896760D01*
X195338960Y-79146400D01*
X195338960Y-80873600D01*
X195385937Y-81115723D01*
X195525727Y-81328527D01*
X195736760Y-81470977D01*
X195986400Y-81521040D01*
X197713600Y-81521040D01*
X197955723Y-81474063D01*
X198168527Y-81334273D01*
X198310977Y-81123240D01*
X198319179Y-81082340D01*
X198330330Y-81099029D01*
X198816511Y-81423885D01*
X199390000Y-81537959D01*
X199963489Y-81423885D01*
X200449670Y-81099029D01*
X200660000Y-80784248D01*
X200870330Y-81099029D01*
X201356511Y-81423885D01*
X201930000Y-81537959D01*
X202503489Y-81423885D01*
X202989670Y-81099029D01*
X203200000Y-80784248D01*
X203410330Y-81099029D01*
X203896511Y-81423885D01*
X204470000Y-81537959D01*
X205043489Y-81423885D01*
X205529670Y-81099029D01*
X205740000Y-80784248D01*
X205950330Y-81099029D01*
X206436511Y-81423885D01*
X207010000Y-81537959D01*
X207583489Y-81423885D01*
X208069670Y-81099029D01*
X208280000Y-80784248D01*
X208490330Y-81099029D01*
X208976511Y-81423885D01*
X209550000Y-81537959D01*
X210123489Y-81423885D01*
X210609670Y-81099029D01*
X210820000Y-80784248D01*
X211030330Y-81099029D01*
X211516511Y-81423885D01*
X212090000Y-81537959D01*
X212663489Y-81423885D01*
X213149670Y-81099029D01*
X213360000Y-80784248D01*
X213570330Y-81099029D01*
X214056511Y-81423885D01*
X214630000Y-81537959D01*
X215203489Y-81423885D01*
X215689670Y-81099029D01*
X215900000Y-80784248D01*
X216110330Y-81099029D01*
X216596511Y-81423885D01*
X217170000Y-81537959D01*
X217743489Y-81423885D01*
X218229670Y-81099029D01*
X218440000Y-80784248D01*
X218650330Y-81099029D01*
X219136511Y-81423885D01*
X219710000Y-81537959D01*
X220283489Y-81423885D01*
X220769670Y-81099029D01*
X220980000Y-80784248D01*
X221190330Y-81099029D01*
X221676511Y-81423885D01*
X222250000Y-81537959D01*
X222823489Y-81423885D01*
X223309670Y-81099029D01*
X223520000Y-80784248D01*
X223730330Y-81099029D01*
X224216511Y-81423885D01*
X224790000Y-81537959D01*
X225363489Y-81423885D01*
X225849670Y-81099029D01*
X226060000Y-80784248D01*
X226270330Y-81099029D01*
X226756511Y-81423885D01*
X227330000Y-81537959D01*
X227903489Y-81423885D01*
X228389670Y-81099029D01*
X228600000Y-80784248D01*
X228810330Y-81099029D01*
X229296511Y-81423885D01*
X229870000Y-81537959D01*
X230443489Y-81423885D01*
X230929670Y-81099029D01*
X231140000Y-80784248D01*
X231350330Y-81099029D01*
X231836511Y-81423885D01*
X232410000Y-81537959D01*
X232983489Y-81423885D01*
X233469670Y-81099029D01*
X233680000Y-80784248D01*
X233890330Y-81099029D01*
X234376511Y-81423885D01*
X234950000Y-81537959D01*
X235523489Y-81423885D01*
X236009670Y-81099029D01*
X236334526Y-80612848D01*
X236448600Y-80039359D01*
X236448600Y-81661000D01*
X195066000Y-81661000D01*
X195066000Y-70129309D01*
X195066000Y-69688750D01*
X194907250Y-69530000D01*
X194183000Y-69530000D01*
X194183000Y-70479250D01*
X194341750Y-70638000D01*
X194557310Y-70638000D01*
X194790699Y-70541327D01*
X194969327Y-70362698D01*
X195066000Y-70129309D01*
X195066000Y-81661000D01*
X193929000Y-81661000D01*
X193929000Y-70479250D01*
X193929000Y-69530000D01*
X193204750Y-69530000D01*
X193046000Y-69688750D01*
X193046000Y-70129309D01*
X193142673Y-70362698D01*
X193321301Y-70541327D01*
X193554690Y-70638000D01*
X193770250Y-70638000D01*
X193929000Y-70479250D01*
X193929000Y-81661000D01*
X187579000Y-81661000D01*
X187579000Y-32639000D01*
X236601000Y-32639000D01*
X236601000Y-49872283D01*
X236566463Y-49694277D01*
X236461040Y-49533790D01*
X236461040Y-35153600D01*
X236461040Y-33426400D01*
X236414063Y-33184277D01*
X236274273Y-32971473D01*
X236063240Y-32829023D01*
X235813600Y-32778960D01*
X234086400Y-32778960D01*
X233844277Y-32825937D01*
X233631473Y-32965727D01*
X233489023Y-33176760D01*
X233480820Y-33217659D01*
X233469670Y-33200971D01*
X232983489Y-32876115D01*
X232410000Y-32762041D01*
X231836511Y-32876115D01*
X231350330Y-33200971D01*
X231140000Y-33515751D01*
X230929670Y-33200971D01*
X230443489Y-32876115D01*
X229870000Y-32762041D01*
X229296511Y-32876115D01*
X228810330Y-33200971D01*
X228600000Y-33515751D01*
X228389670Y-33200971D01*
X227903489Y-32876115D01*
X227330000Y-32762041D01*
X226756511Y-32876115D01*
X226270330Y-33200971D01*
X226060000Y-33515751D01*
X225849670Y-33200971D01*
X225363489Y-32876115D01*
X224790000Y-32762041D01*
X224216511Y-32876115D01*
X223730330Y-33200971D01*
X223520000Y-33515751D01*
X223309670Y-33200971D01*
X222823489Y-32876115D01*
X222250000Y-32762041D01*
X221676511Y-32876115D01*
X221190330Y-33200971D01*
X220980000Y-33515751D01*
X220769670Y-33200971D01*
X220283489Y-32876115D01*
X219710000Y-32762041D01*
X219136511Y-32876115D01*
X218650330Y-33200971D01*
X218440000Y-33515751D01*
X218229670Y-33200971D01*
X217743489Y-32876115D01*
X217170000Y-32762041D01*
X216596511Y-32876115D01*
X216110330Y-33200971D01*
X215900000Y-33515751D01*
X215689670Y-33200971D01*
X215203489Y-32876115D01*
X214630000Y-32762041D01*
X214056511Y-32876115D01*
X213570330Y-33200971D01*
X213360000Y-33515751D01*
X213149670Y-33200971D01*
X212663489Y-32876115D01*
X212090000Y-32762041D01*
X211516511Y-32876115D01*
X211030330Y-33200971D01*
X210820000Y-33515751D01*
X210609670Y-33200971D01*
X210123489Y-32876115D01*
X209550000Y-32762041D01*
X208976511Y-32876115D01*
X208490330Y-33200971D01*
X208280000Y-33515751D01*
X208069670Y-33200971D01*
X207583489Y-32876115D01*
X207010000Y-32762041D01*
X206436511Y-32876115D01*
X205950330Y-33200971D01*
X205740000Y-33515751D01*
X205529670Y-33200971D01*
X205043489Y-32876115D01*
X204470000Y-32762041D01*
X203896511Y-32876115D01*
X203410330Y-33200971D01*
X203200000Y-33515751D01*
X202989670Y-33200971D01*
X202503489Y-32876115D01*
X201930000Y-32762041D01*
X201356511Y-32876115D01*
X200870330Y-33200971D01*
X200660000Y-33515751D01*
X200449670Y-33200971D01*
X199963489Y-32876115D01*
X199390000Y-32762041D01*
X198816511Y-32876115D01*
X198330330Y-33200971D01*
X198120000Y-33515751D01*
X197909670Y-33200971D01*
X197423489Y-32876115D01*
X196850000Y-32762041D01*
X196276511Y-32876115D01*
X195790330Y-33200971D01*
X195465474Y-33687152D01*
X195351400Y-34260641D01*
X195351400Y-34319359D01*
X195465474Y-34892848D01*
X195790330Y-35379029D01*
X196061172Y-35560000D01*
X195790330Y-35740971D01*
X195465474Y-36227152D01*
X195351400Y-36800641D01*
X195351400Y-36859359D01*
X195465474Y-37432848D01*
X195790330Y-37919029D01*
X196276511Y-38243885D01*
X196850000Y-38357959D01*
X197423489Y-38243885D01*
X197909670Y-37919029D01*
X198120000Y-37604248D01*
X198330330Y-37919029D01*
X198816511Y-38243885D01*
X199390000Y-38357959D01*
X199963489Y-38243885D01*
X200449670Y-37919029D01*
X200660000Y-37604248D01*
X200870330Y-37919029D01*
X201356511Y-38243885D01*
X201930000Y-38357959D01*
X202503489Y-38243885D01*
X202989670Y-37919029D01*
X203200000Y-37604248D01*
X203410330Y-37919029D01*
X203896511Y-38243885D01*
X204470000Y-38357959D01*
X205043489Y-38243885D01*
X205529670Y-37919029D01*
X205740000Y-37604248D01*
X205950330Y-37919029D01*
X206436511Y-38243885D01*
X207010000Y-38357959D01*
X207583489Y-38243885D01*
X208069670Y-37919029D01*
X208280000Y-37604248D01*
X208490330Y-37919029D01*
X208976511Y-38243885D01*
X209550000Y-38357959D01*
X210123489Y-38243885D01*
X210609670Y-37919029D01*
X210820000Y-37604248D01*
X211030330Y-37919029D01*
X211516511Y-38243885D01*
X212090000Y-38357959D01*
X212663489Y-38243885D01*
X213149670Y-37919029D01*
X213360000Y-37604248D01*
X213570330Y-37919029D01*
X214056511Y-38243885D01*
X214630000Y-38357959D01*
X215203489Y-38243885D01*
X215689670Y-37919029D01*
X215900000Y-37604248D01*
X216110330Y-37919029D01*
X216596511Y-38243885D01*
X217170000Y-38357959D01*
X217743489Y-38243885D01*
X218229670Y-37919029D01*
X218440000Y-37604248D01*
X218650330Y-37919029D01*
X219136511Y-38243885D01*
X219710000Y-38357959D01*
X220283489Y-38243885D01*
X220769670Y-37919029D01*
X220980000Y-37604248D01*
X221190330Y-37919029D01*
X221676511Y-38243885D01*
X222250000Y-38357959D01*
X222823489Y-38243885D01*
X223309670Y-37919029D01*
X223520000Y-37604248D01*
X223730330Y-37919029D01*
X224216511Y-38243885D01*
X224790000Y-38357959D01*
X225363489Y-38243885D01*
X225849670Y-37919029D01*
X226060000Y-37604248D01*
X226270330Y-37919029D01*
X226756511Y-38243885D01*
X227330000Y-38357959D01*
X227903489Y-38243885D01*
X228389670Y-37919029D01*
X228600000Y-37604248D01*
X228810330Y-37919029D01*
X229296511Y-38243885D01*
X229870000Y-38357959D01*
X230443489Y-38243885D01*
X230929670Y-37919029D01*
X231140000Y-37604248D01*
X231350330Y-37919029D01*
X231836511Y-38243885D01*
X232410000Y-38357959D01*
X232983489Y-38243885D01*
X233469670Y-37919029D01*
X233680000Y-37604248D01*
X233890330Y-37919029D01*
X234376511Y-38243885D01*
X234950000Y-38357959D01*
X235523489Y-38243885D01*
X236009670Y-37919029D01*
X236334526Y-37432848D01*
X236448600Y-36859359D01*
X236448600Y-36800641D01*
X236334526Y-36227152D01*
X236022699Y-35760470D01*
X236055723Y-35754063D01*
X236268527Y-35614273D01*
X236410977Y-35403240D01*
X236461040Y-35153600D01*
X236461040Y-49533790D01*
X236426673Y-49481473D01*
X236215640Y-49339023D01*
X235966000Y-49288960D01*
X233934000Y-49288960D01*
X233691877Y-49335937D01*
X233479073Y-49475727D01*
X233336623Y-49686760D01*
X233286560Y-49936400D01*
X233286560Y-50063400D01*
X229303625Y-50063400D01*
X229360327Y-50006699D01*
X229457000Y-49773310D01*
X229457000Y-49520691D01*
X229457000Y-49307750D01*
X229457000Y-48736250D01*
X229457000Y-48523309D01*
X229457000Y-48270690D01*
X229360327Y-48037301D01*
X229181698Y-47858673D01*
X228948309Y-47762000D01*
X228357750Y-47762000D01*
X228199000Y-47920750D01*
X228199000Y-48895000D01*
X229298250Y-48895000D01*
X229457000Y-48736250D01*
X229457000Y-49307750D01*
X229298250Y-49149000D01*
X228199000Y-49149000D01*
X228199000Y-49169000D01*
X227945000Y-49169000D01*
X227945000Y-49149000D01*
X227925000Y-49149000D01*
X227925000Y-48895000D01*
X227945000Y-48895000D01*
X227945000Y-47920750D01*
X227786250Y-47762000D01*
X227195691Y-47762000D01*
X226962302Y-47858673D01*
X226820823Y-48000150D01*
X226782673Y-47942073D01*
X226571640Y-47799623D01*
X226322000Y-47749560D01*
X224822000Y-47749560D01*
X224579877Y-47796537D01*
X224367073Y-47936327D01*
X224224623Y-48147360D01*
X224174560Y-48397000D01*
X224174560Y-49647000D01*
X224221537Y-49889123D01*
X224259771Y-49947328D01*
X224088460Y-50118341D01*
X223939270Y-50477630D01*
X223938931Y-50866663D01*
X224087493Y-51226212D01*
X224362341Y-51501540D01*
X224721630Y-51650730D01*
X225110663Y-51651069D01*
X225387700Y-51536600D01*
X233286560Y-51536600D01*
X233286560Y-51663600D01*
X233333537Y-51905723D01*
X233473327Y-52118527D01*
X233684360Y-52260977D01*
X233722962Y-52268718D01*
X233705585Y-52280330D01*
X233489716Y-52603400D01*
X232903246Y-52603400D01*
X232792673Y-52435073D01*
X232581640Y-52292623D01*
X232332000Y-52242560D01*
X231132000Y-52242560D01*
X230889877Y-52289537D01*
X230677073Y-52429327D01*
X230632386Y-52495528D01*
X230592673Y-52435073D01*
X230381640Y-52292623D01*
X230132000Y-52242560D01*
X228932000Y-52242560D01*
X228689877Y-52289537D01*
X228477073Y-52429327D01*
X228359571Y-52603400D01*
X222809110Y-52603400D01*
X222224600Y-52018890D01*
X222224600Y-47382438D01*
X222316540Y-47290659D01*
X222465730Y-46931370D01*
X222466069Y-46542337D01*
X222317507Y-46182788D01*
X222042659Y-45907460D01*
X221683370Y-45758270D01*
X221294337Y-45757931D01*
X220934788Y-45906493D01*
X220659460Y-46181341D01*
X220510270Y-46540630D01*
X220509931Y-46929663D01*
X220579552Y-47098159D01*
X220236288Y-47239993D01*
X219960960Y-47514841D01*
X219811770Y-47874130D01*
X219811633Y-48031055D01*
X219728288Y-48065493D01*
X219452960Y-48340341D01*
X219303770Y-48699630D01*
X219303535Y-48968383D01*
X219029788Y-49081493D01*
X218754460Y-49356341D01*
X218605270Y-49715630D01*
X218604931Y-50104663D01*
X218753493Y-50464212D01*
X218846400Y-50557281D01*
X218846400Y-53213000D01*
X218902470Y-53494885D01*
X219062145Y-53733855D01*
X219646421Y-54318131D01*
X219410788Y-54415493D01*
X219135460Y-54690341D01*
X218986270Y-55049630D01*
X218985991Y-55369560D01*
X218940000Y-55369560D01*
X218697877Y-55416537D01*
X218485073Y-55556327D01*
X218441662Y-55620637D01*
X218299698Y-55478673D01*
X218066309Y-55382000D01*
X217475750Y-55382000D01*
X217317000Y-55540750D01*
X217317000Y-56515000D01*
X217337000Y-56515000D01*
X217337000Y-56769000D01*
X217317000Y-56769000D01*
X217317000Y-56789000D01*
X217063000Y-56789000D01*
X217063000Y-56769000D01*
X217063000Y-56515000D01*
X217063000Y-55540750D01*
X216904250Y-55382000D01*
X216313691Y-55382000D01*
X216080302Y-55478673D01*
X216023000Y-55535974D01*
X216023000Y-50506309D01*
X216023000Y-50365750D01*
X215864250Y-50207000D01*
X215263000Y-50207000D01*
X215263000Y-50856250D01*
X215421750Y-51015000D01*
X215514310Y-51015000D01*
X215747699Y-50918327D01*
X215926327Y-50739698D01*
X216023000Y-50506309D01*
X216023000Y-55535974D01*
X215901673Y-55657301D01*
X215805000Y-55890690D01*
X215805000Y-56143309D01*
X215805000Y-56356250D01*
X215963750Y-56515000D01*
X217063000Y-56515000D01*
X217063000Y-56769000D01*
X215963750Y-56769000D01*
X215805000Y-56927750D01*
X215805000Y-57140691D01*
X215805000Y-57277000D01*
X215013000Y-57277000D01*
X215013000Y-50856250D01*
X215013000Y-50207000D01*
X214411750Y-50207000D01*
X214253000Y-50365750D01*
X214253000Y-50506309D01*
X214349673Y-50739698D01*
X214528301Y-50918327D01*
X214761690Y-51015000D01*
X214854250Y-51015000D01*
X215013000Y-50856250D01*
X215013000Y-57277000D01*
X214245000Y-57277000D01*
X214245000Y-50506309D01*
X214245000Y-50365750D01*
X214086250Y-50207000D01*
X213485000Y-50207000D01*
X213485000Y-50856250D01*
X213643750Y-51015000D01*
X213736310Y-51015000D01*
X213969699Y-50918327D01*
X214148327Y-50739698D01*
X214245000Y-50506309D01*
X214245000Y-57277000D01*
X213474236Y-57277000D01*
X212979000Y-56781764D01*
X212979000Y-51013057D01*
X212983690Y-51015000D01*
X213076250Y-51015000D01*
X213235000Y-50856250D01*
X213235000Y-50207000D01*
X213213000Y-50207000D01*
X213213000Y-49953000D01*
X213235000Y-49953000D01*
X213235000Y-49933000D01*
X213485000Y-49933000D01*
X213485000Y-49953000D01*
X214086250Y-49953000D01*
X214245000Y-49794250D01*
X214245000Y-49653691D01*
X214198849Y-49542273D01*
X214207377Y-49529640D01*
X214248860Y-49322781D01*
X214287537Y-49522123D01*
X214299778Y-49540758D01*
X214253000Y-49653691D01*
X214253000Y-49794250D01*
X214411750Y-49953000D01*
X215013000Y-49953000D01*
X215013000Y-49933000D01*
X215263000Y-49933000D01*
X215263000Y-49953000D01*
X215864250Y-49953000D01*
X216023000Y-49794250D01*
X216023000Y-49653691D01*
X215976849Y-49542273D01*
X215985377Y-49529640D01*
X216035440Y-49280000D01*
X216035440Y-48680000D01*
X215988463Y-48437877D01*
X215973957Y-48415795D01*
X216115730Y-48074370D01*
X216116069Y-47685337D01*
X215967507Y-47325788D01*
X215874600Y-47232718D01*
X215874600Y-44535787D01*
X216005123Y-44510463D01*
X216217927Y-44370673D01*
X216360377Y-44159640D01*
X216410440Y-43910000D01*
X216410440Y-42410000D01*
X216363463Y-42167877D01*
X216223673Y-41955073D01*
X216159362Y-41911662D01*
X216301327Y-41769698D01*
X216398000Y-41536309D01*
X216398000Y-40945750D01*
X216398000Y-40374250D01*
X216398000Y-39783691D01*
X216301327Y-39550302D01*
X216122699Y-39371673D01*
X215889310Y-39275000D01*
X215636691Y-39275000D01*
X215423750Y-39275000D01*
X215265000Y-39433750D01*
X215265000Y-40533000D01*
X216239250Y-40533000D01*
X216398000Y-40374250D01*
X216398000Y-40945750D01*
X216239250Y-40787000D01*
X215265000Y-40787000D01*
X215265000Y-40807000D01*
X215011000Y-40807000D01*
X215011000Y-40787000D01*
X215011000Y-40533000D01*
X215011000Y-39433750D01*
X214852250Y-39275000D01*
X214639309Y-39275000D01*
X214386690Y-39275000D01*
X214153301Y-39371673D01*
X213974673Y-39550302D01*
X213878000Y-39783691D01*
X213878000Y-40374250D01*
X214036750Y-40533000D01*
X215011000Y-40533000D01*
X215011000Y-40787000D01*
X214036750Y-40787000D01*
X213878000Y-40945750D01*
X213878000Y-41536309D01*
X213974673Y-41769698D01*
X214116150Y-41911176D01*
X214058073Y-41949327D01*
X213915623Y-42160360D01*
X213865560Y-42410000D01*
X213865560Y-43910000D01*
X213912537Y-44152123D01*
X214052327Y-44364927D01*
X214263360Y-44507377D01*
X214401400Y-44535059D01*
X214401400Y-47232561D01*
X214309460Y-47324341D01*
X214249035Y-47469858D01*
X214189507Y-47325788D01*
X213914659Y-47050460D01*
X213555370Y-46901270D01*
X213362440Y-46901101D01*
X213362440Y-43910000D01*
X213362440Y-42410000D01*
X213315463Y-42167877D01*
X213175673Y-41955073D01*
X213111362Y-41911662D01*
X213253327Y-41769698D01*
X213350000Y-41536309D01*
X213350000Y-40945750D01*
X213350000Y-40374250D01*
X213350000Y-39783691D01*
X213253327Y-39550302D01*
X213074699Y-39371673D01*
X212841310Y-39275000D01*
X212588691Y-39275000D01*
X212375750Y-39275000D01*
X212217000Y-39433750D01*
X212217000Y-40533000D01*
X213191250Y-40533000D01*
X213350000Y-40374250D01*
X213350000Y-40945750D01*
X213191250Y-40787000D01*
X212217000Y-40787000D01*
X212217000Y-40807000D01*
X211963000Y-40807000D01*
X211963000Y-40787000D01*
X211963000Y-40533000D01*
X211963000Y-39433750D01*
X211804250Y-39275000D01*
X211591309Y-39275000D01*
X211338690Y-39275000D01*
X211105301Y-39371673D01*
X210926673Y-39550302D01*
X210830000Y-39783691D01*
X210830000Y-40374250D01*
X210988750Y-40533000D01*
X211963000Y-40533000D01*
X211963000Y-40787000D01*
X210988750Y-40787000D01*
X210830000Y-40945750D01*
X210830000Y-41536309D01*
X210926673Y-41769698D01*
X211068150Y-41911176D01*
X211010073Y-41949327D01*
X210867623Y-42160360D01*
X210817560Y-42410000D01*
X210817560Y-43390730D01*
X210680145Y-43528145D01*
X210520470Y-43767115D01*
X210464400Y-44049000D01*
X210464400Y-44184561D01*
X210372460Y-44276341D01*
X210223270Y-44635630D01*
X210222931Y-45024663D01*
X210371493Y-45384212D01*
X210646341Y-45659540D01*
X211005630Y-45808730D01*
X211394663Y-45809069D01*
X211754212Y-45660507D01*
X212029540Y-45385659D01*
X212178730Y-45026370D01*
X212179069Y-44637337D01*
X212146056Y-44557440D01*
X212715000Y-44557440D01*
X212957123Y-44510463D01*
X213169927Y-44370673D01*
X213312377Y-44159640D01*
X213362440Y-43910000D01*
X213362440Y-46901101D01*
X213166337Y-46900931D01*
X212806788Y-47049493D01*
X212531460Y-47324341D01*
X212510169Y-47375614D01*
X212285370Y-47282270D01*
X211896337Y-47281931D01*
X211536788Y-47430493D01*
X211261460Y-47705341D01*
X211121313Y-48042850D01*
X211070000Y-48032560D01*
X210570000Y-48032560D01*
X210327877Y-48079537D01*
X210115073Y-48219327D01*
X210034219Y-48339108D01*
X209935870Y-48298270D01*
X209546837Y-48297931D01*
X209187288Y-48446493D01*
X208911960Y-48721341D01*
X208762770Y-49080630D01*
X208762431Y-49469663D01*
X208910993Y-49829212D01*
X209185841Y-50104540D01*
X209545130Y-50253730D01*
X209934163Y-50254069D01*
X210048074Y-50207002D01*
X210093748Y-50207002D01*
X209935000Y-50365750D01*
X209935000Y-50506309D01*
X210031673Y-50739698D01*
X210210301Y-50918327D01*
X210443690Y-51015000D01*
X210536250Y-51015000D01*
X210695000Y-50856250D01*
X210695000Y-50207000D01*
X210673000Y-50207000D01*
X210673000Y-49982962D01*
X210805885Y-49956530D01*
X210841099Y-49933000D01*
X210945000Y-49933000D01*
X210945000Y-49953000D01*
X210967000Y-49953000D01*
X210967000Y-50207000D01*
X210945000Y-50207000D01*
X210945000Y-50856250D01*
X211103750Y-51015000D01*
X211196310Y-51015000D01*
X211201000Y-51013057D01*
X211201000Y-55003764D01*
X210695000Y-54497764D01*
X208623069Y-52425833D01*
X208623069Y-44002337D01*
X208474507Y-43642788D01*
X208199659Y-43367460D01*
X207840370Y-43218270D01*
X207520440Y-43217991D01*
X207520440Y-42410000D01*
X207473463Y-42167877D01*
X207333673Y-41955073D01*
X207269362Y-41911662D01*
X207411327Y-41769698D01*
X207508000Y-41536309D01*
X207508000Y-40945750D01*
X207508000Y-40374250D01*
X207508000Y-39783691D01*
X207411327Y-39550302D01*
X207232699Y-39371673D01*
X206999310Y-39275000D01*
X206746691Y-39275000D01*
X206533750Y-39275000D01*
X206375000Y-39433750D01*
X206375000Y-40533000D01*
X207349250Y-40533000D01*
X207508000Y-40374250D01*
X207508000Y-40945750D01*
X207349250Y-40787000D01*
X206375000Y-40787000D01*
X206375000Y-40807000D01*
X206121000Y-40807000D01*
X206121000Y-40787000D01*
X206121000Y-40533000D01*
X206121000Y-39433750D01*
X205962250Y-39275000D01*
X205749309Y-39275000D01*
X205496690Y-39275000D01*
X205263301Y-39371673D01*
X205084673Y-39550302D01*
X204988000Y-39783691D01*
X204988000Y-40374250D01*
X205146750Y-40533000D01*
X206121000Y-40533000D01*
X206121000Y-40787000D01*
X205146750Y-40787000D01*
X204988000Y-40945750D01*
X204988000Y-41536309D01*
X205084673Y-41769698D01*
X205226150Y-41911176D01*
X205168073Y-41949327D01*
X205025623Y-42160360D01*
X204975560Y-42410000D01*
X204975560Y-43910000D01*
X205022537Y-44152123D01*
X205162327Y-44364927D01*
X205373360Y-44507377D01*
X205623000Y-44557440D01*
X206603730Y-44557440D01*
X206763145Y-44716855D01*
X206823350Y-44757082D01*
X207090341Y-45024540D01*
X207449630Y-45173730D01*
X207838663Y-45174069D01*
X208198212Y-45025507D01*
X208473540Y-44750659D01*
X208622730Y-44391370D01*
X208623069Y-44002337D01*
X208623069Y-52425833D01*
X202847863Y-46650627D01*
X202759507Y-46436788D01*
X202484659Y-46161460D01*
X202125370Y-46012270D01*
X201736337Y-46011931D01*
X201376788Y-46160493D01*
X201101460Y-46435341D01*
X200952270Y-46794630D01*
X200951931Y-47183663D01*
X201100493Y-47543212D01*
X201375341Y-47818540D01*
X201590749Y-47907985D01*
X210578764Y-56896000D01*
X208375000Y-56896000D01*
X208375000Y-56759691D01*
X208375000Y-56546750D01*
X208375000Y-55975250D01*
X208375000Y-55762309D01*
X208375000Y-55509690D01*
X208278327Y-55276301D01*
X208099698Y-55097673D01*
X207866309Y-55001000D01*
X207275750Y-55001000D01*
X207117000Y-55159750D01*
X207117000Y-56134000D01*
X208216250Y-56134000D01*
X208375000Y-55975250D01*
X208375000Y-56546750D01*
X208216250Y-56388000D01*
X207117000Y-56388000D01*
X207117000Y-56408000D01*
X206863000Y-56408000D01*
X206863000Y-56388000D01*
X206843000Y-56388000D01*
X206843000Y-56134000D01*
X206863000Y-56134000D01*
X206863000Y-55159750D01*
X206704250Y-55001000D01*
X206113691Y-55001000D01*
X205880302Y-55097673D01*
X205738823Y-55239150D01*
X205700673Y-55181073D01*
X205489640Y-55038623D01*
X205240000Y-54988560D01*
X205193791Y-54988560D01*
X205194069Y-54670337D01*
X205045507Y-54310788D01*
X204770659Y-54035460D01*
X204411370Y-53886270D01*
X204022337Y-53885931D01*
X203662788Y-54034493D01*
X203387460Y-54309341D01*
X203238270Y-54668630D01*
X203237931Y-55057663D01*
X203286233Y-55174564D01*
X203285073Y-55175327D01*
X203142623Y-55386360D01*
X203092560Y-55636000D01*
X203092560Y-56886000D01*
X203094500Y-56896000D01*
X200876069Y-56896000D01*
X200876069Y-50098337D01*
X200727507Y-49738788D01*
X200452659Y-49463460D01*
X200093370Y-49314270D01*
X199704337Y-49313931D01*
X199344788Y-49462493D01*
X199126880Y-49680020D01*
X198970000Y-49648560D01*
X198370000Y-49648560D01*
X198127877Y-49695537D01*
X198109241Y-49707778D01*
X197996309Y-49661000D01*
X197855750Y-49661000D01*
X197697000Y-49819750D01*
X197697000Y-50421000D01*
X197717000Y-50421000D01*
X197717000Y-50671000D01*
X197697000Y-50671000D01*
X197697000Y-51272250D01*
X197855750Y-51431000D01*
X197996309Y-51431000D01*
X198107726Y-51384849D01*
X198120360Y-51393377D01*
X198370000Y-51443440D01*
X198970000Y-51443440D01*
X199212123Y-51396463D01*
X199385458Y-51282600D01*
X199644000Y-51282600D01*
X199708675Y-51269735D01*
X200091663Y-51270069D01*
X200451212Y-51121507D01*
X200726540Y-50846659D01*
X200875730Y-50487370D01*
X200876069Y-50098337D01*
X200876069Y-56896000D01*
X200618914Y-56896000D01*
X200748730Y-56583370D01*
X200749069Y-56194337D01*
X200600507Y-55834788D01*
X200325659Y-55559460D01*
X199966370Y-55410270D01*
X199749791Y-55410081D01*
X199617440Y-55277730D01*
X199617440Y-55122000D01*
X199570463Y-54879877D01*
X199430673Y-54667073D01*
X199219640Y-54524623D01*
X198970000Y-54474560D01*
X198370000Y-54474560D01*
X198127877Y-54521537D01*
X198109241Y-54533778D01*
X197996309Y-54487000D01*
X197855750Y-54487000D01*
X197697000Y-54645750D01*
X197697000Y-55247000D01*
X197717000Y-55247000D01*
X197717000Y-55497000D01*
X197697000Y-55497000D01*
X197697000Y-55519000D01*
X197443000Y-55519000D01*
X197443000Y-55497000D01*
X197443000Y-55247000D01*
X197443000Y-54645750D01*
X197443000Y-51272250D01*
X197443000Y-50671000D01*
X197443000Y-50421000D01*
X197443000Y-49819750D01*
X197284250Y-49661000D01*
X197143691Y-49661000D01*
X196910302Y-49757673D01*
X196731673Y-49936301D01*
X196635000Y-50169690D01*
X196635000Y-50262250D01*
X196793750Y-50421000D01*
X197443000Y-50421000D01*
X197443000Y-50671000D01*
X196793750Y-50671000D01*
X196635000Y-50829750D01*
X196635000Y-50922310D01*
X196731673Y-51155699D01*
X196910302Y-51334327D01*
X197143691Y-51431000D01*
X197284250Y-51431000D01*
X197443000Y-51272250D01*
X197443000Y-54645750D01*
X197284250Y-54487000D01*
X197143691Y-54487000D01*
X196910302Y-54583673D01*
X196731673Y-54762301D01*
X196635000Y-54995690D01*
X196635000Y-55088250D01*
X196793750Y-55247000D01*
X197443000Y-55247000D01*
X197443000Y-55497000D01*
X196793750Y-55497000D01*
X196635000Y-55655750D01*
X196635000Y-55748310D01*
X196731673Y-55981699D01*
X196910302Y-56160327D01*
X197143691Y-56257000D01*
X197242431Y-56257000D01*
X197149073Y-56318327D01*
X197105662Y-56382637D01*
X196963698Y-56240673D01*
X196730309Y-56144000D01*
X196139750Y-56144000D01*
X195981000Y-56302750D01*
X195981000Y-57277000D01*
X196001000Y-57277000D01*
X196001000Y-57531000D01*
X195981000Y-57531000D01*
X195981000Y-58505250D01*
X196139750Y-58664000D01*
X196730309Y-58664000D01*
X196963698Y-58567327D01*
X197105176Y-58425849D01*
X197143327Y-58483927D01*
X197354360Y-58626377D01*
X197604000Y-58676440D01*
X199104000Y-58676440D01*
X199346123Y-58629463D01*
X199359897Y-58620414D01*
X199702630Y-58762730D01*
X200091663Y-58763069D01*
X200307227Y-58674000D01*
X209308764Y-58674000D01*
X207778382Y-60204382D01*
X207022764Y-60960000D01*
X203609055Y-60960000D01*
X203395370Y-60871270D01*
X203006337Y-60870931D01*
X202646788Y-61019493D01*
X202371460Y-61294341D01*
X202222270Y-61653630D01*
X202221931Y-62042663D01*
X202370493Y-62402212D01*
X202645341Y-62677540D01*
X203004630Y-62826730D01*
X203393663Y-62827069D01*
X203609227Y-62738000D01*
X207391000Y-62738000D01*
X207731205Y-62670329D01*
X207731206Y-62670329D01*
X208019618Y-62477618D01*
X209035618Y-61461618D01*
X209677000Y-60820236D01*
X209677000Y-65630944D01*
X209588270Y-65844630D01*
X209587931Y-66233663D01*
X209736493Y-66593212D01*
X210011341Y-66868540D01*
X210370630Y-67017730D01*
X210759663Y-67018069D01*
X211119212Y-66869507D01*
X211394540Y-66594659D01*
X211543730Y-66235370D01*
X211543933Y-66001977D01*
X211582079Y-66002010D01*
X211723360Y-66097377D01*
X211973000Y-66147440D01*
X213223000Y-66147440D01*
X213465123Y-66100463D01*
X213677927Y-65960673D01*
X213820377Y-65749640D01*
X213870440Y-65500000D01*
X213870440Y-64000000D01*
X213823463Y-63757877D01*
X213683673Y-63545073D01*
X213619362Y-63501662D01*
X213761327Y-63359698D01*
X213858000Y-63126309D01*
X213858000Y-62535750D01*
X213858000Y-61964250D01*
X213858000Y-61373691D01*
X213761327Y-61140302D01*
X213582699Y-60961673D01*
X213349310Y-60865000D01*
X213096691Y-60865000D01*
X212883750Y-60865000D01*
X212725000Y-61023750D01*
X212725000Y-62123000D01*
X213699250Y-62123000D01*
X213858000Y-61964250D01*
X213858000Y-62535750D01*
X213699250Y-62377000D01*
X212725000Y-62377000D01*
X212725000Y-62397000D01*
X212471000Y-62397000D01*
X212471000Y-62377000D01*
X212451000Y-62377000D01*
X212451000Y-62123000D01*
X212471000Y-62123000D01*
X212471000Y-61023750D01*
X212312250Y-60865000D01*
X212099309Y-60865000D01*
X211846690Y-60865000D01*
X211613301Y-60961673D01*
X211455000Y-61119974D01*
X211455000Y-59042236D01*
X212083618Y-58413618D01*
X212090000Y-58407236D01*
X212477382Y-58794618D01*
X212765794Y-58987329D01*
X212765795Y-58987329D01*
X213106000Y-59055000D01*
X218099942Y-59055000D01*
X218098000Y-59059690D01*
X218098000Y-59152250D01*
X218256750Y-59311000D01*
X218906000Y-59311000D01*
X218906000Y-59289000D01*
X219160000Y-59289000D01*
X219160000Y-59311000D01*
X219180000Y-59311000D01*
X219180000Y-59561000D01*
X219160000Y-59561000D01*
X219160000Y-59583000D01*
X218906000Y-59583000D01*
X218906000Y-59561000D01*
X218256750Y-59561000D01*
X218098000Y-59719750D01*
X218098000Y-59812310D01*
X218194673Y-60045699D01*
X218373302Y-60224327D01*
X218606691Y-60321000D01*
X218747250Y-60321000D01*
X218905998Y-60162252D01*
X218905998Y-60321000D01*
X218906000Y-60321000D01*
X218986103Y-60321000D01*
X218985991Y-60449560D01*
X218940000Y-60449560D01*
X218906000Y-60456156D01*
X218697877Y-60496537D01*
X218485073Y-60636327D01*
X218441662Y-60700637D01*
X218299698Y-60558673D01*
X218066309Y-60462000D01*
X217475750Y-60462000D01*
X217317000Y-60620750D01*
X217317000Y-61595000D01*
X217337000Y-61595000D01*
X217337000Y-61849000D01*
X217317000Y-61849000D01*
X217317000Y-62823250D01*
X217475750Y-62982000D01*
X218066309Y-62982000D01*
X218299698Y-62885327D01*
X218441176Y-62743849D01*
X218479327Y-62801927D01*
X218690360Y-62944377D01*
X218940000Y-62994440D01*
X218986097Y-62994440D01*
X218985931Y-63185663D01*
X219134493Y-63545212D01*
X219409341Y-63820540D01*
X219768630Y-63969730D01*
X220157663Y-63970069D01*
X220517212Y-63821507D01*
X220792540Y-63546659D01*
X220941730Y-63187370D01*
X220942069Y-62798337D01*
X220926562Y-62760807D01*
X221037377Y-62596640D01*
X221087440Y-62347000D01*
X221087440Y-61097000D01*
X221040463Y-60854877D01*
X220900673Y-60642073D01*
X220893269Y-60637075D01*
X220941730Y-60520370D01*
X220942069Y-60131337D01*
X220925441Y-60091096D01*
X221030377Y-59935640D01*
X221080440Y-59686000D01*
X221080440Y-59186000D01*
X221072287Y-59143980D01*
X221173663Y-59144069D01*
X221533212Y-58995507D01*
X221808540Y-58720659D01*
X221957730Y-58361370D01*
X221958069Y-57972337D01*
X221809507Y-57612788D01*
X221534659Y-57337460D01*
X221175370Y-57188270D01*
X221087440Y-57188193D01*
X221087440Y-56017000D01*
X221040463Y-55774877D01*
X220913898Y-55582206D01*
X221142615Y-55735030D01*
X221424500Y-55791100D01*
X223532390Y-55791100D01*
X224726111Y-56984821D01*
X224604370Y-56934270D01*
X224215337Y-56933931D01*
X223855788Y-57082493D01*
X223580460Y-57357341D01*
X223431270Y-57716630D01*
X223430931Y-58105663D01*
X223579493Y-58465212D01*
X223854341Y-58740540D01*
X224213630Y-58889730D01*
X224602663Y-58890069D01*
X224944641Y-58748766D01*
X224960360Y-58759377D01*
X225210000Y-58809440D01*
X225810000Y-58809440D01*
X226052123Y-58762463D01*
X226070758Y-58750221D01*
X226183691Y-58797000D01*
X226324250Y-58797000D01*
X226483000Y-58638250D01*
X226483000Y-58037000D01*
X226463000Y-58037000D01*
X226463000Y-57787000D01*
X226483000Y-57787000D01*
X226483000Y-57765000D01*
X226737000Y-57765000D01*
X226737000Y-57787000D01*
X226757000Y-57787000D01*
X226757000Y-58037000D01*
X226737000Y-58037000D01*
X226737000Y-58638250D01*
X226895750Y-58797000D01*
X226974400Y-58797000D01*
X226974400Y-59182000D01*
X226974400Y-60198000D01*
X227030470Y-60479885D01*
X227190145Y-60718855D01*
X227952145Y-61480855D01*
X228191115Y-61640530D01*
X228191116Y-61640530D01*
X228343882Y-61670917D01*
X228471327Y-61864927D01*
X228682360Y-62007377D01*
X228932000Y-62057440D01*
X230132000Y-62057440D01*
X230374123Y-62010463D01*
X230586927Y-61870673D01*
X230631613Y-61804471D01*
X230671327Y-61864927D01*
X230882360Y-62007377D01*
X231132000Y-62057440D01*
X232332000Y-62057440D01*
X232574123Y-62010463D01*
X232786927Y-61870673D01*
X232904428Y-61696600D01*
X233489716Y-61696600D01*
X233705585Y-62019670D01*
X234015069Y-62226460D01*
X233599268Y-62597964D01*
X233345291Y-63125209D01*
X233342642Y-63140974D01*
X233463783Y-63373000D01*
X234823000Y-63373000D01*
X234823000Y-63353000D01*
X235077000Y-63353000D01*
X235077000Y-63373000D01*
X235097000Y-63373000D01*
X235097000Y-63627000D01*
X235077000Y-63627000D01*
X235077000Y-64840924D01*
X235311913Y-64985184D01*
X235864320Y-64791954D01*
X236300732Y-64402036D01*
X236554709Y-63874791D01*
X236557358Y-63859026D01*
X236436218Y-63627002D01*
X236601000Y-63627002D01*
X236601000Y-81661000D01*
M02*
